{
.appVersion = "1320";
DisplayStrings = (
"Mu/lcommaaccent/kcommaaccent a/space hipiji/space m/emacron/gcommaaccent ina/space br/imacron vi/space nogar/scaron ot/space celof/amacron na/space/zcaron/ncommaaccent audz/emacron j/ccaron/umacron sku./space/space t\012\012/Iogonek lintkdama/space fechtuotojo/space \012/scaron paga/space sublyk/ccaron iojusi/space pragr/eogonek/zcaron/edotaccent/space apval/uogonek/space arb/umacron z/aogonek \012\012Kæmi/space ný/space öxi/space hér,/space ykist/space þjófum/space nú/space bæði/space víl/space og/space ádrepa./space Svo/space hölt,/space yxna/space kýr/space þegði/space jú/space um/space dóp/space í/space fé/space á/space bæ./space oa\012/space Þú/space dazt/space á/space hnéð/space í/space vök/space og/space yfir/space blóm/space sexý/space \012\012ADREPA/space SVO/space HÖLTÅ\012\012PACK/space MY/space BOX/space WITH/space FIVE/space DOZEN/space LIQUOR/space JUGS\012ATHEN/space ZOMBIES/space ARRIVE\012QUICKLY/space FAX/space JUDGE/space PAT.\012\012when/space zombies/space arrive,\012quickly/space fax/space judge/space pat.\012\012GorgeouAG",

glyphs = (
{
glyphname = A;
lastChange = "2020-04-10 14:38:15 +0000";
layers = (
{
anchors = (
{
name = bottom;
position = "{587, 0}";
},
{
name = ogonek;
position = "{1051, 0}";
},
{
name = top;
position = "{587, 1475}";
}
);
layerId = "A1A0948C-E637-4A65-8CCC-05505AD98C44";
paths = (
{
closed = 1;
nodes = (
"590 1449 LINE",
"588 1449 LINE",
"1017 0 LINE",
"1051 0 LINE",
"610 1482 LINE",
"569 1482 LINE",
"125 0 LINE",
"159 0 LINE"
);
},
{
closed = 1;
nodes = (
"281 451 LINE",
"898 451 LINE",
"898 479 LINE",
"281 479 LINE"
);
}
);
width = 1230;
},
{
anchors = (
{
name = bottom;
position = "{719, 0}";
},
{
name = ogonek;
position = "{1372, 0}";
},
{
name = top;
position = "{721, 1475}";
}
);
layerId = "584F9D0D-8480-40C6-ABEA-8DD6EE64252D";
paths = (
{
closed = 1;
nodes = (
"731 1234 LINE",
"711 1234 LINE",
"959 0 LINE",
"1372 0 LINE",
"1031 1475 LINE",
"410 1475 LINE",
"67 0 LINE",
"480 0 LINE"
);
},
{
closed = 1;
nodes = (
"357 310 LINE",
"1085 310 LINE",
"1085 613 LINE",
"357 613 LINE"
);
}
);
width = 1452;
},
{
anchors = (
{
name = bottom;
position = "{613.132, 0}";
},
{
name = ogonek;
position = "{1265, 0}";
},
{
name = top;
position = "{926.653, 1475}";
}
);
layerId = "3FDD6C00-F7FD-4E85-84B0-0136AF7D7529";
paths = (
{
closed = 1;
nodes = (
"896 1234 LINE",
"876 1234 LINE",
"859 0 LINE",
"1265 0 LINE",
"1238 1475 LINE",
"617 1475 LINE",
"-40 0 LINE",
"380 0 LINE"
);
},
{
closed = 1;
nodes = (
"320 310 LINE",
"1048 310 LINE",
"1109 613 LINE",
"381 613 LINE"
);
}
);
width = 1452;
},
{
anchors = (
{
name = bottom;
position = "{472, 0}";
},
{
name = ogonek;
position = "{931, 0}";
},
{
name = top;
position = "{785, 1475}";
}
);
layerId = "2503C51C-5A6C-4B2C-A968-78FEA18C2585";
paths = (
{
closed = 1;
nodes = (
"780 1449 LINE",
"778 1449 LINE",
"899 0 LINE",
"931 0 LINE",
"806 1482 LINE",
"765 1482 LINE",
"5 0 LINE",
"41 0 LINE"
);
},
{
closed = 1;
nodes = (
"259 451 LINE",
"876 451 LINE",
"882 479 LINE",
"265 479 LINE"
);
}
);
width = 1230;
}
);
leftKerningGroup = A;
note = A;
rightKerningGroup = A;
unicode = 0041;
},
{
glyphname = AE;
lastChange = "2020-04-11 13:40:45 +0000";
layers = (
{
components = (
{
name = E;
transform = "{1, 0, 0, 1, 810, 0}";
}
);
layerId = "A1A0948C-E637-4A65-8CCC-05505AD98C44";
paths = (
{
closed = 1;
nodes = (
"95 0 LINE",
"367 461 LINE",
"934 461 LINE",
"934 0 LINE",
"956 0 LINE",
"956 1475 LINE",
"931 1475 LINE",
"59 0 LINE"
);
},
{
closed = 1;
nodes = (
"934 1416 LINE",
"934 490 LINE",
"383 490 LINE"
);
}
);
width = 1848;
},
{
components = (
{
name = E;
transform = "{1, 0, 0, 1, 929, 0}";
}
);
layerId = "584F9D0D-8480-40C6-ABEA-8DD6EE64252D";
paths = (
{
closed = 1;
nodes = (
"469 0 LINE",
"595 199 LINE",
"1021 199 LINE",
"1021 0 LINE",
"1422 0 LINE",
"1422 1475 LINE",
"959 1475 LINE",
"22 0 LINE"
);
},
{
closed = 1;
nodes = (
"1023 951 LINE",
"1023 468 LINE",
"735 468 LINE"
);
}
);
width = 2088;
},
{
components = (
{
name = E;
transform = "{1, 0, 0, 1, 910, 0}";
}
);
layerId = "3FDD6C00-F7FD-4E85-84B0-0136AF7D7529";
paths = (
{
closed = 1;
nodes = (
"357 0 LINE",
"523 199 LINE",
"933 199 LINE",
"886 0 LINE",
"1290 0 LINE",
"1602 1475 LINE",
"1113 1475 LINE",
"-98 0 LINE"
);
},
{
closed = 1;
nodes = (
"1109 951 LINE",
"989 468 LINE",
"717 468 LINE"
);
}
);
width = 2069;
},
{
components = (
{
name = E;
transform = "{1, 0, 0, 1, 788, 0}";
}
);
layerId = "2503C51C-5A6C-4B2C-A968-78FEA18C2585";
paths = (
{
closed = 1;
nodes = (
"-21 0 LINE",
"345 461 LINE",
"892 461 LINE",
"791 0 LINE",
"823 0 LINE",
"1136 1475 LINE",
"1090 1475 LINE",
"-57 0 LINE"
);
},
{
closed = 1;
nodes = (
"1105 1447 LINE",
"896 490 LINE",
"366 490 LINE"
);
}
);
width = 1826;
}
);
leftKerningGroup = A;
rightKerningGroup = E;
rightMetricsKey = E;
unicode = 00C6;
},
{
glyphname = B;
lastChange = "2020-04-10 14:43:20 +0000";
layers = (
{
anchors = (
{
name = bottom;
position = "{510, 0}";
},
{
name = top;
position = "{510, 1475}";
}
);
layerId = "A1A0948C-E637-4A65-8CCC-05505AD98C44";
paths = (
{
closed = 1;
nodes = (
"130 1475 LINE",
"130 0 LINE",
"513 0 LINE SMOOTH",
"788 0 OFFCURVE",
"962 122 OFFCURVE",
"962 398 CURVE SMOOTH",
"962 670 OFFCURVE",
"747 775 OFFCURVE",
"549 779 CURVE",
"725 784 OFFCURVE",
"934 893 OFFCURVE",
"934 1130 CURVE SMOOTH",
"934 1390 OFFCURVE",
"764 1475 OFFCURVE",
"527 1475 CURVE SMOOTH"
);
},
{
closed = 1;
nodes = (
"163 1447 LINE",
"524 1447 LINE SMOOTH",
"740 1447 OFFCURVE",
"902 1379 OFFCURVE",
"902 1130 CURVE SMOOTH",
"902 892 OFFCURVE",
"691 791 OFFCURVE",
"421 791 CURVE SMOOTH",
"163 791 LINE"
);
},
{
closed = 1;
nodes = (
"163 28 LINE",
"163 763 LINE",
"420 763 LINE SMOOTH",
"653 763 OFFCURVE",
"930 710 OFFCURVE",
"930 398 CURVE SMOOTH",
"930 131 OFFCURVE",
"761 28 OFFCURVE",
"508 28 CURVE SMOOTH"
);
}
);
width = 1118;
},
{
anchors = (
{
name = bottom;
position = "{673, 0}";
},
{
name = top;
position = "{673, 1475}";
}
);
layerId = "584F9D0D-8480-40C6-ABEA-8DD6EE64252D";
paths = (
{
closed = 1;
nodes = (
"94 1475 LINE",
"94 0 LINE",
"739 0 LINE SMOOTH",
"1123 0 OFFCURVE",
"1242 195 OFFCURVE",
"1242 424 CURVE SMOOTH",
"1242 674 OFFCURVE",
"1060 761 OFFCURVE",
"936 765 CURVE",
"1060 776 OFFCURVE",
"1203 904 OFFCURVE",
"1203 1115 CURVE SMOOTH",
"1203 1321 OFFCURVE",
"1070 1475 OFFCURVE",
"739 1475 CURVE SMOOTH"
);
},
{
closed = 1;
nodes = (
"498 1175 LINE",
"634 1175 LINE SMOOTH",
"754 1175 OFFCURVE",
"801 1127 OFFCURVE",
"801 1045 CURVE SMOOTH",
"801 966 OFFCURVE",
"754 903 OFFCURVE",
"634 903 CURVE SMOOTH",
"498 903 LINE"
);
},
{
closed = 1;
nodes = (
"498 301 LINE",
"498 605 LINE",
"660 605 LINE SMOOTH",
"780 605 OFFCURVE",
"831 529 OFFCURVE",
"831 449 CURVE SMOOTH",
"831 367 OFFCURVE",
"780 301 OFFCURVE",
"660 301 CURVE SMOOTH"
);
}
);
width = 1345;
},
{
anchors = (
{
name = bottom;
position = "{512, 0}";
},
{
name = top;
position = "{826, 1475}";
}
);
layerId = "3FDD6C00-F7FD-4E85-84B0-0136AF7D7529";
paths = (
{
closed = 1;
nodes = (
"290 1475 LINE",
"-24 0 LINE",
"621 0 LINE SMOOTH",
"1005 0 OFFCURVE",
"1225 233 OFFCURVE",
"1225 507 CURVE SMOOTH",
"1225 648 OFFCURVE",
"1104 761 OFFCURVE",
"981 765 CURVE",
"1107 776 OFFCURVE",
"1333 927 OFFCURVE",
"1333 1202 CURVE SMOOTH",
"1333 1333 OFFCURVE",
"1266 1475 OFFCURVE",
"935 1475 CURVE SMOOTH"
);
},
{
closed = 1;
nodes = (
"630 1175 LINE",
"766 1175 LINE SMOOTH",
"886 1175 OFFCURVE",
"910 1140 OFFCURVE",
"910 1078 CURVE SMOOTH",
"910 977 OFFCURVE",
"826 903 OFFCURVE",
"706 903 CURVE SMOOTH",
"570 903 LINE"
);
},
{
closed = 1;
nodes = (
"444 301 LINE",
"509 605 LINE",
"671 605 LINE SMOOTH",
"791 605 OFFCURVE",
"813 548 OFFCURVE",
"813 488 CURVE SMOOTH",
"813 374 OFFCURVE",
"726 301 OFFCURVE",
"606 301 CURVE SMOOTH"
);
}
);
width = 1345;
},
{
anchors = (
{
name = bottom;
position = "{378, 0}";
},
{
name = top;
position = "{692, 1475}";
}
);
layerId = "2503C51C-5A6C-4B2C-A968-78FEA18C2585";
paths = (
{
closed = 1;
nodes = (
"327 1475 LINE",
"13 0 LINE",
"396 0 LINE SMOOTH",
"716 0 OFFCURVE",
"934 155 OFFCURVE",
"934 462 CURVE SMOOTH",
"934 686 OFFCURVE",
"769 773 OFFCURVE",
"598 778 CURVE",
"848 785 OFFCURVE",
"1062 960 OFFCURVE",
"1062 1218 CURVE SMOOTH",
"1062 1399 OFFCURVE",
"931 1475 OFFCURVE",
"719 1475 CURVE SMOOTH"
);
},
{
closed = 1;
nodes = (
"354 1447 LINE",
"715 1447 LINE SMOOTH",
"907 1447 OFFCURVE",
"1031 1386 OFFCURVE",
"1031 1219 CURVE SMOOTH",
"1031 931 OFFCURVE",
"782 791 OFFCURVE",
"472 791 CURVE SMOOTH",
"214 791 LINE"
);
},
{
closed = 1;
nodes = (
"52 28 LINE",
"208 763 LINE",
"475 763 LINE SMOOTH",
"690 763 OFFCURVE",
"903 709 OFFCURVE",
"903 465 CURVE SMOOTH",
"903 177 OFFCURVE",
"701 28 OFFCURVE",
"397 28 CURVE SMOOTH"
);
}
);
width = 1118;
}
);
leftKerningGroup = H;
note = B;
rightKerningGroup = B;
unicode = 0042;
},
{
glyphname = C;
lastChange = "2020-04-10 20:39:52 +0000";
layers = (
{
anchors = (
{
name = bottom;
position = "{591, 0}";
},
{
name = top;
position = "{580, 1475}";
}
);
layerId = "A1A0948C-E637-4A65-8CCC-05505AD98C44";
paths = (
{
closed = 1;
nodes = (
"1047 474 LINE",
"1047 269 OFFCURVE",
"892 13 OFFCURVE",
"602 13 CURVE SMOOTH",
"299 13 OFFCURVE",
"105 298 OFFCURVE",
"105 737 CURVE SMOOTH",
"105 1176 OFFCURVE",
"299 1461 OFFCURVE",
"602 1461 CURVE SMOOTH",
"862 1461 OFFCURVE",
"1013 1256 OFFCURVE",
"1042 1066 CURVE SMOOTH",
"1045 1043 OFFCURVE",
"1047 1021 OFFCURVE",
"1047 1000 CURVE",
"1078 1000 LINE",
"1078 1023 OFFCURVE",
"1076 1047 OFFCURVE",
"1072 1071 CURVE SMOOTH",
"1042 1271 OFFCURVE",
"884 1489 OFFCURVE",
"602 1489 CURVE SMOOTH",
"272 1489 OFFCURVE",
"73 1192 OFFCURVE",
"73 737 CURVE SMOOTH",
"73 282 OFFCURVE",
"272 -15 OFFCURVE",
"602 -15 CURVE SMOOTH",
"918 -15 OFFCURVE",
"1078 256 OFFCURVE",
"1078 474 CURVE"
);
}
);
width = 1238;
},
{
anchors = (
{
name = bottom;
position = "{720, 0}";
},
{
name = top;
position = "{727, 1475}";
}
);
layerId = "584F9D0D-8480-40C6-ABEA-8DD6EE64252D";
paths = (
{
closed = 1;
nodes = (
"964 577 LINE",
"964 423 OFFCURVE",
"877 285 OFFCURVE",
"729 285 CURVE SMOOTH",
"573 285 OFFCURVE",
"460 419 OFFCURVE",
"460 738 CURVE SMOOTH",
"460 1057 OFFCURVE",
"573 1188 OFFCURVE",
"729 1188 CURVE SMOOTH",
"859 1188 OFFCURVE",
"942 1084 OFFCURVE",
"960 954 CURVE SMOOTH",
"963 936 OFFCURVE",
"964 917 OFFCURVE",
"964 898 CURVE",
"1369 898 LINE",
"1369 947 OFFCURVE",
"1362 997 OFFCURVE",
"1349 1047 CURVE SMOOTH",
"1289 1273 OFFCURVE",
"1089 1489 OFFCURVE",
"729 1489 CURVE SMOOTH",
"284 1489 OFFCURVE",
"50 1158 OFFCURVE",
"50 738 CURVE SMOOTH",
"50 318 OFFCURVE",
"284 -15 OFFCURVE",
"729 -15 CURVE SMOOTH",
"1168 -15 OFFCURVE",
"1369 308 OFFCURVE",
"1369 577 CURVE"
);
}
);
width = 1459;
},
{
anchors = (
{
name = bottom;
position = "{611, 0}";
},
{
name = top;
position = "{921, 1475}";
}
);
layerId = "3FDD6C00-F7FD-4E85-84B0-0136AF7D7529";
paths = (
{
closed = 1;
nodes = (
"970 577 LINE",
"937 423 OFFCURVE",
"821 285 OFFCURVE",
"673 285 CURVE SMOOTH",
"550 285 OFFCURVE",
"486 368 OFFCURVE",
"486 544 CURVE SMOOTH",
"486 825 OFFCURVE",
"605 1188 OFFCURVE",
"865 1188 CURVE SMOOTH",
"986 1188 OFFCURVE",
"1047 1098 OFFCURVE",
"1047 981 CURVE SMOOTH",
"1047 958 OFFCURVE",
"1043 921 OFFCURVE",
"1038 898 CURVE",
"1443 898 LINE",
"1452 938 OFFCURVE",
"1456 978 OFFCURVE",
"1456 1019 CURVE SMOOTH",
"1456 1254 OFFCURVE",
"1284 1489 OFFCURVE",
"909 1489 CURVE SMOOTH",
"418 1489 OFFCURVE",
"78 1063 OFFCURVE",
"78 554 CURVE SMOOTH",
"78 234 OFFCURVE",
"244 -15 OFFCURVE",
"629 -15 CURVE SMOOTH",
"1068 -15 OFFCURVE",
"1318 308 OFFCURVE",
"1375 577 CURVE"
);
}
);
width = 1448;
},
{
anchors = (
{
name = bottom;
position = "{494, 0}";
},
{
name = top;
position = "{778, 1475}";
}
);
layerId = "2503C51C-5A6C-4B2C-A968-78FEA18C2585";
paths = (
{
closed = 1;
nodes = (
"1028 474 LINE",
"985 271 OFFCURVE",
"775 13 OFFCURVE",
"485 13 CURVE SMOOTH",
"237 13 OFFCURVE",
"126 204 OFFCURVE",
"126 493 CURVE SMOOTH",
"126 961 OFFCURVE",
"371 1461 OFFCURVE",
"793 1461 CURVE SMOOTH",
"1041 1461 OFFCURVE",
"1150 1275 OFFCURVE",
"1150 1092 CURVE SMOOTH",
"1150 1059 OFFCURVE",
"1144 1019 OFFCURVE",
"1140 1000 CURVE",
"1171 1000 LINE",
"1175 1015 OFFCURVE",
"1180 1056 OFFCURVE",
"1180 1089 CURVE SMOOTH",
"1180 1289 OFFCURVE",
"1070 1489 OFFCURVE",
"793 1489 CURVE SMOOTH",
"347 1489 OFFCURVE",
"93 980 OFFCURVE",
"93 489 CURVE SMOOTH",
"93 186 OFFCURVE",
"215 -15 OFFCURVE",
"487 -15 CURVE SMOOTH",
"803 -15 OFFCURVE",
"1013 256 OFFCURVE",
"1059 474 CURVE"
);
}
);
width = 1237;
}
);
leftKerningGroup = O;
leftMetricsKey = O;
note = C;
rightKerningGroup = O;
rightMetricsKey = O;
unicode = 0043;
},
{
glyphname = D;
lastChange = "2020-04-10 14:48:43 +0000";
layers = (
{
anchors = (
{
name = bottom;
position = "{508, 0}";
},
{
name = center;
position = "{508, 738}";
},
{
name = top;
position = "{508, 1475}";
}
);
layerId = "A1A0948C-E637-4A65-8CCC-05505AD98C44";
paths = (
{
closed = 1;
nodes = (
"383 0 LINE SMOOTH",
"766 0 OFFCURVE",
"982 259 OFFCURVE",
"982 736 CURVE SMOOTH",
"982 1213 OFFCURVE",
"766 1475 OFFCURVE",
"383 1475 CURVE SMOOTH",
"101 1475 LINE",
"101 0 LINE"
);
},
{
closed = 1;
nodes = (
"134 1447 LINE",
"384 1447 LINE SMOOTH",
"748 1447 OFFCURVE",
"950 1185 OFFCURVE",
"950 736 CURVE SMOOTH",
"950 287 OFFCURVE",
"748 28 OFFCURVE",
"384 28 CURVE SMOOTH",
"134 28 LINE"
);
}
);
width = 1135;
},
{
anchors = (
{
name = bottom;
position = "{615, 0}";
},
{
name = center;
position = "{615, 764}";
},
{
name = top;
position = "{615, 1475}";
}
);
layerId = "584F9D0D-8480-40C6-ABEA-8DD6EE64252D";
paths = (
{
closed = 1;
nodes = (
"634 0 LINE SMOOTH",
"1032 0 OFFCURVE",
"1259 320 OFFCURVE",
"1259 741 CURVE SMOOTH",
"1259 1162 OFFCURVE",
"1032 1475 OFFCURVE",
"634 1475 CURVE SMOOTH",
"66 1475 LINE",
"66 0 LINE"
);
},
{
closed = 1;
nodes = (
"470 1175 LINE",
"570 1175 LINE SMOOTH",
"721 1175 OFFCURVE",
"849 1014 OFFCURVE",
"849 741 CURVE SMOOTH",
"849 468 OFFCURVE",
"721 300 OFFCURVE",
"570 300 CURVE SMOOTH",
"470 300 LINE"
);
}
);
width = 1310;
},
{
anchors = (
{
name = bottom;
position = "{487, 0}";
},
{
name = center;
position = "{644, 738}";
},
{
name = top;
position = "{801, 1475}";
}
);
layerId = "3FDD6C00-F7FD-4E85-84B0-0136AF7D7529";
paths = (
{
closed = 1;
nodes = (
"516 0 LINE SMOOTH",
"987 0 OFFCURVE",
"1309 426 OFFCURVE",
"1309 926 CURVE SMOOTH",
"1309 1248 OFFCURVE",
"1165 1475 OFFCURVE",
"820 1475 CURVE SMOOTH",
"262 1475 LINE",
"-52 0 LINE"
);
},
{
closed = 1;
nodes = (
"602 1175 LINE",
"702 1175 LINE SMOOTH",
"827 1175 OFFCURVE",
"899 1072 OFFCURVE",
"899 894 CURVE SMOOTH",
"899 635 OFFCURVE",
"749 300 OFFCURVE",
"516 300 CURVE SMOOTH",
"416 300 LINE"
);
}
);
width = 1310;
},
{
anchors = (
{
name = bottom;
position = "{390, 0}";
},
{
name = center;
position = "{547, 738}";
},
{
name = top;
position = "{704, 1475}";
}
);
layerId = "2503C51C-5A6C-4B2C-A968-78FEA18C2585";
paths = (
{
closed = 1;
nodes = (
"277 0 LINE SMOOTH",
"660 0 OFFCURVE",
"1054 345 OFFCURVE",
"1054 981 CURVE SMOOTH",
"1054 1240 OFFCURVE",
"964 1475 OFFCURVE",
"581 1475 CURVE SMOOTH",
"299 1475 LINE",
"-15 0 LINE"
);
},
{
closed = 1;
nodes = (
"326 1447 LINE",
"581 1447 LINE SMOOTH",
"945 1447 OFFCURVE",
"1022 1221 OFFCURVE",
"1022 981 CURVE SMOOTH",
"1022 360 OFFCURVE",
"638 28 OFFCURVE",
"274 28 CURVE SMOOTH",
"24 28 LINE"
);
}
);
width = 1135;
}
);
leftKerningGroup = H;
note = D;
rightKerningGroup = O;
unicode = 0044;
},
{
glyphname = Eth;
lastChange = "2020-04-11 13:40:45 +0000";
layers = (
{
components = (
{
name = D;
transform = "{1, 0, 0, 1, 146, 0}";
}
);
layerId = "A1A0948C-E637-4A65-8CCC-05505AD98C44";
paths = (
{
closed = 1;
nodes = (
"532 719 LINE",
"532 745 LINE",
"39 745 LINE",
"39 719 LINE"
);
}
);
width = 1281;
},
{
components = (
{
name = D;
transform = "{1, 0, 0, 1, 15, 0}";
}
);
layerId = "584F9D0D-8480-40C6-ABEA-8DD6EE64252D";
paths = (
{
closed = 1;
nodes = (
"687 610 LINE",
"687 855 LINE",
"-37 855 LINE",
"-37 610 LINE"
);
}
);
width = 1325;
},
{
components = (
{
name = D;
transform = "{1, 0, 0, 1, 29, 0}";
}
);
layerId = "3FDD6C00-F7FD-4E85-84B0-0136AF7D7529";
paths = (
{
closed = 1;
nodes = (
"700 610 LINE",
"746 855 LINE",
"21 855 LINE",
"-24 610 LINE"
);
}
);
width = 1339;
},
{
components = (
{
name = D;
transform = "{1, 0, 0, 1, 163, 0}";
}
);
layerId = "2503C51C-5A6C-4B2C-A968-78FEA18C2585";
paths = (
{
closed = 1;
nodes = (
"567 719 LINE",
"572 745 LINE",
"80 745 LINE",
"76 719 LINE"
);
}
);
width = 1298;
}
);
leftKerningGroup = H;
rightKerningGroup = O;
rightMetricsKey = D;
unicode = 00D0;
},
{
glyphname = E;
lastChange = "2020-04-10 15:40:18 +0000";
layers = (
{
anchors = (
{
name = bottom;
position = "{520, 0}";
},
{
name = ogonek;
position = "{727, 10}";
},
{
name = top;
position = "{490, 1475}";
},
{
name = topleft;
position = "{22, 1475}";
}
);
layerId = "A1A0948C-E637-4A65-8CCC-05505AD98C44";
paths = (
{
closed = 1;
nodes = (
"838 1447 LINE",
"838 1475 LINE",
"123 1475 LINE",
"123 0 LINE",
"838 0 LINE",
"838 28 LINE",
"153 28 LINE",
"153 726 LINE",
"727 726 LINE",
"727 754 LINE",
"153 754 LINE",
"153 1447 LINE"
);
}
);
width = 1038;
},
{
anchors = (
{
name = bottom;
position = "{580, 0}";
},
{
name = ogonek;
position = "{993, 10}";
},
{
name = top;
position = "{580, 1475}";
},
{
name = topleft;
position = "{20, 1475}";
}
);
layerId = "584F9D0D-8480-40C6-ABEA-8DD6EE64252D";
paths = (
{
closed = 1;
nodes = (
"1044 1175 LINE",
"1044 1475 LINE",
"87 1475 LINE",
"87 0 LINE",
"1044 0 LINE",
"1044 300 LINE",
"493 300 LINE",
"493 590 LINE",
"933 590 LINE",
"933 890 LINE",
"493 890 LINE",
"493 1175 LINE"
);
}
);
width = 1159;
},
{
anchors = (
{
name = bottom;
position = "{459, 0}";
},
{
name = ogonek;
position = "{839, 10}";
},
{
name = top;
position = "{753, 1475}";
},
{
name = topleft;
position = "{213, 1475}";
}
);
layerId = "3FDD6C00-F7FD-4E85-84B0-0136AF7D7529";
paths = (
{
closed = 1;
nodes = (
"1169 1175 LINE",
"1233 1475 LINE",
"276 1475 LINE",
"-38 0 LINE",
"919 0 LINE",
"983 300 LINE",
"432 300 LINE",
"494 590 LINE",
"934 590 LINE",
"997 890 LINE",
"557 890 LINE",
"618 1175 LINE"
);
}
);
width = 1159;
},
{
anchors = (
{
name = bottom;
position = "{397, 0}";
},
{
name = ogonek;
position = "{568, 10}";
},
{
name = top;
position = "{711, 1475}";
},
{
name = topleft;
position = "{223, 1475}";
}
);
layerId = "2503C51C-5A6C-4B2C-A968-78FEA18C2585";
paths = (
{
closed = 1;
nodes = (
"1029 1447 LINE",
"1035 1475 LINE",
"320 1475 LINE",
"6 0 LINE",
"721 0 LINE",
"727 28 LINE",
"43 28 LINE",
"192 726 LINE",
"765 726 LINE",
"771 754 LINE",
"198 754 LINE",
"345 1447 LINE"
);
}
);
width = 1038;
}
);
leftKerningGroup = H;
leftMetricsKey = H;
note = E;
rightKerningGroup = E;
unicode = 0045;
},
{
glyphname = F;
lastChange = "2020-04-10 14:49:52 +0000";
layers = (
{
anchors = (
{
name = bottom;
position = "{563, 0}";
},
{
name = top;
position = "{563, 1475}";
}
);
layerId = "A1A0948C-E637-4A65-8CCC-05505AD98C44";
paths = (
{
closed = 1;
nodes = (
"856 1447 LINE",
"856 1475 LINE",
"161 1475 LINE",
"161 0 LINE",
"191 0 LINE",
"191 720 LINE",
"767 720 LINE",
"767 748 LINE",
"191 748 LINE",
"191 1447 LINE"
);
}
);
width = 1045;
},
{
anchors = (
{
name = bottom;
position = "{587, 0}";
},
{
name = top;
position = "{587, 1475}";
}
);
layerId = "584F9D0D-8480-40C6-ABEA-8DD6EE64252D";
paths = (
{
closed = 1;
nodes = (
"1073 1175 LINE",
"1073 1475 LINE",
"97 1475 LINE",
"97 0 LINE",
"499 0 LINE",
"499 578 LINE",
"984 578 LINE",
"984 879 LINE",
"499 879 LINE",
"499 1175 LINE"
);
}
);
width = 1174;
},
{
anchors = (
{
name = bottom;
position = "{474.132, 0}";
},
{
name = top;
position = "{787.653, 1475}";
}
);
layerId = "3FDD6C00-F7FD-4E85-84B0-0136AF7D7529";
paths = (
{
closed = 1;
nodes = (
"1206 1175 LINE",
"1270 1475 LINE",
"294 1475 LINE",
"-20 0 LINE",
"382 0 LINE",
"505 578 LINE",
"990 578 LINE",
"1054 879 LINE",
"569 879 LINE",
"632 1175 LINE"
);
}
);
width = 1174;
},
{
anchors = (
{
name = bottom;
position = "{410.132, 0}";
},
{
name = top;
position = "{723.653, 1475}";
}
);
layerId = "2503C51C-5A6C-4B2C-A968-78FEA18C2585";
paths = (
{
closed = 1;
nodes = (
"1036 1447 LINE",
"1042 1475 LINE",
"369 1475 LINE",
"56 0 LINE",
"86 0 LINE",
"239 720 LINE",
"796 720 LINE",
"801 748 LINE",
"244 748 LINE",
"393 1447 LINE"
);
}
);
width = 1045;
}
);
leftKerningGroup = H;
note = F;
rightKerningGroup = F;
unicode = 0046;
},
{
glyphname = G;
lastChange = "2020-04-10 15:38:51 +0000";
layers = (
{
anchors = (
{
name = bottom;
position = "{594, 0}";
},
{
name = top;
position = "{594, 1475}";
}
);
layerId = "A1A0948C-E637-4A65-8CCC-05505AD98C44";
paths = (
{
closed = 1;
nodes = (
"884 -15 OFFCURVE",
"1006 138 OFFCURVE",
"1030 199 CURVE",
"1030 622 LINE",
"593 622 LINE",
"593 593 LINE",
"999 593 LINE",
"999 202 LINE",
"977 146 OFFCURVE",
"853 13 OFFCURVE",
"609 13 CURVE SMOOTH",
"322 13 OFFCURVE",
"104 262 OFFCURVE",
"104 732 CURVE SMOOTH",
"104 1202 OFFCURVE",
"322 1460 OFFCURVE",
"609 1460 CURVE SMOOTH",
"914 1460 OFFCURVE",
"1002 1202 OFFCURVE",
"1002 1005 CURVE",
"1032 1005 LINE",
"1032 1220 OFFCURVE",
"939 1489 OFFCURVE",
"609 1489 CURVE SMOOTH",
"304 1489 OFFCURVE",
"73 1232 OFFCURVE",
"73 732 CURVE SMOOTH",
"73 232 OFFCURVE",
"304 -15 OFFCURVE",
"609 -15 CURVE SMOOTH"
);
}
);
width = 1212;
},
{
anchors = (
{
name = bottom;
position = "{720, 0}";
},
{
name = top;
position = "{720, 1475}";
}
);
layerId = "584F9D0D-8480-40C6-ABEA-8DD6EE64252D";
paths = (
{
closed = 1;
nodes = (
"1098 -15 OFFCURVE",
"1303 253 OFFCURVE",
"1331 467 CURVE",
"1331 745 LINE",
"717 745 LINE",
"717 464 LINE",
"944 464 LINE",
"944 459 LINE",
"934 362 OFFCURVE",
"863 285 OFFCURVE",
"726 285 CURVE SMOOTH",
"575 285 OFFCURVE",
"455 395 OFFCURVE",
"455 732 CURVE SMOOTH",
"455 1069 OFFCURVE",
"578 1188 OFFCURVE",
"727 1188 CURVE SMOOTH",
"864 1188 OFFCURVE",
"932 1064 OFFCURVE",
"935 913 CURVE",
"1331 913 LINE",
"1331 1196 OFFCURVE",
"1146 1489 OFFCURVE",
"727 1489 CURVE SMOOTH",
"305 1489 OFFCURVE",
"50 1199 OFFCURVE",
"50 732 CURVE SMOOTH",
"50 265 OFFCURVE",
"301 -15 OFFCURVE",
"726 -15 CURVE SMOOTH"
);
}
);
width = 1453;
},
{
anchors = (
{
name = bottom;
position = "{597, 0}";
},
{
name = top;
position = "{911, 1475}";
}
);
layerId = "3FDD6C00-F7FD-4E85-84B0-0136AF7D7529";
paths = (
{
closed = 1;
nodes = (
"1018 -15 OFFCURVE",
"1250 253 OFFCURVE",
"1314 467 CURVE",
"1373 745 LINE",
"759 745 LINE",
"699 464 LINE",
"926 464 LINE",
"925 459 LINE",
"894 362 OFFCURVE",
"807 285 OFFCURVE",
"670 285 CURVE SMOOTH",
"552 285 OFFCURVE",
"486 358 OFFCURVE",
"486 558 CURVE SMOOTH",
"486 843 OFFCURVE",
"609 1188 OFFCURVE",
"853 1188 CURVE SMOOTH",
"990 1188 OFFCURVE",
"1012 1062 OFFCURVE",
"1012 913 CURVE",
"1408 913 LINE",
"1408 1206 OFFCURVE",
"1318 1489 OFFCURVE",
"899 1489 CURVE SMOOTH",
"394 1489 OFFCURVE",
"80 1079 OFFCURVE",
"80 547 CURVE SMOOTH",
"80 204 OFFCURVE",
"251 -15 OFFCURVE",
"626 -15 CURVE SMOOTH"
);
}
);
width = 1462;
},
{
anchors = (
{
name = bottom;
position = "{482, 0}";
},
{
name = top;
position = "{796, 1475}";
}
);
layerId = "2503C51C-5A6C-4B2C-A968-78FEA18C2585";
paths = (
{
closed = 1;
nodes = (
"745 -15 OFFCURVE",
"863 138 OFFCURVE",
"900 199 CURVE",
"990 622 LINE",
"583 622 LINE",
"576 593 LINE",
"951 593 LINE",
"868 202 LINE",
"834 146 OFFCURVE",
"707 13 OFFCURVE",
"463 13 CURVE SMOOTH",
"166 13 OFFCURVE",
"123 250 OFFCURVE",
"123 424 CURVE SMOOTH",
"123 1044 OFFCURVE",
"413 1460 OFFCURVE",
"730 1460 CURVE SMOOTH",
"1021 1460 OFFCURVE",
"1041 1162 OFFCURVE",
"1041 1005 CURVE",
"1073 1005 LINE",
"1073 1180 OFFCURVE",
"1049 1489 OFFCURVE",
"733 1489 CURVE SMOOTH",
"385 1489 OFFCURVE",
"88 1054 OFFCURVE",
"88 422 CURVE SMOOTH",
"88 209 OFFCURVE",
"155 -15 OFFCURVE",
"463 -15 CURVE SMOOTH"
);
}
);
width = 1175;
}
);
leftKerningGroup = O;
leftMetricsKey = O;
note = G;
rightKerningGroup = H;
rightMetricsKey = H;
unicode = 0047;
},
{
glyphname = G.ss01;
lastChange = "2020-04-10 15:38:51 +0000";
layers = (
{
anchors = (
{
name = bottom;
position = "{586, 0}";
},
{
name = top;
position = "{586, 1475}";
}
);
layerId = "A1A0948C-E637-4A65-8CCC-05505AD98C44";
paths = (
{
closed = 1;
nodes = (
"801 -15 OFFCURVE",
"932 122 OFFCURVE",
"957 189 CURVE",
"957 0 LINE",
"989 0 LINE",
"989 653 LINE",
"558 653 LINE",
"558 625 LINE",
"958 625 LINE",
"958 254 LINE",
"926 170 OFFCURVE",
"824 13 OFFCURVE",
"571 13 CURVE SMOOTH",
"279 13 OFFCURVE",
"104 308 OFFCURVE",
"104 738 CURVE SMOOTH",
"104 1168 OFFCURVE",
"279 1460 OFFCURVE",
"577 1460 CURVE SMOOTH",
"873 1460 OFFCURVE",
"962 1201 OFFCURVE",
"962 1005 CURVE",
"992 1005 LINE",
"992 1209 OFFCURVE",
"899 1489 OFFCURVE",
"577 1489 CURVE SMOOTH",
"263 1489 OFFCURVE",
"73 1198 OFFCURVE",
"73 738 CURVE SMOOTH",
"73 278 OFFCURVE",
"263 -15 OFFCURVE",
"572 -15 CURVE SMOOTH"
);
}
);
width = 1172;
},
{
anchors = (
{
name = bottom;
position = "{700, 0}";
},
{
name = top;
position = "{700, 1475}";
}
);
layerId = "584F9D0D-8480-40C6-ABEA-8DD6EE64252D";
paths = (
{
closed = 1;
nodes = (
"857 -15 OFFCURVE",
"1013 73 OFFCURVE",
"1032 143 CURVE",
"1053 0 LINE",
"1271 0 LINE",
"1271 769 LINE",
"698 769 LINE",
"698 480 LINE",
"904 480 LINE",
"904 404 LINE",
"887 347 OFFCURVE",
"823 285 OFFCURVE",
"710 285 CURVE SMOOTH",
"587 285 OFFCURVE",
"455 349 OFFCURVE",
"455 732 CURVE SMOOTH",
"455 1093 OFFCURVE",
"582 1188 OFFCURVE",
"705 1188 CURVE SMOOTH",
"824 1188 OFFCURVE",
"885 1085 OFFCURVE",
"885 983 CURVE",
"1277 983 LINE",
"1277 1174 OFFCURVE",
"1124 1489 OFFCURVE",
"705 1489 CURVE SMOOTH",
"345 1489 OFFCURVE",
"50 1232 OFFCURVE",
"50 732 CURVE SMOOTH",
"50 232 OFFCURVE",
"335 -15 OFFCURVE",
"690 -15 CURVE SMOOTH"
);
}
);
width = 1399;
},
{
anchors = (
{
name = bottom;
position = "{614, 0}";
},
{
name = top;
position = "{928, 1475}";
}
);
layerId = "3FDD6C00-F7FD-4E85-84B0-0136AF7D7529";
paths = (
{
closed = 1;
nodes = (
"748 -15 OFFCURVE",
"913 73 OFFCURVE",
"947 143 CURVE",
"937 0 LINE",
"1155 0 LINE",
"1319 769 LINE",
"746 769 LINE",
"684 480 LINE",
"890 480 LINE",
"874 404 LINE",
"845 347 OFFCURVE",
"768 285 OFFCURVE",
"655 285 CURVE SMOOTH",
"556 285 OFFCURVE",
"482 320 OFFCURVE",
"482 525 CURVE SMOOTH",
"482 806 OFFCURVE",
"567 1188 OFFCURVE",
"842 1188 CURVE SMOOTH",
"953 1188 OFFCURVE",
"978 1062 OFFCURVE",
"978 983 CURVE",
"1370 983 LINE",
"1370 1174 OFFCURVE",
"1305 1489 OFFCURVE",
"886 1489 CURVE SMOOTH",
"384 1489 OFFCURVE",
"77 1051 OFFCURVE",
"77 532 CURVE SMOOTH",
"77 166 OFFCURVE",
"279 -15 OFFCURVE",
"581 -15 CURVE SMOOTH"
);
}
);
width = 1408;
},
{
anchors = (
{
name = bottom;
position = "{486, 0}";
},
{
name = top;
position = "{800, 1475}";
}
);
layerId = "2503C51C-5A6C-4B2C-A968-78FEA18C2585";
paths = (
{
closed = 1;
nodes = (
"688 -15 OFFCURVE",
"841 122 OFFCURVE",
"881 189 CURVE",
"840 0 LINE",
"872 0 LINE",
"1011 653 LINE",
"580 653 LINE",
"574 625 LINE",
"974 625 LINE",
"895 254 LINE",
"845 170 OFFCURVE",
"710 13 OFFCURVE",
"457 13 CURVE SMOOTH",
"230 13 OFFCURVE",
"128 200 OFFCURVE",
"128 503 CURVE SMOOTH",
"128 965 OFFCURVE",
"358 1460 OFFCURVE",
"771 1460 CURVE SMOOTH",
"1054 1460 OFFCURVE",
"1059 1211 OFFCURVE",
"1059 1005 CURVE",
"1089 1005 LINE",
"1089 1219 OFFCURVE",
"1084 1489 OFFCURVE",
"772 1489 CURVE SMOOTH",
"338 1489 OFFCURVE",
"96 985 OFFCURVE",
"96 499 CURVE SMOOTH",
"96 174 OFFCURVE",
"214 -15 OFFCURVE",
"459 -15 CURVE SMOOTH"
);
}
);
width = 1191;
}
);
leftKerningGroup = O;
leftMetricsKey = O;
rightKerningGroup = H;
rightMetricsKey = H;
},
{
glyphname = H;
lastChange = "2020-04-10 14:59:02 +0000";
layers = (
{
anchors = (
{
name = bottom;
position = "{504, 0}";
},
{
name = center;
position = "{504, 738}";
},
{
name = top;
position = "{504, 1475}";
},
{
name = topleft;
position = "{-20, 1475}";
}
);
layerId = "A1A0948C-E637-4A65-8CCC-05505AD98C44";
paths = (
{
closed = 1;
nodes = (
"848 1475 LINE",
"848 748 LINE",
"153 748 LINE",
"153 1475 LINE",
"123 1475 LINE",
"123 0 LINE",
"153 0 LINE",
"153 719 LINE",
"848 719 LINE",
"848 0 LINE",
"878 0 LINE",
"878 1475 LINE"
);
}
);
width = 1058;
},
{
anchors = (
{
name = bottom;
position = "{689, 0}";
},
{
name = center;
position = "{689, 738}";
},
{
name = top;
position = "{689, 1475}";
},
{
name = topleft;
position = "{20, 1475}";
}
);
layerId = "584F9D0D-8480-40C6-ABEA-8DD6EE64252D";
paths = (
{
closed = 1;
nodes = (
"852 1475 LINE",
"852 884 LINE",
"491 884 LINE",
"491 1475 LINE",
"87 1475 LINE",
"87 0 LINE",
"491 0 LINE",
"491 583 LINE",
"852 583 LINE",
"852 0 LINE",
"1256 0 LINE",
"1256 1475 LINE"
);
}
);
width = 1378;
},
{
anchors = (
{
name = bottom;
position = "{567.132, 0}";
},
{
name = center;
position = "{723.999, 738}";
},
{
name = top;
position = "{880.653, 1475}";
},
{
name = topleft;
position = "{220.653, 1475}";
}
);
layerId = "3FDD6C00-F7FD-4E85-84B0-0136AF7D7529";
paths = (
{
closed = 1;
nodes = (
"1041 1475 LINE",
"915 884 LINE",
"554 884 LINE",
"680 1475 LINE",
"276 1475 LINE",
"-38 0 LINE",
"366 0 LINE",
"490 583 LINE",
"851 583 LINE",
"727 0 LINE",
"1131 0 LINE",
"1445 1475 LINE"
);
}
);
width = 1378;
},
{
anchors = (
{
name = bottom;
position = "{391, 0}";
},
{
name = center;
position = "{548, 738}";
},
{
name = top;
position = "{705, 1475}";
},
{
name = topleft;
position = "{191, 1475}";
}
);
layerId = "2503C51C-5A6C-4B2C-A968-78FEA18C2585";
paths = (
{
closed = 1;
nodes = (
"1024 1475 LINE",
"869 748 LINE",
"196 748 LINE",
"351 1475 LINE",
"320 1475 LINE",
"7 0 LINE",
"38 0 LINE",
"191 719 LINE",
"864 719 LINE",
"711 0 LINE",
"742 0 LINE",
"1055 1475 LINE"
);
}
);
width = 1058;
}
);
leftKerningGroup = H;
note = H;
rightKerningGroup = H;
unicode = 0048;
},
{
glyphname = Hbar;
lastChange = "2020-01-24 19:39:54 +0000";
layers = (
{
components = (
{
name = H;
}
);
layerId = "A1A0948C-E637-4A65-8CCC-05505AD98C44";
paths = (
{
closed = 1;
nodes = (
"931 1143 LINE",
"931 1169 LINE",
"29 1169 LINE",
"29 1143 LINE"
);
}
);
width = 1088;
},
{
components = (
{
name = H;
}
);
layerId = "584F9D0D-8480-40C6-ABEA-8DD6EE64252D";
paths = (
{
closed = 1;
nodes = (
"1332 1040 LINE",
"1332 1285 LINE",
"11 1285 LINE",
"11 1040 LINE"
);
}
);
width = 1378;
},
{
components = (
{
name = H;
}
);
layerId = "3FDD6C00-F7FD-4E85-84B0-0136AF7D7529";
paths = (
{
closed = 1;
nodes = (
"1427 1040 LINE",
"1479 1285 LINE",
"158 1285 LINE",
"106 1040 LINE"
);
}
);
width = 1378;
},
{
components = (
{
name = H;
}
);
layerId = "2503C51C-5A6C-4B2C-A968-78FEA18C2585";
paths = (
{
closed = 1;
nodes = (
"1066 1143 LINE",
"1072 1169 LINE",
"170 1169 LINE",
"164 1143 LINE"
);
}
);
width = 1088;
}
);
leftKerningGroup = H;
rightKerningGroup = H;
unicode = 0126;
},
{
glyphname = I;
lastChange = "2020-04-10 14:59:21 +0000";
layers = (
{
anchors = (
{
name = bottom;
position = "{181, 0}";
},
{
name = ogonek;
position = "{198, 0}";
},
{
name = top;
position = "{182, 1475}";
},
{
name = topleft;
position = "{20, 1475}";
}
);
layerId = "A1A0948C-E637-4A65-8CCC-05505AD98C44";
paths = (
{
closed = 1;
nodes = (
"197 0 LINE",
"197 1475 LINE",
"167 1475 LINE",
"167 0 LINE"
);
}
);
width = 446;
},
{
anchors = (
{
name = bottom;
position = "{332, 0}";
},
{
name = ogonek;
position = "{530, 0}";
},
{
name = top;
position = "{332, 1475}";
},
{
name = topleft;
position = "{20, 1475}";
}
);
layerId = "584F9D0D-8480-40C6-ABEA-8DD6EE64252D";
paths = (
{
closed = 1;
nodes = (
"530 0 LINE",
"530 1475 LINE",
"132 1475 LINE",
"132 0 LINE"
);
}
);
width = 663;
},
{
anchors = (
{
name = bottom;
position = "{215, 0}";
},
{
name = ogonek;
position = "{417, 0}";
},
{
name = top;
position = "{529, 1475}";
},
{
name = topleft;
position = "{220.653, 1475}";
}
);
layerId = "3FDD6C00-F7FD-4E85-84B0-0136AF7D7529";
paths = (
{
closed = 1;
nodes = (
"417 0 LINE",
"729 1475 LINE",
"328 1475 LINE",
"15 0 LINE"
);
}
);
width = 666;
},
{
anchors = (
{
name = bottom;
position = "{68, 0}";
},
{
name = ogonek;
position = "{84, 0}";
},
{
name = top;
position = "{383, 1475}";
},
{
name = topleft;
position = "{220.653, 1475}";
}
);
layerId = "2503C51C-5A6C-4B2C-A968-78FEA18C2585";
paths = (
{
closed = 1;
nodes = (
"84 0 LINE",
"397 1475 LINE",
"366 1475 LINE",
"53 0 LINE"
);
}
);
width = 449;
}
);
leftKerningGroup = H;
note = I;
rightKerningGroup = H;
unicode = 0049;
},
{
glyphname = J;
lastChange = "2020-04-10 15:01:11 +0000";
layers = (
{
anchors = (
{
name = bottom;
position = "{450, 0}";
},
{
name = top;
position = "{800, 1425}";
}
);
layerId = "A1A0948C-E637-4A65-8CCC-05505AD98C44";
paths = (
{
closed = 1;
nodes = (
"696 -15 OFFCURVE",
"815 171 OFFCURVE",
"815 463 CURVE SMOOTH",
"815 1475 LINE",
"785 1475 LINE",
"785 463 LINE SMOOTH",
"785 186 OFFCURVE",
"673 13 OFFCURVE",
"447 13 CURVE SMOOTH",
"217 13 OFFCURVE",
"111 189 OFFCURVE",
"111 452 CURVE SMOOTH",
"111 466 OFFCURVE",
"111 480 OFFCURVE",
"111 494 CURVE",
"82 494 LINE",
"82 478 OFFCURVE",
"82 462 OFFCURVE",
"82 446 CURVE SMOOTH",
"82 166 OFFCURVE",
"201 -15 OFFCURVE",
"447 -15 CURVE SMOOTH"
);
}
);
width = 1067;
},
{
anchors = (
{
name = bottom;
position = "{581, 0}";
},
{
name = top;
position = "{913, 1434}";
}
);
layerId = "584F9D0D-8480-40C6-ABEA-8DD6EE64252D";
paths = (
{
closed = 1;
nodes = (
"1012 -15 OFFCURVE",
"1118 219 OFFCURVE",
"1118 493 CURVE SMOOTH",
"1118 1475 LINE",
"715 1475 LINE",
"715 551 LINE SMOOTH",
"715 418 OFFCURVE",
"710 285 OFFCURVE",
"585 285 CURVE SMOOTH",
"462 285 OFFCURVE",
"447 418 OFFCURVE",
"447 527 CURVE SMOOTH",
"447 540 OFFCURVE",
"447 557 OFFCURVE",
"447 567 CURVE",
"46 567 LINE",
"46 542 OFFCURVE",
"46 517 OFFCURVE",
"46 492 CURVE SMOOTH",
"46 185 OFFCURVE",
"185 -15 OFFCURVE",
"585 -15 CURVE SMOOTH"
);
}
);
width = 1262;
},
{
anchors = (
{
name = bottom;
position = "{511.132, 0}";
},
{
name = top;
position = "{1103, 1434}";
}
);
layerId = "3FDD6C00-F7FD-4E85-84B0-0136AF7D7529";
paths = (
{
closed = 1;
nodes = (
"901 -15 OFFCURVE",
"1047 219 OFFCURVE",
"1105 493 CURVE SMOOTH",
"1313 1475 LINE",
"910 1475 LINE",
"714 551 LINE SMOOTH",
"686 418 OFFCURVE",
"652 285 OFFCURVE",
"529 285 CURVE SMOOTH",
"451 285 OFFCURVE",
"424 332 OFFCURVE",
"424 402 CURVE SMOOTH",
"424 464 OFFCURVE",
"440 530 OFFCURVE",
"449 567 CURVE",
"48 567 LINE",
"30 495 OFFCURVE",
"11 417 OFFCURVE",
"11 334 CURVE SMOOTH",
"11 119 OFFCURVE",
"148 -15 OFFCURVE",
"474 -15 CURVE SMOOTH"
);
}
);
width = 1262;
},
{
anchors = (
{
name = bottom;
position = "{362, 0}";
},
{
name = top;
position = "{958, 1425}";
}
);
layerId = "2503C51C-5A6C-4B2C-A968-78FEA18C2585";
paths = (
{
closed = 1;
nodes = (
"577 -15 OFFCURVE",
"727 171 OFFCURVE",
"789 463 CURVE SMOOTH",
"1004 1475 LINE",
"974 1475 LINE",
"759 463 LINE SMOOTH",
"700 186 OFFCURVE",
"552 13 OFFCURVE",
"326 13 CURVE SMOOTH",
"146 13 OFFCURVE",
"65 121 OFFCURVE",
"65 294 CURVE SMOOTH",
"65 356 OFFCURVE",
"75 417 OFFCURVE",
"92 494 CURVE",
"63 494 LINE",
"49 436 OFFCURVE",
"35 352 OFFCURVE",
"35 290 CURVE SMOOTH",
"35 101 OFFCURVE",
"131 -15 OFFCURVE",
"328 -15 CURVE SMOOTH"
);
}
);
width = 1067;
}
);
leftKerningGroup = J;
note = J;
rightKerningGroup = J;
unicode = 004A;
},
{
glyphname = K;
lastChange = "2020-04-10 15:38:51 +0000";
layers = (
{
anchors = (
{
name = bottom;
position = "{524, 0}";
},
{
name = top;
position = "{524, 1475}";
}
);
layerId = "A1A0948C-E637-4A65-8CCC-05505AD98C44";
paths = (
{
closed = 1;
nodes = (
"847 1475 LINE",
"810 1475 LINE",
"146 621 LINE",
"154 619 LINE",
"154 1475 LINE",
"123 1475 LINE",
"123 0 LINE",
"154 0 LINE",
"154 601 LINE",
"144 575 LINE",
"304 774 LINE",
"287 776 LINE",
"860 0 LINE",
"897 0 LINE",
"307 804 LINE",
"308 778 LINE"
);
}
);
width = 1019;
},
{
anchors = (
{
name = bottom;
position = "{684, 0}";
},
{
name = top;
position = "{684, 1475}";
}
);
layerId = "584F9D0D-8480-40C6-ABEA-8DD6EE64252D";
paths = (
{
closed = 1;
nodes = (
"1336 1475 LINE",
"913 1475 LINE",
"416 769 LINE",
"490 739 LINE",
"490 1475 LINE",
"87 1475 LINE",
"87 0 LINE",
"490 0 LINE",
"490 555 LINE",
"458 304 LINE",
"727 671 LINE",
"554 695 LINE",
"954 0 LINE",
"1392 0 LINE",
"772 1003 LINE",
"760 695 LINE"
);
}
);
width = 1438;
},
{
anchors = (
{
name = bottom;
position = "{604, 0}";
},
{
name = top;
position = "{918, 1475}";
}
);
layerId = "3FDD6C00-F7FD-4E85-84B0-0136AF7D7529";
paths = (
{
closed = 1;
nodes = (
"1514 1475 LINE",
"1082 1475 LINE",
"428 769 LINE",
"522 739 LINE",
"680 1475 LINE",
"276 1475 LINE",
"-36 0 LINE",
"367 0 LINE",
"484 555 LINE",
"408 304 LINE",
"749 671 LINE",
"602 695 LINE",
"827 0 LINE",
"1248 0 LINE",
"851 1003 LINE",
"786 695 LINE"
);
}
);
width = 1431;
},
{
anchors = (
{
name = bottom;
position = "{402, 0}";
},
{
name = top;
position = "{716, 1475}";
}
);
layerId = "2503C51C-5A6C-4B2C-A968-78FEA18C2585";
paths = (
{
closed = 1;
nodes = (
"1028 1475 LINE",
"991 1475 LINE",
"155 621 LINE",
"170 619 LINE",
"352 1475 LINE",
"320 1475 LINE",
"8 0 LINE",
"39 0 LINE",
"166 601 LINE",
"153 575 LINE",
"349 774 LINE",
"335 776 LINE",
"726 0 LINE",
"762 0 LINE",
"358 804 LINE",
"356 778 LINE"
);
}
);
width = 1020;
}
);
leftKerningGroup = H;
leftMetricsKey = H;
note = K;
rightKerningGroup = K;
unicode = 004B;
},
{
glyphname = L;
lastChange = "2020-04-10 15:38:51 +0000";
layers = (
{
anchors = (
{
name = bottom;
position = "{474, 0}";
},
{
name = center;
position = "{474, 738}";
},
{
name = top;
position = "{474, 1475}";
},
{
name = topright;
position = "{769, 1475}";
}
);
layerId = "A1A0948C-E637-4A65-8CCC-05505AD98C44";
paths = (
{
closed = 1;
nodes = (
"769 0 LINE",
"769 28 LINE",
"153 28 LINE",
"153 1475 LINE",
"123 1475 LINE",
"123 0 LINE"
);
}
);
width = 949;
},
{
anchors = (
{
name = bottom;
position = "{565, 0}";
},
{
name = center;
position = "{565, 738}";
},
{
name = top;
position = "{565, 1475}";
},
{
name = topright;
position = "{1010, 1475}";
}
);
layerId = "584F9D0D-8480-40C6-ABEA-8DD6EE64252D";
paths = (
{
closed = 1;
nodes = (
"1017 0 LINE",
"1017 301 LINE",
"491 301 LINE",
"491 1475 LINE",
"87 1475 LINE",
"87 0 LINE"
);
}
);
width = 1129;
},
{
anchors = (
{
name = bottom;
position = "{444, 0}";
},
{
name = center;
position = "{601, 738}";
},
{
name = top;
position = "{758, 1475}";
},
{
name = topright;
position = "{1197, 1475}";
}
);
layerId = "3FDD6C00-F7FD-4E85-84B0-0136AF7D7529";
paths = (
{
closed = 1;
nodes = (
"892 0 LINE",
"956 301 LINE",
"430 301 LINE",
"680 1475 LINE",
"276 1475 LINE",
"-38 0 LINE"
);
}
);
width = 1121;
},
{
anchors = (
{
name = bottom;
position = "{361, 0}";
},
{
name = center;
position = "{518, 738}";
},
{
name = top;
position = "{675, 1475}";
},
{
name = topright;
position = "{969, 1475}";
}
);
layerId = "2503C51C-5A6C-4B2C-A968-78FEA18C2585";
paths = (
{
closed = 1;
nodes = (
"653 0 LINE",
"660 28 LINE",
"42 28 LINE",
"350 1475 LINE",
"320 1475 LINE",
"7 0 LINE"
);
}
);
width = 948;
}
);
leftKerningGroup = H;
leftMetricsKey = H;
note = L;
rightKerningGroup = L;
unicode = 004C;
},
{
glyphname = Lslash;
lastChange = "2020-04-11 13:40:45 +0000";
layers = (
{
components = (
{
name = L;
}
);
layerId = "A1A0948C-E637-4A65-8CCC-05505AD98C44";
paths = (
{
closed = 1;
nodes = (
"401 911 LINE",
"-62 437 LINE",
"-39 417 LINE",
"424 892 LINE"
);
}
);
width = 949;
},
{
components = (
{
name = L;
transform = "{1, 0, 0, 1, 147, 0}";
}
);
layerId = "584F9D0D-8480-40C6-ABEA-8DD6EE64252D";
paths = (
{
closed = 1;
nodes = (
"874 1045 LINE",
"-22 643 LINE",
"108 365 LINE",
"1004 767 LINE"
);
}
);
width = 1276;
},
{
components = (
{
name = L;
transform = "{1, 0, 0, 1, 169, 0}";
}
);
layerId = "3FDD6C00-F7FD-4E85-84B0-0136AF7D7529";
paths = (
{
closed = 1;
nodes = (
"965 1045 LINE",
"0 643 LINE",
"83 365 LINE",
"1045 767 LINE"
);
}
);
width = 1290;
},
{
components = (
{
name = L;
}
);
layerId = "2503C51C-5A6C-4B2C-A968-78FEA18C2585";
paths = (
{
closed = 1;
nodes = (
"411 911 LINE",
"-52 437 LINE",
"-29 417 LINE",
"434 892 LINE"
);
}
);
width = 948;
}
);
leftKerningGroup = H;
rightKerningGroup = L;
rightMetricsKey = L;
unicode = 0141;
},
{
glyphname = M;
lastChange = "2020-04-10 15:38:51 +0000";
layers = (
{
anchors = (
{
name = bottom;
position = "{575, 0}";
},
{
name = top;
position = "{575, 1475}";
}
);
layerId = "A1A0948C-E637-4A65-8CCC-05505AD98C44";
paths = (
{
closed = 1;
nodes = (
"583 25 LINE",
"171 1475 LINE",
"123 1475 LINE",
"123 0 LINE",
"153 0 LINE",
"153 1426 LINE",
"556 0 LINE",
"609 0 LINE",
"1014 1426 LINE",
"1014 0 LINE",
"1044 0 LINE",
"1044 1475 LINE",
"996 1475 LINE"
);
}
);
width = 1224;
},
{
anchors = (
{
name = bottom;
position = "{958, 0}";
},
{
name = top;
position = "{958, 1475}";
}
);
layerId = "584F9D0D-8480-40C6-ABEA-8DD6EE64252D";
paths = (
{
closed = 1;
nodes = (
"952 323 LINE",
"758 1475 LINE",
"87 1475 LINE",
"87 0 LINE",
"491 0 LINE",
"491 1141 LINE",
"710 0 LINE",
"1194 0 LINE",
"1416 1138 LINE",
"1416 0 LINE",
"1819 0 LINE",
"1819 1475 LINE",
"1148 1475 LINE"
);
}
);
width = 1941;
},
{
anchors = (
{
name = bottom;
position = "{851, 0}";
},
{
name = top;
position = "{1159, 1475}";
}
);
layerId = "3FDD6C00-F7FD-4E85-84B0-0136AF7D7529";
paths = (
{
closed = 1;
nodes = (
"876 323 LINE",
"940 1475 LINE",
"276 1475 LINE",
"-38 0 LINE",
"366 0 LINE",
"613 1141 LINE",
"577 0 LINE",
"1061 0 LINE",
"1520 1138 LINE",
"1274 0 LINE",
"1677 0 LINE",
"1991 1475 LINE",
"1312 1475 LINE"
);
}
);
width = 1924;
},
{
anchors = (
{
name = bottom;
position = "{497, 0}";
},
{
name = top;
position = "{748, 1475}";
}
);
layerId = "2503C51C-5A6C-4B2C-A968-78FEA18C2585";
paths = (
{
closed = 1;
nodes = (
"461 23 LINE",
"367 1475 LINE",
"320 1475 LINE",
"6 0 LINE",
"37 0 LINE",
"339 1419 LINE",
"432 0 LINE",
"484 0 LINE",
"1182 1419 LINE",
"880 0 LINE",
"911 0 LINE",
"1225 1475 LINE",
"1176 1475 LINE"
);
}
);
width = 1227;
}
);
leftKerningGroup = M;
leftMetricsKey = H;
note = M;
rightKerningGroup = M;
rightMetricsKey = H;
unicode = 004D;
},
{
glyphname = N;
lastChange = "2020-04-10 15:04:40 +0000";
layers = (
{
anchors = (
{
name = bottom;
position = "{530, 0}";
},
{
name = top;
position = "{530, 1475}";
}
);
layerId = "A1A0948C-E637-4A65-8CCC-05505AD98C44";
paths = (
{
closed = 1;
nodes = (
"145 1456 LINE",
"140 1454 LINE",
"894 0 LINE",
"944 0 LINE",
"944 1475 LINE",
"914 1475 LINE",
"914 17 LINE",
"920 20 LINE",
"163 1475 LINE",
"115 1475 LINE",
"115 0 LINE",
"145 0 LINE"
);
}
);
width = 1155;
},
{
anchors = (
{
name = bottom;
position = "{779, 0}";
},
{
name = top;
position = "{779, 1475}";
}
);
layerId = "584F9D0D-8480-40C6-ABEA-8DD6EE64252D";
paths = (
{
closed = 1;
nodes = (
"490 1365 LINE",
"457 1349 LINE",
"744 0 LINE",
"1425 0 LINE",
"1425 1475 LINE",
"1022 1475 LINE",
"1022 105 LINE",
"1050 121 LINE",
"763 1475 LINE",
"87 1475 LINE",
"87 0 LINE",
"490 0 LINE"
);
}
);
width = 1558;
},
{
anchors = (
{
name = bottom;
position = "{666.132, 0}";
},
{
name = top;
position = "{979.653, 1475}";
}
);
layerId = "3FDD6C00-F7FD-4E85-84B0-0136AF7D7529";
paths = (
{
closed = 1;
nodes = (
"660 1365 LINE",
"627 1349 LINE",
"624 0 LINE",
"1305 0 LINE",
"1619 1475 LINE",
"1216 1475 LINE",
"925 105 LINE",
"953 121 LINE",
"957 1475 LINE",
"281 1475 LINE",
"-33 0 LINE",
"370 0 LINE"
);
}
);
width = 1558;
},
{
anchors = (
{
name = bottom;
position = "{425, 0}";
},
{
name = top;
position = "{739, 1475}";
}
);
layerId = "2503C51C-5A6C-4B2C-A968-78FEA18C2585";
paths = (
{
closed = 1;
nodes = (
"338 1456 LINE",
"336 1454 LINE",
"777 0 LINE",
"827 0 LINE",
"1141 1475 LINE",
"1111 1475 LINE",
"801 17 LINE",
"803 20 LINE",
"360 1475 LINE",
"312 1475 LINE",
"-2 0 LINE",
"28 0 LINE"
);
}
);
width = 1155;
}
);
leftKerningGroup = H;
note = N;
rightKerningGroup = H;
unicode = 004E;
},
{
glyphname = Eng;
lastChange = "2020-04-10 15:41:34 +0000";
layers = (
{
components = (
{
name = N;
transform = "{1, 0, 0, 1, 8, 0}";
}
);
layerId = "A1A0948C-E637-4A65-8CCC-05505AD98C44";
paths = (
{
closed = 1;
nodes = (
"921 -96 LINE SMOOTH",
"921 -224 OFFCURVE",
"898 -409 OFFCURVE",
"666 -409 CURVE SMOOTH",
"625 -409 OFFCURVE",
"586 -402 OFFCURVE",
"568 -396 CURVE",
"568 -424 LINE",
"584 -430 OFFCURVE",
"621 -437 OFFCURVE",
"666 -437 CURVE SMOOTH",
"916 -437 OFFCURVE",
"952 -255 OFFCURVE",
"952 -96 CURVE SMOOTH",
"952 0 LINE",
"921 31 LINE"
);
}
);
width = 1132;
},
{
components = (
{
name = N;
}
);
layerId = "584F9D0D-8480-40C6-ABEA-8DD6EE64252D";
paths = (
{
closed = 1;
nodes = (
"1027 -15 LINE SMOOTH",
"1027 -133 OFFCURVE",
"885 -149 OFFCURVE",
"768 -149 CURVE SMOOTH",
"729 -149 OFFCURVE",
"691 -142 OFFCURVE",
"673 -136 CURVE",
"673 -428 LINE",
"688 -431 OFFCURVE",
"724 -435 OFFCURVE",
"768 -435 CURVE SMOOTH",
"1332 -435 OFFCURVE",
"1425 -241 OFFCURVE",
"1425 -15 CURVE SMOOTH",
"1425 0 LINE",
"1027 44 LINE"
);
}
);
width = 1547;
},
{
components = (
{
name = N;
transform = "{1, 0, 0, 1, -5, 0}";
}
);
layerId = "3FDD6C00-F7FD-4E85-84B0-0136AF7D7529";
paths = (
{
closed = 1;
nodes = (
"900 0 LINE SMOOTH",
"868 -140 OFFCURVE",
"667 -157 OFFCURVE",
"592 -157 CURVE",
"552 -157 OFFCURVE",
"519 -155 OFFCURVE",
"506 -153 CURVE",
"467 -424 LINE",
"492 -429 OFFCURVE",
"541 -435 OFFCURVE",
"582 -435 CURVE SMOOTH",
"1065 -435 OFFCURVE",
"1236 -302 OFFCURVE",
"1293 -33 CURVE SMOOTH",
"1300 0 LINE",
"910 44 LINE"
);
}
);
width = 1547;
},
{
components = (
{
name = N;
transform = "{1, 0, 0, 1, 8, 0}";
}
);
layerId = "2503C51C-5A6C-4B2C-A968-78FEA18C2585";
paths = (
{
closed = 1;
nodes = (
"781 -96 LINE SMOOTH",
"752 -225 OFFCURVE",
"687 -409 OFFCURVE",
"462 -409 CURVE",
"422 -409 OFFCURVE",
"385 -403 OFFCURVE",
"368 -398 CURVE",
"365 -424 LINE",
"379 -430 OFFCURVE",
"413 -437 OFFCURVE",
"458 -437 CURVE",
"699 -437 OFFCURVE",
"780 -268 OFFCURVE",
"815 -98 CURVE SMOOTH",
"835 0 LINE",
"808 23 LINE"
);
}
);
width = 1152;
}
);
leftKerningGroup = H;
leftMetricsKey = H;
rightKerningGroup = H;
rightMetricsKey = H;
unicode = 014A;
},
{
glyphname = O;
lastChange = "2020-04-20 16:04:04 +0000";
layers = (
{
anchors = (
{
name = bottom;
position = "{602, 0}";
},
{
name = center;
position = "{602, 738}";
},
{
name = ogonek;
position = "{713, 10}";
},
{
name = top;
position = "{602, 1475}";
},
{
name = topleft;
position = "{26, 1475}";
},
{
name = topright;
position = "{967, 1222}";
}
);
layerId = "A1A0948C-E637-4A65-8CCC-05505AD98C44";
paths = (
{
closed = 1;
nodes = (
"922 -15 OFFCURVE",
"1131 271 OFFCURVE",
"1131 739 CURVE SMOOTH",
"1131 1208 OFFCURVE",
"920 1489 OFFCURVE",
"602 1489 CURVE SMOOTH",
"285 1489 OFFCURVE",
"73 1208 OFFCURVE",
"73 739 CURVE SMOOTH",
"73 271 OFFCURVE",
"281 -15 OFFCURVE",
"602 -15 CURVE SMOOTH"
);
},
{
closed = 1;
nodes = (
"301 13 OFFCURVE",
"104 299 OFFCURVE",
"104 739 CURVE SMOOTH",
"104 1179 OFFCURVE",
"301 1461 OFFCURVE",
"602 1461 CURVE SMOOTH",
"903 1461 OFFCURVE",
"1100 1179 OFFCURVE",
"1100 739 CURVE SMOOTH",
"1100 300 OFFCURVE",
"906 13 OFFCURVE",
"602 13 CURVE SMOOTH"
);
}
);
width = 1291;
},
{
anchors = (
{
name = bottom;
position = "{742, 0}";
},
{
name = center;
position = "{742, 738}";
},
{
name = ogonek;
position = "{897, 10}";
},
{
name = top;
position = "{742, 1475}";
},
{
name = topleft;
position = "{40, 1475}";
},
{
name = topright;
position = "{1190, 1062}";
}
);
layerId = "584F9D0D-8480-40C6-ABEA-8DD6EE64252D";
paths = (
{
closed = 1;
nodes = (
"1121 -15 OFFCURVE",
"1434 239 OFFCURVE",
"1434 739 CURVE SMOOTH",
"1434 1239 OFFCURVE",
"1129 1489 OFFCURVE",
"742 1489 CURVE SMOOTH",
"356 1489 OFFCURVE",
"50 1239 OFFCURVE",
"50 739 CURVE SMOOTH",
"50 239 OFFCURVE",
"361 -15 OFFCURVE",
"742 -15 CURVE SMOOTH"
);
},
{
closed = 1;
nodes = (
"595 286 OFFCURVE",
"455 389 OFFCURVE",
"455 739 CURVE SMOOTH",
"455 1089 OFFCURVE",
"595 1188 OFFCURVE",
"742 1188 CURVE SMOOTH",
"889 1188 OFFCURVE",
"1029 1089 OFFCURVE",
"1029 739 CURVE SMOOTH",
"1029 390 OFFCURVE",
"890 286 OFFCURVE",
"742 286 CURVE SMOOTH"
);
}
);
width = 1524;
},
{
anchors = (
{
name = bottom;
position = "{629, 0}";
},
{
name = center;
position = "{786, 738}";
},
{
name = ogonek;
position = "{795, 10}";
},
{
name = top;
position = "{943, 1475}";
},
{
name = topleft;
position = "{241, 1475}";
},
{
name = topright;
position = "{1276, 1062}";
}
);
layerId = "3FDD6C00-F7FD-4E85-84B0-0136AF7D7529";
paths = (
{
closed = 1;
nodes = (
"1166 -15 OFFCURVE",
"1494 388 OFFCURVE",
"1494 904 CURVE SMOOTH",
"1494 1287 OFFCURVE",
"1260 1489 OFFCURVE",
"919 1489 CURVE SMOOTH",
"409 1489 OFFCURVE",
"84 1095 OFFCURVE",
"84 578 CURVE SMOOTH",
"84 191 OFFCURVE",
"322 -15 OFFCURVE",
"659 -15 CURVE SMOOTH"
);
},
{
closed = 1;
nodes = (
"574 286 OFFCURVE",
"487 354 OFFCURVE",
"487 565 CURVE SMOOTH",
"487 854 OFFCURVE",
"597 1188 OFFCURVE",
"885 1188 CURVE SMOOTH",
"1004 1188 OFFCURVE",
"1091 1123 OFFCURVE",
"1091 913 CURVE SMOOTH",
"1091 626 OFFCURVE",
"978 286 OFFCURVE",
"693 286 CURVE SMOOTH"
);
}
);
width = 1524;
},
{
anchors = (
{
name = bottom;
position = "{484, 0}";
},
{
name = center;
position = "{640, 738}";
},
{
name = ogonek;
position = "{595, 10}";
},
{
name = top;
position = "{797, 1475}";
},
{
name = topleft;
position = "{221, 1475}";
},
{
name = topright;
position = "{1107, 1222}";
}
);
layerId = "2503C51C-5A6C-4B2C-A968-78FEA18C2585";
paths = (
{
closed = 1;
nodes = (
"930 -15 OFFCURVE",
"1190 493 OFFCURVE",
"1190 987 CURVE SMOOTH",
"1190 1304 OFFCURVE",
"1057 1489 OFFCURVE",
"796 1489 CURVE SMOOTH",
"353 1489 OFFCURVE",
"93 982 OFFCURVE",
"93 489 CURVE SMOOTH",
"93 173 OFFCURVE",
"225 -15 OFFCURVE",
"488 -15 CURVE SMOOTH"
);
},
{
closed = 1;
nodes = (
"244 13 OFFCURVE",
"125 199 OFFCURVE",
"125 495 CURVE SMOOTH",
"125 961 OFFCURVE",
"376 1461 OFFCURVE",
"796 1461 CURVE SMOOTH",
"1040 1461 OFFCURVE",
"1159 1278 OFFCURVE",
"1159 982 CURVE SMOOTH",
"1159 515 OFFCURVE",
"908 13 OFFCURVE",
"488 13 CURVE SMOOTH"
);
}
);
width = 1291;
}
);
leftKerningGroup = O;
note = O;
rightKerningGroup = O;
unicode = 004F;
},
{
glyphname = P;
lastChange = "2020-04-10 15:38:51 +0000";
layers = (
{
anchors = (
{
name = bottom;
position = "{523, 0}";
},
{
name = top;
position = "{523, 1475}";
}
);
layerId = "A1A0948C-E637-4A65-8CCC-05505AD98C44";
paths = (
{
closed = 1;
nodes = (
"153 574 LINE",
"446 574 LINE SMOOTH",
"779 574 OFFCURVE",
"926 780 OFFCURVE",
"926 1025 CURVE SMOOTH",
"926 1270 OFFCURVE",
"790 1475 OFFCURVE",
"446 1475 CURVE SMOOTH",
"123 1475 LINE",
"123 0 LINE",
"153 0 LINE"
);
},
{
closed = 1;
nodes = (
"153 1447 LINE",
"437 1447 LINE SMOOTH",
"772 1447 OFFCURVE",
"895 1259 OFFCURVE",
"895 1025 CURVE SMOOTH",
"895 791 OFFCURVE",
"761 602 OFFCURVE",
"437 602 CURVE SMOOTH",
"153 602 LINE"
);
}
);
width = 1035;
},
{
anchors = (
{
name = bottom;
position = "{628, 0}";
},
{
name = top;
position = "{628, 1475}";
}
);
layerId = "584F9D0D-8480-40C6-ABEA-8DD6EE64252D";
paths = (
{
closed = 1;
nodes = (
"491 444 LINE",
"652 444 LINE SMOOTH",
"987 444 OFFCURVE",
"1208 677 OFFCURVE",
"1208 967 CURVE SMOOTH",
"1208 1257 OFFCURVE",
"987 1475 OFFCURVE",
"652 1475 CURVE SMOOTH",
"87 1475 LINE",
"87 0 LINE",
"491 0 LINE"
);
},
{
closed = 1;
nodes = (
"491 1175 LINE",
"591 1175 LINE SMOOTH",
"690 1175 OFFCURVE",
"802 1117 OFFCURVE",
"802 967 CURVE SMOOTH",
"802 817 OFFCURVE",
"690 743 OFFCURVE",
"591 743 CURVE SMOOTH",
"491 743 LINE"
);
}
);
width = 1262;
},
{
anchors = (
{
name = bottom;
position = "{500, 0}";
},
{
name = top;
position = "{814, 1475}";
}
);
layerId = "3FDD6C00-F7FD-4E85-84B0-0136AF7D7529";
paths = (
{
closed = 1;
nodes = (
"461 444 LINE",
"622 444 LINE SMOOTH",
"980 444 OFFCURVE",
"1292 692 OFFCURVE",
"1292 1047 CURVE SMOOTH",
"1292 1281 OFFCURVE",
"1150 1475 OFFCURVE",
"841 1475 CURVE SMOOTH",
"276 1475 LINE",
"-38 0 LINE",
"366 0 LINE"
);
},
{
closed = 1;
nodes = (
"616 1175 LINE",
"716 1175 LINE SMOOTH",
"808 1175 OFFCURVE",
"884 1116 OFFCURVE",
"884 1010 CURVE SMOOTH",
"884 859 OFFCURVE",
"772 743 OFFCURVE",
"624 743 CURVE SMOOTH",
"524 743 LINE"
);
}
);
width = 1267;
},
{
anchors = (
{
name = bottom;
position = "{403, 0}";
},
{
name = top;
position = "{717, 1475}";
}
);
layerId = "2503C51C-5A6C-4B2C-A968-78FEA18C2585";
paths = (
{
closed = 1;
nodes = (
"158 574 LINE",
"454 574 LINE SMOOTH",
"794 574 OFFCURVE",
"1034 807 OFFCURVE",
"1034 1139 CURVE SMOOTH",
"1034 1321 OFFCURVE",
"935 1475 OFFCURVE",
"636 1475 CURVE SMOOTH",
"320 1475 LINE",
"6 0 LINE",
"36 0 LINE"
);
},
{
closed = 1;
nodes = (
"344 1447 LINE",
"628 1447 LINE SMOOTH",
"913 1447 OFFCURVE",
"1004 1312 OFFCURVE",
"1004 1145 CURVE SMOOTH",
"1004 824 OFFCURVE",
"781 602 OFFCURVE",
"448 602 CURVE SMOOTH",
"164 602 LINE"
);
}
);
width = 1035;
}
);
leftKerningGroup = H;
leftMetricsKey = H;
note = P;
rightKerningGroup = P;
unicode = 0050;
},
{
glyphname = Thorn;
lastChange = "2020-04-10 15:38:51 +0000";
layers = (
{
layerId = "A1A0948C-E637-4A65-8CCC-05505AD98C44";
paths = (
{
closed = 1;
nodes = (
"153 0 LINE",
"153 315 LINE",
"424 315 LINE SMOOTH",
"672 315 OFFCURVE",
"863 461 OFFCURVE",
"863 729 CURVE SMOOTH",
"863 992 OFFCURVE",
"677 1143 OFFCURVE",
"424 1143 CURVE SMOOTH",
"153 1143 LINE",
"153 1473 LINE",
"123 1473 LINE",
"123 0 LINE"
);
},
{
closed = 1;
nodes = (
"153 1115 LINE",
"424 1115 LINE SMOOTH",
"654 1115 OFFCURVE",
"833 975 OFFCURVE",
"833 729 CURVE SMOOTH",
"833 485 OFFCURVE",
"655 343 OFFCURVE",
"424 343 CURVE SMOOTH",
"153 343 LINE"
);
}
);
width = 1016;
},
{
layerId = "584F9D0D-8480-40C6-ABEA-8DD6EE64252D";
paths = (
{
closed = 1;
nodes = (
"490 0 LINE",
"490 305 LINE",
"657 305 LINE SMOOTH",
"954 305 OFFCURVE",
"1157 444 OFFCURVE",
"1157 728 CURVE SMOOTH",
"1157 1012 OFFCURVE",
"957 1153 OFFCURVE",
"657 1153 CURVE SMOOTH",
"490 1153 LINE",
"490 1473 LINE",
"87 1473 LINE",
"87 0 LINE"
);
},
{
closed = 1;
nodes = (
"490 852 LINE",
"615 852 LINE SMOOTH",
"699 852 OFFCURVE",
"756 810 OFFCURVE",
"756 729 CURVE SMOOTH",
"756 651 OFFCURVE",
"701 605 OFFCURVE",
"615 605 CURVE SMOOTH",
"490 605 LINE"
);
}
);
width = 1208;
},
{
layerId = "3FDD6C00-F7FD-4E85-84B0-0136AF7D7529";
paths = (
{
closed = 1;
nodes = (
"365 0 LINE",
"430 305 LINE",
"597 305 LINE SMOOTH",
"937 305 OFFCURVE",
"1194 480 OFFCURVE",
"1194 815 CURVE SMOOTH",
"1194 1041 OFFCURVE",
"1045 1153 OFFCURVE",
"778 1153 CURVE SMOOTH",
"611 1153 LINE",
"679 1473 LINE",
"276 1473 LINE",
"-38 0 LINE"
);
},
{
closed = 1;
nodes = (
"547 852 LINE",
"672 852 LINE SMOOTH",
"748 852 OFFCURVE",
"788 818 OFFCURVE",
"788 752 CURVE SMOOTH",
"788 659 OFFCURVE",
"713 605 OFFCURVE",
"619 605 CURVE SMOOTH",
"494 605 LINE"
);
}
);
width = 1206;
},
{
layerId = "2503C51C-5A6C-4B2C-A968-78FEA18C2585";
paths = (
{
closed = 1;
nodes = (
"36 0 LINE",
"103 315 LINE",
"377 315 LINE SMOOTH",
"672 315 OFFCURVE",
"903 517 OFFCURVE",
"903 818 CURVE SMOOTH",
"903 1022 OFFCURVE",
"778 1143 OFFCURVE",
"543 1143 CURVE SMOOTH",
"279 1143 LINE",
"350 1473 LINE",
"320 1473 LINE",
"6 0 LINE"
);
},
{
closed = 1;
nodes = (
"273 1115 LINE",
"544 1115 LINE SMOOTH",
"755 1115 OFFCURVE",
"874 1005 OFFCURVE",
"874 820 CURVE SMOOTH",
"874 542 OFFCURVE",
"657 343 OFFCURVE",
"380 343 CURVE SMOOTH",
"109 343 LINE"
);
}
);
width = 999;
}
);
leftKerningGroup = H;
leftMetricsKey = H;
note = Thorn;
rightKerningGroup = D;
rightMetricsKey = D;
unicode = 00DE;
},
{
glyphname = Q;
lastChange = "2020-01-24 14:22:42 +0000";
layers = (
{
anchors = (
{
name = bottom;
position = "{547, 0}";
},
{
name = top;
position = "{547, 1475}";
}
);
components = (
{
name = O;
}
);
layerId = "A1A0948C-E637-4A65-8CCC-05505AD98C44";
paths = (
{
closed = 1;
nodes = (
"551 -222 OFFCURVE",
"804 -297 OFFCURVE",
"871 -313 CURVE",
"887 -286 LINE",
"828 -273 OFFCURVE",
"585 -197 OFFCURVE",
"585 0 CURVE",
"551 0 LINE"
);
}
);
width = 1191;
},
{
anchors = (
{
name = bottom;
position = "{706, 0}";
},
{
name = top;
position = "{706, 1475}";
}
);
components = (
{
name = O;
}
);
layerId = "584F9D0D-8480-40C6-ABEA-8DD6EE64252D";
paths = (
{
closed = 1;
nodes = (
"543 -343 OFFCURVE",
"975 -378 OFFCURVE",
"1021 -378 CURVE",
"1133 -111 LINE",
"1093 -107 OFFCURVE",
"883 -85 OFFCURVE",
"883 22 CURVE",
"543 22 LINE"
);
}
);
width = 1444;
},
{
anchors = (
{
name = bottom;
position = "{599, 0}";
},
{
name = top;
position = "{913, 1475}";
}
);
components = (
{
name = O;
}
);
layerId = "3FDD6C00-F7FD-4E85-84B0-0136AF7D7529";
paths = (
{
closed = 1;
nodes = (
"413 -360 OFFCURVE",
"757 -378 OFFCURVE",
"810 -378 CURVE",
"970 -111 LINE",
"931 -107 OFFCURVE",
"754 -84 OFFCURVE",
"754 22 CURVE",
"413 22 LINE"
);
}
);
width = 1444;
},
{
anchors = (
{
name = bottom;
position = "{443, 0}";
},
{
name = top;
position = "{757, 1475}";
}
);
components = (
{
name = O;
}
);
layerId = "2503C51C-5A6C-4B2C-A968-78FEA18C2585";
paths = (
{
closed = 1;
nodes = (
"416 -235 OFFCURVE",
"612 -298 OFFCURVE",
"672 -313 CURVE",
"690 -285 LINE",
"626 -272 OFFCURVE",
"451 -209 OFFCURVE",
"451 -2 CURVE",
"416 2 LINE"
);
}
);
width = 1191;
}
);
leftKerningGroup = O;
note = Q;
rightKerningGroup = O;
unicode = 0051;
},
{
glyphname = R;
lastChange = "2020-04-11 13:27:10 +0000";
layers = (
{
anchors = (
{
name = bottom;
position = "{535, 0}";
},
{
name = top;
position = "{535, 1475}";
}
);
layerId = "A1A0948C-E637-4A65-8CCC-05505AD98C44";
paths = (
{
closed = 1;
nodes = (
"153 0 LINE",
"153 700 LINE",
"560 700 LINE SMOOTH",
"729 700 OFFCURVE",
"844 636 OFFCURVE",
"844 476 CURVE SMOOTH",
"844 354 OFFCURVE",
"844 213 OFFCURVE",
"844 91 CURVE SMOOTH",
"844 40 OFFCURVE",
"855 7 OFFCURVE",
"859 0 CURVE",
"891 0 LINE",
"887 7 OFFCURVE",
"875 41 OFFCURVE",
"875 91 CURVE SMOOTH",
"875 216 OFFCURVE",
"875 358 OFFCURVE",
"875 483 CURVE SMOOTH",
"875 646 OFFCURVE",
"750 707 OFFCURVE",
"656 716 CURVE",
"750 729 OFFCURVE",
"918 862 OFFCURVE",
"918 1106 CURVE SMOOTH",
"918 1367 OFFCURVE",
"782 1475 OFFCURVE",
"550 1475 CURVE SMOOTH",
"123 1475 LINE",
"123 0 LINE"
);
},
{
closed = 1;
nodes = (
"153 1447 LINE",
"543 1447 LINE SMOOTH",
"768 1447 OFFCURVE",
"887 1347 OFFCURVE",
"887 1106 CURVE SMOOTH",
"887 872 OFFCURVE",
"734 728 OFFCURVE",
"560 728 CURVE SMOOTH",
"153 728 LINE"
);
}
);
width = 1093;
},
{
anchors = (
{
name = bottom;
position = "{666, 0}";
},
{
name = top;
position = "{666, 1475}";
}
);
layerId = "584F9D0D-8480-40C6-ABEA-8DD6EE64252D";
paths = (
{
closed = 1;
nodes = (
"491 0 LINE",
"491 541 LINE",
"644 541 LINE SMOOTH",
"762 541 OFFCURVE",
"801 475 OFFCURVE",
"801 368 CURVE SMOOTH",
"801 295 OFFCURVE",
"801 243 OFFCURVE",
"801 170 CURVE SMOOTH",
"801 99 OFFCURVE",
"812 33 OFFCURVE",
"834 0 CURVE",
"1238 0 LINE",
"1214 29 OFFCURVE",
"1203 99 OFFCURVE",
"1203 170 CURVE SMOOTH",
"1203 255 OFFCURVE",
"1203 329 OFFCURVE",
"1203 414 CURVE SMOOTH",
"1203 616 OFFCURVE",
"1086 684 OFFCURVE",
"957 692 CURVE",
"1083 702 OFFCURVE",
"1234 829 OFFCURVE",
"1234 1053 CURVE SMOOTH",
"1234 1318 OFFCURVE",
"1077 1475 OFFCURVE",
"741 1475 CURVE SMOOTH",
"87 1475 LINE",
"87 0 LINE"
);
},
{
closed = 1;
nodes = (
"491 1176 LINE",
"646 1176 LINE SMOOTH",
"753 1176 OFFCURVE",
"819 1101 OFFCURVE",
"819 1015 CURVE SMOOTH",
"819 908 OFFCURVE",
"750 841 OFFCURVE",
"648 841 CURVE SMOOTH",
"491 841 LINE"
);
}
);
width = 1362;
},
{
anchors = (
{
name = bottom;
position = "{538, 0}";
},
{
name = top;
position = "{852, 1475}";
}
);
layerId = "3FDD6C00-F7FD-4E85-84B0-0136AF7D7529";
paths = (
{
closed = 1;
nodes = (
"366 0 LINE",
"481 541 LINE",
"634 541 LINE SMOOTH",
"726 541 OFFCURVE",
"762 501 OFFCURVE",
"762 432 CURVE SMOOTH",
"762 340 OFFCURVE",
"699 165 OFFCURVE",
"699 62 CURVE SMOOTH",
"699 36 OFFCURVE",
"702 15 OFFCURVE",
"709 0 CURVE",
"1113 0 LINE",
"1105 13 OFFCURVE",
"1101 36 OFFCURVE",
"1101 63 CURVE SMOOTH",
"1101 174 OFFCURVE",
"1176 391 OFFCURVE",
"1176 500 CURVE SMOOTH",
"1176 636 OFFCURVE",
"1087 685 OFFCURVE",
"979 692 CURVE",
"1185 708 OFFCURVE",
"1340 938 OFFCURVE",
"1340 1156 CURVE SMOOTH",
"1340 1346 OFFCURVE",
"1225 1475 OFFCURVE",
"930 1475 CURVE SMOOTH",
"276 1475 LINE",
"-38 0 LINE"
);
},
{
closed = 1;
nodes = (
"616 1176 LINE",
"771 1176 LINE SMOOTH",
"869 1176 OFFCURVE",
"911 1113 OFFCURVE",
"911 1036 CURVE SMOOTH",
"911 914 OFFCURVE",
"810 841 OFFCURVE",
"702 841 CURVE SMOOTH",
"545 841 LINE"
);
}
);
width = 1354;
},
{
anchors = (
{
name = bottom;
position = "{415, 0}";
},
{
name = top;
position = "{729, 1475}";
}
);
layerId = "2503C51C-5A6C-4B2C-A968-78FEA18C2585";
paths = (
{
closed = 1;
nodes = (
"36 0 LINE",
"185 700 LINE",
"592 700 LINE SMOOTH",
"739 700 OFFCURVE",
"835 655 OFFCURVE",
"835 535 CURVE SMOOTH",
"835 454 OFFCURVE",
"740 105 OFFCURVE",
"740 27 CURVE SMOOTH",
"740 13 OFFCURVE",
"741 3 OFFCURVE",
"742 0 CURVE",
"774 0 LINE",
"773 4 OFFCURVE",
"771 15 OFFCURVE",
"771 31 CURVE SMOOTH",
"771 115 OFFCURVE",
"868 463 OFFCURVE",
"868 541 CURVE SMOOTH",
"868 661 OFFCURVE",
"772 708 OFFCURVE",
"691 716 CURVE",
"893 740 OFFCURVE",
"1042 993 OFFCURVE",
"1042 1200 CURVE SMOOTH",
"1042 1369 OFFCURVE",
"944 1475 OFFCURVE",
"740 1475 CURVE SMOOTH",
"320 1475 LINE",
"6 0 LINE"
);
},
{
closed = 1;
nodes = (
"344 1447 LINE",
"734 1447 LINE SMOOTH",
"929 1447 OFFCURVE",
"1011 1349 OFFCURVE",
"1011 1199 CURVE SMOOTH",
"1011 956 OFFCURVE",
"833 728 OFFCURVE",
"598 728 CURVE SMOOTH",
"191 728 LINE"
);
}
);
width = 1092;
}
);
leftKerningGroup = H;
leftMetricsKey = H;
note = R;
rightKerningGroup = R;
unicode = 0052;
},
{
glyphname = R.ss01;
lastChange = "2020-04-11 13:27:10 +0000";
layers = (
{
layerId = "A1A0948C-E637-4A65-8CCC-05505AD98C44";
paths = (
{
closed = 1;
nodes = (
"123 1475 LINE",
"123 0 LINE",
"153 0 LINE",
"153 679 LINE",
"615 679 LINE",
"783 679 OFFCURVE",
"949 821 OFFCURVE",
"949 1082 CURVE SMOOTH",
"949 1343 OFFCURVE",
"792 1475 OFFCURVE",
"560 1475 CURVE SMOOTH"
);
},
{
closed = 1;
nodes = (
"153 708 LINE",
"153 1447 LINE",
"543 1447 LINE SMOOTH",
"768 1447 OFFCURVE",
"918 1327 OFFCURVE",
"918 1082 CURVE SMOOTH",
"918 837 OFFCURVE",
"757 708 OFFCURVE",
"615 708 CURVE SMOOTH"
);
},
{
closed = 1;
nodes = (
"878 0 LINE",
"912 0 LINE",
"642 696 LINE",
"610 696 LINE"
);
}
);
width = 1073;
},
{
layerId = "584F9D0D-8480-40C6-ABEA-8DD6EE64252D";
paths = (
{
closed = 1;
nodes = (
"87 1475 LINE",
"87 0 LINE",
"491 0 LINE",
"491 562 LINE",
"649 562 LINE SMOOTH",
"966 562 OFFCURVE",
"1218 663 OFFCURVE",
"1218 1043 CURVE SMOOTH",
"1218 1308 OFFCURVE",
"1077 1475 OFFCURVE",
"741 1475 CURVE SMOOTH"
);
},
{
closed = 1;
nodes = (
"491 852 LINE",
"491 1185 LINE",
"646 1185 LINE SMOOTH",
"753 1185 OFFCURVE",
"802 1113 OFFCURVE",
"802 1027 CURVE SMOOTH",
"802 920 OFFCURVE",
"752 852 OFFCURVE",
"653 852 CURVE SMOOTH"
);
},
{
closed = 1;
nodes = (
"807 0 LINE",
"1219 0 LINE",
"948 693 LINE",
"579 693 LINE"
);
}
);
width = 1332;
},
{
layerId = "3FDD6C00-F7FD-4E85-84B0-0136AF7D7529";
paths = (
{
closed = 1;
nodes = (
"276 1475 LINE",
"-38 0 LINE",
"366 0 LINE",
"486 562 LINE",
"664 562 LINE SMOOTH",
"1065 562 OFFCURVE",
"1325 755 OFFCURVE",
"1325 1145 CURVE SMOOTH",
"1325 1344 OFFCURVE",
"1199 1475 OFFCURVE",
"910 1475 CURVE SMOOTH"
);
},
{
closed = 1;
nodes = (
"547 852 LINE",
"618 1185 LINE",
"773 1185 LINE SMOOTH",
"862 1185 OFFCURVE",
"901 1135 OFFCURVE",
"901 1069 CURVE SMOOTH",
"901 957 OFFCURVE",
"825 852 OFFCURVE",
"709 852 CURVE SMOOTH"
);
},
{
closed = 1;
nodes = (
"682 0 LINE",
"1094 0 LINE",
"971 693 LINE",
"602 693 LINE"
);
}
);
width = 1325;
},
{
layerId = "2503C51C-5A6C-4B2C-A968-78FEA18C2585";
paths = (
{
closed = 1;
nodes = (
"320 1475 LINE",
"6 0 LINE",
"37 0 LINE",
"182 679 LINE",
"647 679 LINE",
"892 679 OFFCURVE",
"1068 920 OFFCURVE",
"1068 1177 CURVE SMOOTH",
"1068 1370 OFFCURVE",
"957 1475 OFFCURVE",
"750 1475 CURVE SMOOTH"
);
},
{
closed = 1;
nodes = (
"188 708 LINE",
"345 1447 LINE",
"735 1447 LINE SMOOTH",
"935 1447 OFFCURVE",
"1037 1352 OFFCURVE",
"1037 1174 CURVE SMOOTH",
"1037 943 OFFCURVE",
"875 708 OFFCURVE",
"650 708 CURVE SMOOTH"
);
},
{
closed = 1;
nodes = (
"762 0 LINE",
"794 0 LINE",
"672 696 LINE",
"642 696 LINE"
);
}
);
width = 1077;
}
);
leftKerningGroup = H;
leftMetricsKey = H;
note = R;
rightKerningGroup = R;
},
{
glyphname = S;
lastChange = "2020-04-22 00:48:27 +0000";
layers = (
{
anchors = (
{
name = bottom;
position = "{532, 0}";
},
{
name = top;
position = "{532, 1475}";
}
);
layerId = "A1A0948C-E637-4A65-8CCC-05505AD98C44";
paths = (
{
closed = 1;
nodes = (
"819 -15 OFFCURVE",
"964 120 OFFCURVE",
"964 347 CURVE SMOOTH",
"964 579 OFFCURVE",
"819 674 OFFCURVE",
"560 761 CURVE SMOOTH",
"324 840 OFFCURVE",
"149 934 OFFCURVE",
"149 1155 CURVE SMOOTH",
"149 1353 OFFCURVE",
"286 1462 OFFCURVE",
"524 1462 CURVE SMOOTH",
"775 1462 OFFCURVE",
"922 1350 OFFCURVE",
"922 1091 CURVE SMOOTH",
"922 1054 OFFCURVE",
"922 1027 OFFCURVE",
"922 990 CURVE",
"953 990 LINE",
"953 1027 OFFCURVE",
"953 1054 OFFCURVE",
"953 1091 CURVE SMOOTH",
"953 1364 OFFCURVE",
"798 1491 OFFCURVE",
"523 1491 CURVE SMOOTH",
"267 1491 OFFCURVE",
"117 1375 OFFCURVE",
"117 1155 CURVE SMOOTH",
"117 923 OFFCURVE",
"287 824 OFFCURVE",
"555 731 CURVE SMOOTH",
"787 651 OFFCURVE",
"932 565 OFFCURVE",
"932 345 CURVE SMOOTH",
"932 133 OFFCURVE",
"800 13 OFFCURVE",
"532 13 CURVE SMOOTH",
"277 13 OFFCURVE",
"136 135 OFFCURVE",
"136 405 CURVE SMOOTH",
"136 438 OFFCURVE",
"136 451 OFFCURVE",
"136 484 CURVE",
"105 484 LINE",
"105 451 OFFCURVE",
"105 438 OFFCURVE",
"105 405 CURVE SMOOTH",
"105 122 OFFCURVE",
"245 -15 OFFCURVE",
"537 -15 CURVE"
);
}
);
width = 1157;
},
{
anchors = (
{
name = bottom;
position = "{699, 0}";
},
{
name = top;
position = "{699, 1475}";
}
);
layerId = "584F9D0D-8480-40C6-ABEA-8DD6EE64252D";
paths = (
{
closed = 1;
nodes = (
"1054 -15 OFFCURVE",
"1304 127 OFFCURVE",
"1304 406 CURVE SMOOTH",
"1304 672 OFFCURVE",
"1121 775 OFFCURVE",
"837 859 CURVE SMOOTH",
"645 916 OFFCURVE",
"508 969 OFFCURVE",
"508 1065 CURVE SMOOTH",
"508 1146 OFFCURVE",
"578 1190 OFFCURVE",
"702 1190 CURVE SMOOTH",
"828 1190 OFFCURVE",
"893 1121 OFFCURVE",
"893 1005 CURVE SMOOTH",
"893 998 OFFCURVE",
"893 991 OFFCURVE",
"893 984 CURVE",
"1292 984 LINE",
"1292 1001 OFFCURVE",
"1292 1017 OFFCURVE",
"1292 1034 CURVE SMOOTH",
"1292 1325 OFFCURVE",
"1042 1491 OFFCURVE",
"697 1491 CURVE SMOOTH",
"362 1491 OFFCURVE",
"105 1337 OFFCURVE",
"105 1064 CURVE SMOOTH",
"105 798 OFFCURVE",
"319 663 OFFCURVE",
"530 597 CURVE SMOOTH",
"733 533 OFFCURVE",
"898 480 OFFCURVE",
"898 394 CURVE SMOOTH",
"898 317 OFFCURVE",
"823 285 OFFCURVE",
"701 285 CURVE SMOOTH",
"574 285 OFFCURVE",
"497 355 OFFCURVE",
"497 459 CURVE SMOOTH",
"497 474 OFFCURVE",
"497 488 OFFCURVE",
"497 503 CURVE",
"96 503 LINE",
"96 486 OFFCURVE",
"96 468 OFFCURVE",
"96 451 CURVE SMOOTH",
"96 142 OFFCURVE",
"348 -15 OFFCURVE",
"697 -15 CURVE"
);
}
);
width = 1396;
},
{
anchors = (
{
name = bottom;
position = "{591, 0}";
},
{
name = top;
position = "{905, 1475}";
}
);
layerId = "3FDD6C00-F7FD-4E85-84B0-0136AF7D7529";
paths = (
{
closed = 1;
nodes = (
"970 -15 OFFCURVE",
"1278 133 OFFCURVE",
"1278 476 CURVE SMOOTH",
"1278 684 OFFCURVE",
"1124 783 OFFCURVE",
"883 859 CURVE SMOOTH",
"718 911 OFFCURVE",
"615 960 OFFCURVE",
"615 1042 CURVE SMOOTH",
"615 1142 OFFCURVE",
"711 1190 OFFCURVE",
"828 1190 CURVE SMOOTH",
"939 1190 OFFCURVE",
"996 1142 OFFCURVE",
"996 1058 CURVE SMOOTH",
"996 1039 OFFCURVE",
"990 1003 OFFCURVE",
"985 984 CURVE",
"1384 984 LINE",
"1395 1032 OFFCURVE",
"1405 1080 OFFCURVE",
"1405 1124 CURVE SMOOTH",
"1405 1359 OFFCURVE",
"1185 1491 OFFCURVE",
"877 1491 CURVE SMOOTH",
"523 1491 OFFCURVE",
"210 1329 OFFCURVE",
"210 1002 CURVE SMOOTH",
"210 784 OFFCURVE",
"379 652 OFFCURVE",
"560 597 CURVE SMOOTH",
"741 542 OFFCURVE",
"867 486 OFFCURVE",
"867 409 CURVE SMOOTH",
"867 319 OFFCURVE",
"761 285 OFFCURVE",
"655 285 CURVE SMOOTH",
"535 285 OFFCURVE",
"474 338 OFFCURVE",
"474 419 CURVE SMOOTH",
"474 440 OFFCURVE",
"479 474 OFFCURVE",
"487 503 CURVE",
"86 503 LINE",
"74 454 OFFCURVE",
"64 398 OFFCURVE",
"64 353 CURVE SMOOTH",
"64 109 OFFCURVE",
"287 -15 OFFCURVE",
"597 -15 CURVE"
);
}
);
width = 1396;
},
{
anchors = (
{
name = bottom;
position = "{425, 0}";
},
{
name = top;
position = "{739, 1475}";
}
);
layerId = "2503C51C-5A6C-4B2C-A968-78FEA18C2585";
paths = (
{
closed = 1;
nodes = (
"721 -15 OFFCURVE",
"932 142 OFFCURVE",
"932 419 CURVE SMOOTH",
"932 586 OFFCURVE",
"819 686 OFFCURVE",
"609 761 CURVE SMOOTH",
"409 833 OFFCURVE",
"279 924 OFFCURVE",
"279 1099 CURVE SMOOTH",
"279 1334 OFFCURVE",
"467 1462 OFFCURVE",
"723 1462 CURVE SMOOTH",
"934 1462 OFFCURVE",
"1055 1383 OFFCURVE",
"1055 1203 CURVE SMOOTH",
"1055 1145 OFFCURVE",
"1041 1081 OFFCURVE",
"1021 990 CURVE",
"1052 990 LINE",
"1072 1078 OFFCURVE",
"1086 1146 OFFCURVE",
"1086 1207 CURVE SMOOTH",
"1086 1400 OFFCURVE",
"955 1491 OFFCURVE",
"723 1491 CURVE SMOOTH",
"447 1491 OFFCURVE",
"247 1354 OFFCURVE",
"247 1094 CURVE SMOOTH",
"247 910 OFFCURVE",
"378 813 OFFCURVE",
"601 731 CURVE SMOOTH",
"790 662 OFFCURVE",
"900 571 OFFCURVE",
"900 415 CURVE SMOOTH",
"900 158 OFFCURVE",
"703 13 OFFCURVE",
"423 13 CURVE SMOOTH",
"211 13 OFFCURVE",
"96 97 OFFCURVE",
"96 281 CURVE SMOOTH",
"96 343 OFFCURVE",
"105 392 OFFCURVE",
"127 484 CURVE",
"96 484 LINE",
"75 394 OFFCURVE",
"64 341 OFFCURVE",
"64 275 CURVE SMOOTH",
"64 80 OFFCURVE",
"188 -15 OFFCURVE",
"427 -15 CURVE"
);
}
);
width = 1157;
}
);
leftKerningGroup = S;
note = S;
rightKerningGroup = S;
unicode = 0053;
},
{
glyphname = Germandbls;
lastChange = "2020-04-22 00:49:46 +0000";
layers = (
{
layerId = "A1A0948C-E637-4A65-8CCC-05505AD98C44";
paths = (
{
closed = 1;
nodes = (
"153 0 LINE",
"153 1447 LINE",
"833 1447 LINE",
"410 894 LINE",
"443 863 LINE",
"471 869 OFFCURVE",
"500 872 OFFCURVE",
"529 872 CURVE SMOOTH",
"729 872 OFFCURVE",
"917 720 OFFCURVE",
"917 449 CURVE SMOOTH",
"917 139 OFFCURVE",
"734 15 OFFCURVE",
"503 15 CURVE SMOOTH",
"436 15 OFFCURVE",
"361 36 OFFCURVE",
"337 47 CURVE",
"323 17 LINE",
"352 5 OFFCURVE",
"425 -13 OFFCURVE",
"505 -13 CURVE SMOOTH",
"764 -13 OFFCURVE",
"949 129 OFFCURVE",
"949 449 CURVE SMOOTH",
"949 732 OFFCURVE",
"757 900 OFFCURVE",
"533 900 CURVE SMOOTH",
"504 900 OFFCURVE",
"475 897 OFFCURVE",
"445 891 CURVE",
"868 1445 LINE",
"868 1475 LINE",
"123 1475 LINE",
"123 0 LINE"
);
}
);
width = 1142;
},
{
layerId = "584F9D0D-8480-40C6-ABEA-8DD6EE64252D";
paths = (
{
closed = 1;
nodes = (
"491 0 LINE",
"491 1175 LINE",
"810 1175 LINE",
"510 949 LINE",
"709 663 LINE",
"715 666 OFFCURVE",
"731 673 OFFCURVE",
"781 673 CURVE SMOOTH",
"885 673 OFFCURVE",
"952 610 OFFCURVE",
"952 476 CURVE SMOOTH",
"952 352 OFFCURVE",
"884 287 OFFCURVE",
"781 287 CURVE SMOOTH",
"694 287 OFFCURVE",
"605 318 OFFCURVE",
"581 329 CURVE",
"581 17 LINE",
"610 5 OFFCURVE",
"683 -13 OFFCURVE",
"783 -13 CURVE SMOOTH",
"1097 -13 OFFCURVE",
"1348 109 OFFCURVE",
"1348 459 CURVE SMOOTH",
"1348 793 OFFCURVE",
"1102 891 OFFCURVE",
"931 891 CURVE SMOOTH",
"911 891 OFFCURVE",
"881 889 OFFCURVE",
"862 885 CURVE",
"1236 1127 LINE",
"1236 1475 LINE",
"87 1475 LINE",
"87 0 LINE"
);
}
);
width = 1440;
},
{
layerId = "2503C51C-5A6C-4B2C-A968-78FEA18C2585";
paths = (
{
closed = 1;
nodes = (
"37 0 LINE",
"344 1447 LINE",
"1022 1447 LINE",
"481 894 LINE",
"510 863 LINE",
"539 869 OFFCURVE",
"576 872 OFFCURVE",
"605 872 CURVE SMOOTH",
"786 872 OFFCURVE",
"907 754 OFFCURVE",
"907 553 CURVE SMOOTH",
"907 249 OFFCURVE",
"709 15 OFFCURVE",
"388 15 CURVE SMOOTH",
"321 15 OFFCURVE",
"252 36 OFFCURVE",
"231 47 CURVE",
"210 17 LINE",
"237 5 OFFCURVE",
"307 -13 OFFCURVE",
"387 -13 CURVE SMOOTH",
"728 -13 OFFCURVE",
"938 225 OFFCURVE",
"938 557 CURVE SMOOTH",
"938 776 OFFCURVE",
"800 900 OFFCURVE",
"606 900 CURVE SMOOTH",
"577 900 OFFCURVE",
"544 897 OFFCURVE",
"518 891 CURVE",
"1059 1445 LINE",
"1065 1475 LINE",
"320 1475 LINE",
"7 0 LINE"
);
}
);
width = 1139;
},
{
layerId = "3FDD6C00-F7FD-4E85-84B0-0136AF7D7529";
paths = (
{
closed = 1;
nodes = (
"367 0 LINE",
"616 1175 LINE",
"935 1175 LINE",
"587 959 LINE",
"726 663 LINE",
"732 666 OFFCURVE",
"750 673 OFFCURVE",
"800 673 CURVE SMOOTH",
"887 673 OFFCURVE",
"930 619 OFFCURVE",
"930 506 CURVE SMOOTH",
"930 371 OFFCURVE",
"849 287 OFFCURVE",
"718 287 CURVE SMOOTH",
"631 287 OFFCURVE",
"548 318 OFFCURVE",
"527 329 CURVE",
"460 17 LINE",
"487 5 OFFCURVE",
"586 -13 OFFCURVE",
"686 -13 CURVE SMOOTH",
"1058 -13 OFFCURVE",
"1323 139 OFFCURVE",
"1323 513 CURVE SMOOTH",
"1323 796 OFFCURVE",
"1167 891 OFFCURVE",
"1006 891 CURVE SMOOTH",
"986 891 OFFCURVE",
"956 889 OFFCURVE",
"936 885 CURVE",
"1351 1127 LINE",
"1425 1475 LINE",
"276 1475 LINE",
"-37 0 LINE"
);
}
);
width = 1437;
}
);
leftKerningGroup = H;
leftMetricsKey = H;
rightKerningGroup = S;
rightMetricsKey = S;
unicode = 1E9E;
},
{
glyphname = Schwa;
lastChange = "2020-04-10 15:38:51 +0000";
layers = (
{
anchors = (
{
name = bottom;
position = "{530, 0}";
},
{
name = top;
position = "{530, 1475}";
}
);
layerId = "A1A0948C-E637-4A65-8CCC-05505AD98C44";
paths = (
{
closed = 1;
nodes = (
"871 -11 OFFCURVE",
"1006 368 OFFCURVE",
"1006 739 CURVE SMOOTH",
"1006 1161 OFFCURVE",
"860 1484 OFFCURVE",
"530 1484 CURVE SMOOTH",
"211 1484 OFFCURVE",
"78 1169 OFFCURVE",
"78 1021 CURVE",
"109 1021 LINE",
"109 1145 OFFCURVE",
"223 1456 OFFCURVE",
"530 1456 CURVE SMOOTH",
"841 1456 OFFCURVE",
"973 1134 OFFCURVE",
"973 739 CURVE SMOOTH",
"973 394 OFFCURVE",
"857 17 OFFCURVE",
"528 17 CURVE SMOOTH",
"224 17 OFFCURVE",
"105 369 OFFCURVE",
"105 661 CURVE SMOOTH",
"105 669 OFFCURVE",
"105 686 OFFCURVE",
"105 697 CURVE",
"93 690 LINE",
"980 690 LINE",
"980 718 LINE",
"73 718 LINE",
"73 706 OFFCURVE",
"73 687 OFFCURVE",
"73 675 CURVE SMOOTH",
"73 339 OFFCURVE",
"204 -11 OFFCURVE",
"528 -11 CURVE SMOOTH"
);
}
);
width = 1166;
},
{
anchors = (
{
name = bottom;
position = "{654, 0}";
},
{
name = top;
position = "{654, 1475}";
}
);
layerId = "584F9D0D-8480-40C6-ABEA-8DD6EE64252D";
paths = (
{
closed = 1;
nodes = (
"988 -11 OFFCURVE",
"1277 208 OFFCURVE",
"1277 739 CURVE SMOOTH",
"1277 1351 OFFCURVE",
"967 1484 OFFCURVE",
"647 1484 CURVE SMOOTH",
"318 1484 OFFCURVE",
"65 1289 OFFCURVE",
"55 981 CURVE",
"442 981 LINE",
"452 1115 OFFCURVE",
"526 1192 OFFCURVE",
"647 1192 CURVE SMOOTH",
"760 1192 OFFCURVE",
"871 1114 OFFCURVE",
"871 739 CURVE SMOOTH",
"871 381 OFFCURVE",
"776 280 OFFCURVE",
"645 280 CURVE SMOOTH",
"527 280 OFFCURVE",
"438 379 OFFCURVE",
"438 661 CURVE SMOOTH",
"438 669 OFFCURVE",
"438 686 OFFCURVE",
"438 697 CURVE",
"426 609 LINE",
"878 609 LINE",
"878 888 LINE",
"53 888 LINE",
"51 876 OFFCURVE",
"50 835 OFFCURVE",
"50 755 CURVE SMOOTH",
"50 209 OFFCURVE",
"302 -11 OFFCURVE",
"645 -11 CURVE SMOOTH"
);
}
);
width = 1367;
},
{
anchors = (
{
name = bottom;
position = "{423, 0}";
},
{
name = top;
position = "{727, 1475}";
}
);
layerId = "2503C51C-5A6C-4B2C-A968-78FEA18C2585";
paths = (
{
closed = 1;
nodes = (
"836 -11 OFFCURVE",
"1072 512 OFFCURVE",
"1072 1009 CURVE SMOOTH",
"1072 1287 OFFCURVE",
"978 1484 OFFCURVE",
"724 1484 CURVE SMOOTH",
"405 1484 OFFCURVE",
"203 1189 OFFCURVE",
"179 1021 CURVE",
"210 1021 LINE",
"229 1165 OFFCURVE",
"417 1456 OFFCURVE",
"724 1456 CURVE SMOOTH",
"958 1456 OFFCURVE",
"1039 1268 OFFCURVE",
"1039 1011 CURVE SMOOTH",
"1039 528 OFFCURVE",
"816 17 OFFCURVE",
"416 17 CURVE SMOOTH",
"182 17 OFFCURVE",
"114 231 OFFCURVE",
"114 458 CURVE SMOOTH",
"114 524 OFFCURVE",
"123 640 OFFCURVE",
"138 697 CURVE",
"124 690 LINE",
"1011 690 LINE",
"1017 718 LINE",
"110 718 LINE",
"91 623 OFFCURVE",
"83 565 OFFCURVE",
"83 456 CURVE SMOOTH",
"83 206 OFFCURVE",
"164 -11 OFFCURVE",
"416 -11 CURVE SMOOTH"
);
}
);
width = 1172;
},
{
anchors = (
{
name = bottom;
position = "{541, 0}";
},
{
name = top;
position = "{855, 1475}";
}
);
layerId = "3FDD6C00-F7FD-4E85-84B0-0136AF7D7529";
paths = (
{
closed = 1;
nodes = (
"1066 -11 OFFCURVE",
"1341 424 OFFCURVE",
"1341 967 CURVE SMOOTH",
"1341 1372 OFFCURVE",
"1110 1484 OFFCURVE",
"836 1484 CURVE SMOOTH",
"507 1484 OFFCURVE",
"215 1299 OFFCURVE",
"150 981 CURVE",
"537 981 LINE",
"565 1125 OFFCURVE",
"666 1192 OFFCURVE",
"787 1192 CURVE SMOOTH",
"871 1192 OFFCURVE",
"944 1149 OFFCURVE",
"944 974 CURVE SMOOTH",
"944 706 OFFCURVE",
"829 280 OFFCURVE",
"591 280 CURVE SMOOTH",
"500 280 OFFCURVE",
"451 344 OFFCURVE",
"451 497 CURVE SMOOTH",
"451 548 OFFCURVE",
"460 648 OFFCURVE",
"473 697 CURVE",
"442 609 LINE",
"894 609 LINE",
"953 888 LINE",
"128 888 LINE",
"95 788 OFFCURVE",
"80 644 OFFCURVE",
"80 540 CURVE SMOOTH",
"80 175 OFFCURVE",
"253 -11 OFFCURVE",
"543 -11 CURVE SMOOTH"
);
}
);
width = 1365;
}
);
leftKerningGroup = O;
leftMetricsKey = O;
rightKerningGroup = O;
rightMetricsKey = O;
unicode = 018F;
},
{
glyphname = T;
lastChange = "2020-04-10 15:29:51 +0000";
layers = (
{
anchors = (
{
name = bottom;
position = "{498, 0}";
},
{
name = center;
position = "{498, 738}";
},
{
name = top;
position = "{498, 1475}";
}
);
layerId = "A1A0948C-E637-4A65-8CCC-05505AD98C44";
paths = (
{
closed = 1;
nodes = (
"925 1475 LINE",
"72 1475 LINE",
"72 1447 LINE",
"483 1447 LINE",
"483 0 LINE",
"514 0 LINE",
"514 1447 LINE",
"925 1447 LINE"
);
}
);
width = 1122;
},
{
anchors = (
{
name = bottom;
position = "{603, 0}";
},
{
name = center;
position = "{603, 738}";
},
{
name = top;
position = "{603, 1475}";
}
);
layerId = "584F9D0D-8480-40C6-ABEA-8DD6EE64252D";
paths = (
{
closed = 1;
nodes = (
"1149 1475 LINE",
"55 1475 LINE",
"55 1175 LINE",
"400 1175 LINE",
"400 0 LINE",
"803 0 LINE",
"803 1175 LINE",
"1149 1175 LINE"
);
}
);
width = 1227;
},
{
anchors = (
{
name = bottom;
position = "{491, 0}";
},
{
name = center;
position = "{638, 738}";
},
{
name = top;
position = "{795, 1475}";
}
);
layerId = "3FDD6C00-F7FD-4E85-84B0-0136AF7D7529";
paths = (
{
closed = 1;
nodes = (
"1346 1475 LINE",
"252 1475 LINE",
"188 1175 LINE",
"533 1175 LINE",
"283 0 LINE",
"686 0 LINE",
"936 1175 LINE",
"1282 1175 LINE"
);
}
);
width = 1227;
},
{
anchors = (
{
name = bottom;
position = "{380, 0}";
},
{
name = center;
position = "{537, 738}";
},
{
name = top;
position = "{694, 1475}";
}
);
layerId = "2503C51C-5A6C-4B2C-A968-78FEA18C2585";
paths = (
{
closed = 1;
nodes = (
"1122 1475 LINE",
"267 1475 LINE",
"262 1447 LINE",
"673 1447 LINE",
"366 0 LINE",
"398 0 LINE",
"704 1447 LINE",
"1115 1447 LINE"
);
}
);
width = 1122;
}
);
leftKerningGroup = T;
note = T;
rightKerningGroup = T;
unicode = 0054;
},
{
glyphname = Tbar;
lastChange = "2020-04-10 15:38:51 +0000";
layers = (
{
components = (
{
name = T;
}
);
layerId = "A1A0948C-E637-4A65-8CCC-05505AD98C44";
paths = (
{
closed = 1;
nodes = (
"828 970 LINE",
"828 997 LINE",
"165 997 LINE",
"165 970 LINE"
);
}
);
width = 1122;
},
{
components = (
{
name = T;
}
);
layerId = "584F9D0D-8480-40C6-ABEA-8DD6EE64252D";
paths = (
{
closed = 1;
nodes = (
"1045 730 LINE",
"1045 975 LINE",
"143 975 LINE",
"143 730 LINE"
);
}
);
width = 1227;
},
{
components = (
{
name = T;
}
);
layerId = "3FDD6C00-F7FD-4E85-84B0-0136AF7D7529";
paths = (
{
closed = 1;
nodes = (
"1095 730 LINE",
"1140 975 LINE",
"239 975 LINE",
"193 730 LINE"
);
}
);
width = 1227;
},
{
components = (
{
name = T;
}
);
layerId = "2503C51C-5A6C-4B2C-A968-78FEA18C2585";
paths = (
{
closed = 1;
nodes = (
"926 970 LINE",
"932 997 LINE",
"268 997 LINE",
"263 970 LINE"
);
}
);
width = 1122;
}
);
leftKerningGroup = T;
leftMetricsKey = T;
rightKerningGroup = T;
rightMetricsKey = T;
unicode = 0166;
},
{
glyphname = U;
lastChange = "2020-04-10 15:31:59 +0000";
layers = (
{
anchors = (
{
name = bottom;
position = "{543, 0}";
},
{
name = ogonek;
position = "{670, 10}";
},
{
name = top;
position = "{543, 1475}";
},
{
name = topright;
position = "{969, 1176}";
}
);
layerId = "A1A0948C-E637-4A65-8CCC-05505AD98C44";
paths = (
{
closed = 1;
nodes = (
"974 1475 LINE",
"944 1475 LINE",
"944 566 LINE SMOOTH",
"944 182 OFFCURVE",
"785 13 OFFCURVE",
"544 13 CURVE SMOOTH",
"303 13 OFFCURVE",
"144 182 OFFCURVE",
"144 566 CURVE SMOOTH",
"144 631 OFFCURVE",
"144 707 OFFCURVE",
"144 794 CURVE SMOOTH",
"144 1475 LINE",
"114 1475 LINE",
"114 781 LINE SMOOTH",
"114 695 OFFCURVE",
"114 620 OFFCURVE",
"114 555 CURVE SMOOTH",
"114 162 OFFCURVE",
"282 -15 OFFCURVE",
"544 -15 CURVE SMOOTH",
"806 -15 OFFCURVE",
"974 162 OFFCURVE",
"974 555 CURVE SMOOTH"
);
}
);
width = 1174;
},
{
anchors = (
{
name = bottom;
position = "{641, 0}";
},
{
name = ogonek;
position = "{831, 10}";
},
{
name = top;
position = "{641, 1475}";
},
{
name = topright;
position = "{1140, 1062}";
}
);
layerId = "584F9D0D-8480-40C6-ABEA-8DD6EE64252D";
paths = (
{
closed = 1;
nodes = (
"1195 1475 LINE",
"791 1475 LINE",
"791 515 LINE SMOOTH",
"791 366 OFFCURVE",
"746 285 OFFCURVE",
"640 285 CURVE SMOOTH",
"534 285 OFFCURVE",
"491 366 OFFCURVE",
"491 515 CURVE SMOOTH",
"491 544 OFFCURVE",
"491 577 OFFCURVE",
"491 615 CURVE SMOOTH",
"491 1475 LINE",
"87 1475 LINE",
"87 678 LINE SMOOTH",
"87 623 OFFCURVE",
"87 572 OFFCURVE",
"87 525 CURVE SMOOTH",
"87 158 OFFCURVE",
"310 -15 OFFCURVE",
"640 -15 CURVE SMOOTH",
"970 -15 OFFCURVE",
"1195 158 OFFCURVE",
"1195 525 CURVE SMOOTH"
);
}
);
width = 1323;
},
{
anchors = (
{
name = bottom;
position = "{503, 0}";
},
{
name = ogonek;
position = "{740, 10}";
},
{
name = top;
position = "{817, 1475}";
},
{
name = topright;
position = "{1260, 1062}";
}
);
layerId = "3FDD6C00-F7FD-4E85-84B0-0136AF7D7529";
paths = (
{
closed = 1;
nodes = (
"1383 1475 LINE",
"979 1475 LINE",
"775 515 LINE SMOOTH",
"743 366 OFFCURVE",
"685 285 OFFCURVE",
"579 285 CURVE SMOOTH",
"499 285 OFFCURVE",
"468 331 OFFCURVE",
"468 416 CURVE SMOOTH",
"468 473 OFFCURVE",
"476 515 OFFCURVE",
"497 615 CURVE SMOOTH",
"679 1475 LINE",
"275 1475 LINE",
"106 678 LINE SMOOTH",
"76 538 OFFCURVE",
"61 466 OFFCURVE",
"61 379 CURVE SMOOTH",
"61 112 OFFCURVE",
"248 -15 OFFCURVE",
"531 -15 CURVE SMOOTH",
"861 -15 OFFCURVE",
"1103 158 OFFCURVE",
"1181 525 CURVE SMOOTH"
);
}
);
width = 1311;
},
{
anchors = (
{
name = bottom;
position = "{428, 0}";
},
{
name = ogonek;
position = "{554, 10}";
},
{
name = top;
position = "{742, 1475}";
},
{
name = topright;
position = "{1099, 1176}";
}
);
layerId = "2503C51C-5A6C-4B2C-A968-78FEA18C2585";
paths = (
{
closed = 1;
nodes = (
"1168 1475 LINE",
"1138 1475 LINE",
"945 566 LINE SMOOTH",
"863 182 OFFCURVE",
"669 13 OFFCURVE",
"428 13 CURVE SMOOTH",
"237 13 OFFCURVE",
"122 119 OFFCURVE",
"122 354 CURVE SMOOTH",
"122 437 OFFCURVE",
"149 580 OFFCURVE",
"194 794 CURVE SMOOTH",
"338 1475 LINE",
"308 1475 LINE",
"161 781 LINE SMOOTH",
"117 574 OFFCURVE",
"91 428 OFFCURVE",
"91 350 CURVE SMOOTH",
"91 100 OFFCURVE",
"216 -15 OFFCURVE",
"427 -15 CURVE SMOOTH",
"689 -15 OFFCURVE",
"890 162 OFFCURVE",
"973 555 CURVE SMOOTH"
);
}
);
width = 1174;
}
);
leftKerningGroup = U;
note = U;
rightKerningGroup = U;
unicode = 0055;
},
{
glyphname = V;
lastChange = "2020-04-10 15:32:52 +0000";
layers = (
{
anchors = (
{
name = bottom;
position = "{564, 0}";
},
{
name = top;
position = "{564, 1475}";
}
);
layerId = "A1A0948C-E637-4A65-8CCC-05505AD98C44";
paths = (
{
closed = 1;
nodes = (
"585 -13 LINE",
"1017 1475 LINE",
"985 1475 LINE",
"563 15 LINE",
"572 15 LINE",
"145 1475 LINE",
"113 1475 LINE",
"551 -13 LINE"
);
}
);
width = 1225;
},
{
anchors = (
{
name = bottom;
position = "{723, 0}";
},
{
name = top;
position = "{723, 1475}";
}
);
layerId = "584F9D0D-8480-40C6-ABEA-8DD6EE64252D";
paths = (
{
closed = 1;
nodes = (
"1025 0 LINE",
"1363 1475 LINE",
"916 1475 LINE",
"713 231 LINE",
"728 231 LINE",
"524 1475 LINE",
"77 1475 LINE",
"417 0 LINE"
);
}
);
width = 1452;
},
{
anchors = (
{
name = bottom;
position = "{583, 0}";
},
{
name = top;
position = "{897, 1475}";
}
);
layerId = "3FDD6C00-F7FD-4E85-84B0-0136AF7D7529";
paths = (
{
closed = 1;
nodes = (
"899 0 LINE",
"1551 1475 LINE",
"1094 1475 LINE",
"636 231 LINE",
"651 231 LINE",
"702 1475 LINE",
"265 1475 LINE",
"291 0 LINE"
);
}
);
width = 1452;
},
{
anchors = (
{
name = bottom;
position = "{452, 0}";
},
{
name = top;
position = "{766, 1475}";
}
);
layerId = "2503C51C-5A6C-4B2C-A968-78FEA18C2585";
paths = (
{
closed = 1;
nodes = (
"466 -13 LINE",
"1214 1475 LINE",
"1180 1475 LINE",
"449 12 LINE",
"458 12 LINE",
"342 1475 LINE",
"310 1475 LINE",
"432 -13 LINE"
);
}
);
width = 1225;
}
);
leftKerningGroup = V;
note = V;
rightKerningGroup = V;
unicode = 0056;
},
{
glyphname = W;
lastChange = "2020-04-10 15:37:14 +0000";
layers = (
{
anchors = (
{
name = bottom;
position = "{785, 0}";
},
{
name = top;
position = "{787, 1475}";
}
);
layerId = "A1A0948C-E637-4A65-8CCC-05505AD98C44";
paths = (
{
closed = 1;
nodes = (
"447 0 LINE",
"785 1434 LINE",
"777 1434 LINE",
"1114 0 LINE",
"1149 0 LINE",
"1461 1475 LINE",
"1428 1475 LINE",
"1128 31 LINE",
"1135 31 LINE",
"798 1475 LINE",
"764 1475 LINE",
"426 31 LINE",
"434 31 LINE",
"135 1475 LINE",
"102 1475 LINE",
"413 0 LINE"
);
}
);
width = 1690;
},
{
anchors = (
{
name = bottom;
position = "{1018, 0}";
},
{
name = top;
position = "{1018, 1475}";
}
);
layerId = "584F9D0D-8480-40C6-ABEA-8DD6EE64252D";
paths = (
{
closed = 1;
nodes = (
"888 0 LINE",
"1036 1213 LINE",
"996 1213 LINE",
"1143 0 LINE",
"1760 0 LINE",
"1954 1475 LINE",
"1539 1475 LINE",
"1421 63 LINE",
"1478 66 LINE",
"1262 1475 LINE",
"769 1475 LINE",
"552 66 LINE",
"609 63 LINE",
"491 1475 LINE",
"76 1475 LINE",
"270 0 LINE"
);
}
);
width = 2076;
},
{
anchors = (
{
name = bottom;
position = "{878, 0}";
},
{
name = top;
position = "{1192, 1475}";
}
);
layerId = "3FDD6C00-F7FD-4E85-84B0-0136AF7D7529";
paths = (
{
closed = 1;
nodes = (
"746 0 LINE",
"1152 1213 LINE",
"1112 1213 LINE",
"1001 0 LINE",
"1618 0 LINE",
"2126 1475 LINE",
"1711 1475 LINE",
"1293 63 LINE",
"1341 66 LINE",
"1425 1475 LINE",
"932 1475 LINE",
"415 66 LINE",
"481 63 LINE",
"663 1475 LINE",
"248 1475 LINE",
"128 0 LINE"
);
}
);
width = 2076;
},
{
anchors = (
{
name = bottom;
position = "{658, 0}";
},
{
name = top;
position = "{972, 1475}";
}
);
layerId = "2503C51C-5A6C-4B2C-A968-78FEA18C2585";
paths = (
{
closed = 1;
nodes = (
"329 0 LINE",
"975 1434 LINE",
"965 1434 LINE",
"994 0 LINE",
"1031 0 LINE",
"1657 1475 LINE",
"1623 1475 LINE",
"1014 31 LINE",
"1022 31 LINE",
"994 1475 LINE",
"958 1475 LINE",
"313 31 LINE",
"323 31 LINE",
"331 1475 LINE",
"298 1475 LINE",
"295 0 LINE"
);
}
);
width = 1690;
}
);
leftKerningGroup = W;
note = W;
rightKerningGroup = W;
unicode = 0057;
},
{
glyphname = X;
lastChange = "2020-01-24 14:26:48 +0000";
layers = (
{
anchors = (
{
name = bottom;
position = "{558, 0}";
},
{
name = top;
position = "{558, 1475}";
}
);
layerId = "A1A0948C-E637-4A65-8CCC-05505AD98C44";
paths = (
{
closed = 1;
nodes = (
"102 0 LINE",
"136 0 LINE",
"563 717 LINE",
"550 717 LINE",
"977 0 LINE",
"1011 0 LINE",
"569 743 LINE",
"569 717 LINE",
"996 1475 LINE",
"962 1475 LINE",
"550 743 LINE",
"563 743 LINE",
"148 1475 LINE",
"114 1475 LINE",
"544 717 LINE",
"544 743 LINE"
);
}
);
width = 1196;
},
{
anchors = (
{
name = bottom;
position = "{738, 0}";
},
{
name = top;
position = "{738, 1475}";
}
);
layerId = "584F9D0D-8480-40C6-ABEA-8DD6EE64252D";
paths = (
{
closed = 1;
nodes = (
"66 0 LINE",
"519 0 LINE",
"808 625 LINE",
"668 625 LINE",
"957 0 LINE",
"1411 0 LINE",
"916 892 LINE",
"919 566 LINE",
"1397 1475 LINE",
"943 1475 LINE",
"675 833 LINE",
"802 833 LINE",
"531 1475 LINE",
"78 1475 LINE",
"560 566 LINE",
"564 892 LINE"
);
}
);
width = 1478;
},
{
anchors = (
{
name = bottom;
position = "{609, 0}";
},
{
name = top;
position = "{923, 1475}";
}
);
layerId = "3FDD6C00-F7FD-4E85-84B0-0136AF7D7529";
paths = (
{
closed = 1;
nodes = (
"-55 0 LINE",
"406 0 LINE",
"843 625 LINE",
"681 625 LINE",
"828 0 LINE",
"1275 0 LINE",
"975 892 LINE",
"922 566 LINE",
"1583 1475 LINE",
"1122 1475 LINE",
"701 833 LINE",
"849 833 LINE",
"726 1475 LINE",
"279 1475 LINE",
"563 566 LINE",
"622 892 LINE"
);
}
);
width = 1478;
},
{
anchors = (
{
name = bottom;
position = "{427, 0}";
},
{
name = top;
position = "{741, 1475}";
}
);
layerId = "2503C51C-5A6C-4B2C-A968-78FEA18C2585";
paths = (
{
closed = 1;
nodes = (
"-16 0 LINE",
"25 0 LINE",
"592 717 LINE",
"577 717 LINE",
"845 0 LINE",
"875 0 LINE",
"600 743 LINE",
"597 717 LINE",
"1177 1475 LINE",
"1139 1475 LINE",
"581 743 LINE",
"597 743 LINE",
"345 1475 LINE",
"311 1475 LINE",
"574 717 LINE",
"577 745 LINE"
);
}
);
width = 1196;
}
);
leftKerningGroup = X;
note = X;
rightKerningGroup = X;
unicode = 0058;
},
{
glyphname = Y;
lastChange = "2020-04-10 15:37:51 +0000";
layers = (
{
anchors = (
{
name = bottom;
position = "{466, 0}";
},
{
name = top;
position = "{466, 1475}";
},
{
name = topleft;
position = "{20, 1475}";
}
);
layerId = "A1A0948C-E637-4A65-8CCC-05505AD98C44";
paths = (
{
closed = 1;
nodes = (
"835 1475 LINE",
"460 544 LINE",
"473 544 LINE",
"98 1475 LINE",
"65 1475 LINE",
"451 517 LINE",
"451 0 LINE",
"482 0 LINE",
"482 517 LINE",
"868 1475 LINE"
);
}
);
width = 1018;
},
{
anchors = (
{
name = bottom;
position = "{683, 0}";
},
{
name = top;
position = "{683, 1475}";
},
{
name = topleft;
position = "{20, 1475}";
}
);
layerId = "584F9D0D-8480-40C6-ABEA-8DD6EE64252D";
paths = (
{
closed = 1;
nodes = (
"911 1475 LINE",
"622 692 LINE",
"740 692 LINE",
"451 1475 LINE",
"24 1475 LINE",
"479 505 LINE",
"479 0 LINE",
"881 0 LINE",
"881 505 LINE",
"1339 1475 LINE"
);
}
);
width = 1386;
},
{
anchors = (
{
name = bottom;
position = "{580.132, 0}";
},
{
name = top;
position = "{893.653, 1475}";
},
{
name = topleft;
position = "{220.653, 1475}";
}
);
layerId = "3FDD6C00-F7FD-4E85-84B0-0136AF7D7529";
paths = (
{
closed = 1;
nodes = (
"1099 1475 LINE",
"640 692 LINE",
"758 692 LINE",
"639 1475 LINE",
"222 1475 LINE",
"471 505 LINE",
"363 0 LINE",
"765 0 LINE",
"874 505 LINE",
"1537 1475 LINE"
);
}
);
width = 1386;
},
{
anchors = (
{
name = bottom;
position = "{356, 0}";
},
{
name = top;
position = "{670, 1475}";
},
{
name = topleft;
position = "{181, 1475}";
}
);
layerId = "2503C51C-5A6C-4B2C-A968-78FEA18C2585";
paths = (
{
closed = 1;
nodes = (
"1040 1475 LINE",
"467 544 LINE",
"480 544 LINE",
"302 1475 LINE",
"271 1475 LINE",
"453 517 LINE",
"343 0 LINE",
"374 0 LINE",
"484 517 LINE",
"1074 1475 LINE"
);
}
);
width = 1018;
}
);
leftKerningGroup = Y;
note = Y;
rightKerningGroup = Y;
unicode = 0059;
},
{
glyphname = Z;
lastChange = "2020-04-11 13:26:23 +0000";
layers = (
{
anchors = (
{
name = bottom;
position = "{509, 11}";
},
{
name = center;
position = "{509, 738}";
},
{
name = top;
position = "{509, 1475}";
}
);
layerId = "A1A0948C-E637-4A65-8CCC-05505AD98C44";
paths = (
{
closed = 1;
nodes = (
"150 31 LINE",
"910 1449 LINE",
"910 1475 LINE",
"159 1475 LINE",
"159 1447 LINE",
"877 1447 LINE",
"876 1448 LINE",
"113 28 LINE",
"113 0 LINE",
"900 0 LINE",
"900 28 LINE",
"150 28 LINE"
);
}
);
width = 1118;
},
{
anchors = (
{
name = bottom;
position = "{613, 0}";
},
{
name = center;
position = "{613, 738}";
},
{
name = top;
position = "{613, 1475}";
}
);
layerId = "584F9D0D-8480-40C6-ABEA-8DD6EE64252D";
paths = (
{
closed = 1;
nodes = (
"528 303 LINE",
"1135 1221 LINE",
"1135 1475 LINE",
"122 1475 LINE",
"122 1175 LINE",
"688 1175 LINE",
"686 1177 LINE",
"77 257 LINE",
"77 0 LINE",
"1126 0 LINE",
"1126 301 LINE",
"528 301 LINE"
);
}
);
width = 1225;
},
{
anchors = (
{
name = bottom;
position = "{500.132, 0}";
},
{
name = center;
position = "{656.999, 738}";
},
{
name = top;
position = "{813.653, 1475}";
}
);
layerId = "3FDD6C00-F7FD-4E85-84B0-0136AF7D7529";
paths = (
{
closed = 1;
nodes = (
"485 303 LINE",
"1277 1221 LINE",
"1331 1475 LINE",
"318 1475 LINE",
"254 1175 LINE",
"810 1175 LINE",
"808 1177 LINE",
"14 257 LINE",
"-41 0 LINE",
"1008 0 LINE",
"1072 301 LINE",
"484 301 LINE"
);
}
);
width = 1225;
},
{
anchors = (
{
name = bottom;
position = "{406, 0}";
},
{
name = center;
position = "{563, 738}";
},
{
name = top;
position = "{720, 1475}";
}
);
layerId = "2503C51C-5A6C-4B2C-A968-78FEA18C2585";
paths = (
{
closed = 1;
nodes = (
"39 27 LINE",
"1101 1449 LINE",
"1107 1475 LINE",
"356 1475 LINE",
"350 1447 LINE",
"1068 1447 LINE",
"1065 1448 LINE",
"2 28 LINE",
"-4 0 LINE",
"783 0 LINE",
"789 28 LINE",
"39 28 LINE"
);
}
);
width = 1118;
}
);
leftKerningGroup = H;
note = Z;
rightKerningGroup = H;
unicode = 005A;
},
{
glyphname = a;
lastChange = "2020-04-11 13:40:45 +0000";
layers = (
{
anchors = (
{
name = bottom;
position = "{523, 0}";
},
{
name = ogonek;
position = "{952, 0}";
},
{
name = top;
position = "{543, 1062}";
}
);
layerId = "A1A0948C-E637-4A65-8CCC-05505AD98C44";
paths = (
{
closed = 1;
nodes = (
"976 7 OFFCURVE",
"965 28 OFFCURVE",
"957 63 CURVE SMOOTH",
"950 89 OFFCURVE",
"945 123 OFFCURVE",
"945 164 CURVE SMOOTH",
"945 681 LINE",
"945 710 OFFCURVE",
"945 738 OFFCURVE",
"945 763 CURVE SMOOTH",
"945 958 OFFCURVE",
"787 1073 OFFCURVE",
"548 1073 CURVE SMOOTH",
"279 1073 OFFCURVE",
"103 939 OFFCURVE",
"103 721 CURVE",
"134 721 LINE",
"134 921 OFFCURVE",
"296 1045 OFFCURVE",
"548 1045 CURVE SMOOTH",
"791 1045 OFFCURVE",
"914 929 OFFCURVE",
"914 763 CURVE SMOOTH",
"914 738 OFFCURVE",
"914 712 OFFCURVE",
"914 684 CURVE",
"914 162 LINE SMOOTH",
"914 121 OFFCURVE",
"920 83 OFFCURVE",
"928 55 CURVE SMOOTH",
"937 24 OFFCURVE",
"946 4 OFFCURVE",
"951 0 CURVE",
"982 0 LINE"
);
},
{
closed = 1;
nodes = (
"753 -15 OFFCURVE",
"943 128 OFFCURVE",
"943 332 CURVE",
"914 348 LINE",
"914 149 OFFCURVE",
"742 13 OFFCURVE",
"507 13 CURVE SMOOTH",
"268 13 OFFCURVE",
"110 113 OFFCURVE",
"110 288 CURVE SMOOTH",
"110 467 OFFCURVE",
"242 543 OFFCURVE",
"510 568 CURVE SMOOTH",
"753 591 OFFCURVE",
"943 625 OFFCURVE",
"944 709 CURVE",
"914 726 LINE",
"914 653 OFFCURVE",
"787 625 OFFCURVE",
"498 597 CURVE SMOOTH",
"216 570 OFFCURVE",
"79 481 OFFCURVE",
"79 290 CURVE SMOOTH",
"79 89 OFFCURVE",
"251 -15 OFFCURVE",
"504 -15 CURVE SMOOTH"
);
}
);
width = 1142;
},
{
anchors = (
{
name = bottom;
position = "{619, 0}";
},
{
name = ogonek;
position = "{1274, 0}";
},
{
name = top;
position = "{660, 1062}";
}
);
layerId = "584F9D0D-8480-40C6-ABEA-8DD6EE64252D";
paths = (
{
closed = 1;
nodes = (
"1259 13 OFFCURVE",
"1240 50 OFFCURVE",
"1225 100 CURVE SMOOTH",
"1212 146 OFFCURVE",
"1202 202 OFFCURVE",
"1202 261 CURVE SMOOTH",
"1202 590 LINE SMOOTH",
"1202 620 OFFCURVE",
"1202 648 OFFCURVE",
"1202 674 CURVE SMOOTH",
"1202 956 OFFCURVE",
"951 1074 OFFCURVE",
"658 1074 CURVE SMOOTH",
"348 1074 OFFCURVE",
"90 943 OFFCURVE",
"90 675 CURVE",
"487 675 LINE",
"487 749 OFFCURVE",
"548 790 OFFCURVE",
"655 790 CURVE SMOOTH",
"754 790 OFFCURVE",
"798 749 OFFCURVE",
"798 700 CURVE SMOOTH",
"798 695 OFFCURVE",
"798 689 OFFCURVE",
"798 684 CURVE SMOOTH",
"798 219 LINE SMOOTH",
"798 180 OFFCURVE",
"810 131 OFFCURVE",
"825 88 CURVE SMOOTH",
"840 47 OFFCURVE",
"858 12 OFFCURVE",
"870 0 CURVE",
"1274 0 LINE"
);
},
{
closed = 1;
nodes = (
"701 -14 OFFCURVE",
"968 103 OFFCURVE",
"968 345 CURVE",
"805 518 LINE",
"805 333 OFFCURVE",
"687 272 OFFCURVE",
"584 272 CURVE SMOOTH",
"512 272 OFFCURVE",
"470 288 OFFCURVE",
"470 333 CURVE SMOOTH",
"470 378 OFFCURVE",
"514 389 OFFCURVE",
"606 400 CURVE SMOOTH",
"763 418 OFFCURVE",
"956 474 OFFCURVE",
"1001 565 CURVE",
"798 684 LINE",
"798 647 OFFCURVE",
"739 634 OFFCURVE",
"525 614 CURVE SMOOTH",
"299 593 OFFCURVE",
"66 523 OFFCURVE",
"66 288 CURVE SMOOTH",
"66 88 OFFCURVE",
"236 -14 OFFCURVE",
"464 -14 CURVE SMOOTH"
);
}
);
width = 1372;
},
{
anchors = (
{
name = bottom;
position = "{524, 0}";
},
{
name = ogonek;
position = "{1158, 0}";
},
{
name = top;
position = "{789, 1062}";
}
);
layerId = "3FDD6C00-F7FD-4E85-84B0-0136AF7D7529";
paths = (
{
closed = 1;
nodes = (
"1145 24 OFFCURVE",
"1130 77 OFFCURVE",
"1130 148 CURVE SMOOTH",
"1130 182 OFFCURVE",
"1133 220 OFFCURVE",
"1142 261 CURVE SMOOTH",
"1230 674 LINE SMOOTH",
"1236 704 OFFCURVE",
"1239 732 OFFCURVE",
"1239 758 CURVE SMOOTH",
"1239 980 OFFCURVE",
"1013 1074 OFFCURVE",
"751 1074 CURVE SMOOTH",
"441 1074 OFFCURVE",
"175 943 OFFCURVE",
"118 675 CURVE",
"515 675 LINE",
"531 749 OFFCURVE",
"600 790 OFFCURVE",
"707 790 CURVE SMOOTH",
"795 790 OFFCURVE",
"833 757 OFFCURVE",
"833 716 CURVE SMOOTH",
"833 711 OFFCURVE",
"832 705 OFFCURVE",
"831 700 CURVE SMOOTH",
"729 219 LINE SMOOTH",
"725 201 OFFCURVE",
"724 182 OFFCURVE",
"724 162 CURVE SMOOTH",
"724 96 OFFCURVE",
"741 26 OFFCURVE",
"754 0 CURVE",
"1158 0 LINE"
);
},
{
closed = 1;
nodes = (
"602 -14 OFFCURVE",
"894 103 OFFCURVE",
"946 345 CURVE",
"799 518 LINE",
"760 333 OFFCURVE",
"629 272 OFFCURVE",
"526 272 CURVE SMOOTH",
"461 272 OFFCURVE",
"424 284 OFFCURVE",
"424 324 CURVE SMOOTH",
"424 379 OFFCURVE",
"491 389 OFFCURVE",
"575 400 CURVE SMOOTH",
"724 419 OFFCURVE",
"975 466 OFFCURVE",
"1031 565 CURVE",
"831 700 LINE",
"819 643 OFFCURVE",
"697 628 OFFCURVE",
"509 609 CURVE SMOOTH",
"223 580 OFFCURVE",
"12 504 OFFCURVE",
"12 249 CURVE SMOOTH",
"12 106 OFFCURVE",
"127 -14 OFFCURVE",
"365 -14 CURVE SMOOTH"
);
}
);
width = 1368;
},
{
anchors = (
{
name = bottom;
position = "{461, 0}";
},
{
name = ogonek;
position = "{856, 0}";
},
{
name = top;
position = "{696, 1062}";
}
);
layerId = "2503C51C-5A6C-4B2C-A968-78FEA18C2585";
paths = (
{
closed = 1;
nodes = (
"884 7 OFFCURVE",
"871 36 OFFCURVE",
"871 71 CURVE SMOOTH",
"871 97 OFFCURVE",
"875 123 OFFCURVE",
"884 164 CURVE SMOOTH",
"994 681 LINE",
"1010 758 OFFCURVE",
"1015 785 OFFCURVE",
"1015 828 CURVE SMOOTH",
"1015 983 OFFCURVE",
"885 1073 OFFCURVE",
"674 1073 CURVE SMOOTH",
"405 1073 OFFCURVE",
"207 939 OFFCURVE",
"161 721 CURVE",
"192 721 LINE",
"234 921 OFFCURVE",
"423 1045 OFFCURVE",
"675 1045 CURVE SMOOTH",
"886 1045 OFFCURVE",
"984 957 OFFCURVE",
"984 825 CURVE SMOOTH",
"984 788 OFFCURVE",
"978 751 OFFCURVE",
"964 684 CURVE",
"853 162 LINE SMOOTH",
"844 121 OFFCURVE",
"840 92 OFFCURVE",
"840 63 CURVE SMOOTH",
"840 32 OFFCURVE",
"853 4 OFFCURVE",
"858 0 CURVE",
"889 0 LINE"
);
},
{
closed = 1;
nodes = (
"660 -15 OFFCURVE",
"875 128 OFFCURVE",
"918 332 CURVE",
"894 348 LINE",
"851 149 OFFCURVE",
"649 13 OFFCURVE",
"414 13 CURVE SMOOTH",
"189 13 OFFCURVE",
"74 102 OFFCURVE",
"74 242 CURVE SMOOTH",
"74 481 OFFCURVE",
"273 544 OFFCURVE",
"535 568 CURVE SMOOTH",
"783 591 OFFCURVE",
"980 625 OFFCURVE",
"999 709 CURVE",
"974 731 LINE",
"958 658 OFFCURVE",
"824 625 OFFCURVE",
"529 597 CURVE SMOOTH",
"257 571 OFFCURVE",
"43 497 OFFCURVE",
"43 242 CURVE SMOOTH",
"43 78 OFFCURVE",
"171 -15 OFFCURVE",
"411 -15 CURVE SMOOTH"
);
}
);
width = 1159;
}
);
leftKerningGroup = o;
leftMetricsKey = o;
note = a;
rightKerningGroup = n;
unicode = 0061;
},
{
glyphname = a.ss01;
lastChange = "2020-04-21 00:38:59 +0000";
layers = (
{
anchors = (
{
name = bottom;
position = "{543, 0}";
},
{
name = ogonek;
position = "{954, 0}";
},
{
name = top;
position = "{543, 1062}";
}
);
layerId = "A1A0948C-E637-4A65-8CCC-05505AD98C44";
paths = (
{
closed = 1;
nodes = (
"783 -15 OFFCURVE",
"951 166 OFFCURVE",
"951 383 CURVE",
"922 383 LINE",
"922 186 OFFCURVE",
"766 13 OFFCURVE",
"547 13 CURVE SMOOTH",
"305 13 OFFCURVE",
"110 204 OFFCURVE",
"110 534 CURVE SMOOTH",
"110 862 OFFCURVE",
"305 1045 OFFCURVE",
"547 1045 CURVE SMOOTH",
"766 1045 OFFCURVE",
"922 872 OFFCURVE",
"922 675 CURVE SMOOTH",
"922 672 OFFCURVE",
"922 668 OFFCURVE",
"922 665 CURVE",
"951 665 LINE",
"951 668 OFFCURVE",
"951 672 OFFCURVE",
"951 675 CURVE SMOOTH",
"951 892 OFFCURVE",
"783 1073 OFFCURVE",
"547 1073 CURVE SMOOTH",
"287 1073 OFFCURVE",
"79 881 OFFCURVE",
"79 534 CURVE SMOOTH",
"79 177 OFFCURVE",
"288 -15 OFFCURVE",
"547 -15 CURVE SMOOTH"
);
},
{
closed = 1;
nodes = (
"953 1062 LINE",
"922 1062 LINE",
"922 708 OFFCURVE",
"922 354 OFFCURVE",
"922 0 CURVE",
"953 0 LINE"
);
}
);
width = 1157;
},
{
anchors = (
{
name = bottom;
position = "{727, 0}";
},
{
name = ogonek;
position = "{1295, 0}";
},
{
name = top;
position = "{727, 1062}";
}
);
layerId = "584F9D0D-8480-40C6-ABEA-8DD6EE64252D";
paths = (
{
closed = 1;
nodes = (
"813 -15 OFFCURVE",
"1034 179 OFFCURVE",
"1034 494 CURVE",
"892 514 LINE",
"892 381 OFFCURVE",
"793 313 OFFCURVE",
"697 313 CURVE SMOOTH",
"596 313 OFFCURVE",
"492 382 OFFCURVE",
"492 539 CURVE SMOOTH",
"492 696 OFFCURVE",
"596 756 OFFCURVE",
"697 756 CURVE SMOOTH",
"791 756 OFFCURVE",
"892 693 OFFCURVE",
"892 560 CURVE SMOOTH",
"892 556 OFFCURVE",
"892 553 OFFCURVE",
"892 549 CURVE",
"1034 557 LINE",
"1034 565 OFFCURVE",
"1034 572 OFFCURVE",
"1034 580 CURVE SMOOTH",
"1034 882 OFFCURVE",
"813 1073 OFFCURVE",
"568 1073 CURVE SMOOTH",
"311 1073 OFFCURVE",
"66 891 OFFCURVE",
"66 539 CURVE SMOOTH",
"66 167 OFFCURVE",
"301 -15 OFFCURVE",
"568 -15 CURVE SMOOTH"
);
},
{
closed = 1;
nodes = (
"1295 1062 LINE",
"892 1062 LINE",
"892 708 OFFCURVE",
"892 354 OFFCURVE",
"892 0 CURVE",
"1295 0 LINE"
);
}
);
width = 1439;
},
{
anchors = (
{
name = bottom;
position = "{583, 0}";
},
{
name = ogonek;
position = "{1178, 0}";
},
{
name = top;
position = "{809, 1062}";
}
);
layerId = "3FDD6C00-F7FD-4E85-84B0-0136AF7D7529";
paths = (
{
closed = 1;
nodes = (
"721 -15 OFFCURVE",
"955 179 OFFCURVE",
"1022 494 CURVE",
"884 514 LINE",
"856 381 OFFCURVE",
"752 313 OFFCURVE",
"646 313 CURVE SMOOTH",
"553 313 OFFCURVE",
"488 378 OFFCURVE",
"488 498 CURVE SMOOTH",
"488 653 OFFCURVE",
"597 756 OFFCURVE",
"731 756 CURVE SMOOTH",
"814 756 OFFCURVE",
"899 707 OFFCURVE",
"899 605 CURVE SMOOTH",
"899 587 OFFCURVE",
"896 568 OFFCURVE",
"891 549 CURVE",
"1035 557 LINE",
"1045 595 OFFCURVE",
"1052 652 OFFCURVE",
"1052 690 CURVE SMOOTH",
"1052 928 OFFCURVE",
"873 1073 OFFCURVE",
"659 1073 CURVE SMOOTH",
"309 1073 OFFCURVE",
"59 795 OFFCURVE",
"59 434 CURVE SMOOTH",
"59 135 OFFCURVE",
"231 -15 OFFCURVE",
"476 -15 CURVE SMOOTH"
);
},
{
closed = 1;
nodes = (
"1403 1062 LINE",
"1000 1062 LINE",
"925 708 OFFCURVE",
"850 354 OFFCURVE",
"775 0 CURVE",
"1178 0 LINE"
);
}
);
width = 1444;
},
{
anchors = (
{
name = bottom;
position = "{498, 0}";
},
{
name = ogonek;
position = "{857, 0}";
},
{
name = top;
position = "{724, 1062}";
}
);
layerId = "2503C51C-5A6C-4B2C-A968-78FEA18C2585";
paths = (
{
closed = 1;
nodes = (
"698 -15 OFFCURVE",
"889 166 OFFCURVE",
"935 383 CURVE",
"906 383 LINE",
"864 186 OFFCURVE",
"681 13 OFFCURVE",
"452 13 CURVE SMOOTH",
"234 13 OFFCURVE",
"122 172 OFFCURVE",
"122 427 CURVE SMOOTH",
"122 776 OFFCURVE",
"332 1045 OFFCURVE",
"672 1045 CURVE SMOOTH",
"862 1045 OFFCURVE",
"976 915 OFFCURVE",
"976 752 CURVE SMOOTH",
"976 728 OFFCURVE",
"971 680 OFFCURVE",
"966 665 CURVE",
"995 665 LINE",
"999 678 OFFCURVE",
"1006 729 OFFCURVE",
"1006 758 CURVE SMOOTH",
"1006 936 OFFCURVE",
"876 1073 OFFCURVE",
"671 1073 CURVE SMOOTH",
"313 1073 OFFCURVE",
"91 794 OFFCURVE",
"91 422 CURVE SMOOTH",
"91 145 OFFCURVE",
"218 -15 OFFCURVE",
"452 -15 CURVE SMOOTH"
);
},
{
closed = 1;
nodes = (
"1081 1062 LINE",
"1050 1062 LINE",
"975 708 OFFCURVE",
"900 354 OFFCURVE",
"825 0 CURVE",
"856 0 LINE"
);
}
);
width = 1186;
}
);
leftKerningGroup = o;
leftMetricsKey = o;
rightKerningGroup = n;
rightMetricsKey = u;
},
{
glyphname = ae;
lastChange = "2020-04-24 15:09:20 +0000";
layers = (
{
anchors = (
{
name = bottom;
position = "{1011, 0}";
},
{
name = top;
position = "{1011, 1062}";
}
);
components = (
{
name = e;
transform = "{1, 0, 0, 1, 878, 0}";
}
);
layerId = "A1A0948C-E637-4A65-8CCC-05505AD98C44";
paths = (
{
closed = 1;
nodes = (
"986 526 LINE",
"986 555 OFFCURVE",
"986 738 OFFCURVE",
"986 763 CURVE SMOOTH",
"986 965 OFFCURVE",
"807 1073 OFFCURVE",
"568 1073 CURVE SMOOTH",
"299 1073 OFFCURVE",
"103 942 OFFCURVE",
"103 721 CURVE",
"136 721 LINE",
"136 921 OFFCURVE",
"318 1045 OFFCURVE",
"568 1045 CURVE SMOOTH",
"811 1045 OFFCURVE",
"954 929 OFFCURVE",
"954 763 CURVE SMOOTH",
"954 738 OFFCURVE",
"954 570 OFFCURVE",
"954 542 CURVE"
);
},
{
closed = 1;
nodes = (
"771 -15 OFFCURVE",
"986 110 OFFCURVE",
"986 526 CURVE",
"954 542 LINE",
"954 114 OFFCURVE",
"749 13 OFFCURVE",
"507 13 CURVE SMOOTH",
"275 13 OFFCURVE",
"112 83 OFFCURVE",
"112 278 CURVE SMOOTH",
"112 477 OFFCURVE",
"261 554 OFFCURVE",
"530 569 CURVE SMOOTH",
"773 583 OFFCURVE",
"984 625 OFFCURVE",
"985 709 CURVE",
"954 726 LINE",
"954 653 OFFCURVE",
"807 615 OFFCURVE",
"518 597 CURVE SMOOTH",
"235 579 OFFCURVE",
"79 491 OFFCURVE",
"79 280 CURVE SMOOTH",
"79 59 OFFCURVE",
"258 -15 OFFCURVE",
"504 -15 CURVE SMOOTH"
);
}
);
width = 2080;
},
{
anchors = (
{
name = bottom;
position = "{1041, 0}";
},
{
name = top;
position = "{1041, 1062}";
}
);
components = (
{
name = e;
transform = "{1, 0, 0, 1, 745, 0}";
}
);
layerId = "584F9D0D-8480-40C6-ABEA-8DD6EE64252D";
paths = (
{
closed = 1;
nodes = (
"1202 590 LINE",
"1202 611 OFFCURVE",
"1202 648 OFFCURVE",
"1202 674 CURVE SMOOTH",
"1202 956 OFFCURVE",
"951 1074 OFFCURVE",
"658 1074 CURVE SMOOTH",
"348 1074 OFFCURVE",
"90 943 OFFCURVE",
"90 675 CURVE",
"487 675 LINE",
"487 749 OFFCURVE",
"548 790 OFFCURVE",
"655 790 CURVE SMOOTH",
"754 790 OFFCURVE",
"798 749 OFFCURVE",
"798 700 CURVE SMOOTH",
"798 695 OFFCURVE",
"798 600 OFFCURVE",
"798 561 CURVE"
);
},
{
closed = 1;
nodes = (
"764 -14 OFFCURVE",
"1047 65 OFFCURVE",
"1047 345 CURVE",
"805 518 LINE",
"805 333 OFFCURVE",
"687 272 OFFCURVE",
"584 272 CURVE SMOOTH",
"512 272 OFFCURVE",
"470 288 OFFCURVE",
"470 333 CURVE SMOOTH",
"470 378 OFFCURVE",
"514 388 OFFCURVE",
"606 400 CURVE SMOOTH",
"751 419 OFFCURVE",
"967 498 OFFCURVE",
"967 565 CURVE",
"798 690 LINE",
"798 643 OFFCURVE",
"720 626 OFFCURVE",
"545 609 CURVE SMOOTH",
"319 587 OFFCURVE",
"66 523 OFFCURVE",
"66 288 CURVE SMOOTH",
"66 45 OFFCURVE",
"299 -14 OFFCURVE",
"527 -14 CURVE SMOOTH"
);
}
);
width = 2112;
},
{
anchors = (
{
name = bottom;
position = "{918, 0}";
},
{
name = top;
position = "{1144, 1062}";
}
);
components = (
{
name = e;
transform = "{1, 0, 0, 1, 730, 0}";
}
);
layerId = "3FDD6C00-F7FD-4E85-84B0-0136AF7D7529";
paths = (
{
closed = 1;
nodes = (
"1197 492 LINE",
"1203 522 OFFCURVE",
"1238 732 OFFCURVE",
"1238 758 CURVE SMOOTH",
"1238 980 OFFCURVE",
"1012 1074 OFFCURVE",
"750 1074 CURVE SMOOTH",
"440 1074 OFFCURVE",
"174 943 OFFCURVE",
"117 675 CURVE",
"514 675 LINE",
"530 749 OFFCURVE",
"599 790 OFFCURVE",
"706 790 CURVE SMOOTH",
"794 790 OFFCURVE",
"832 757 OFFCURVE",
"832 716 CURVE SMOOTH",
"832 711 OFFCURVE",
"799 523 OFFCURVE",
"798 518 CURVE"
);
},
{
closed = 1;
nodes = (
"707 -14 OFFCURVE",
"998 72 OFFCURVE",
"1059 345 CURVE",
"798 518 LINE",
"759 333 OFFCURVE",
"628 272 OFFCURVE",
"525 272 CURVE SMOOTH",
"460 272 OFFCURVE",
"423 284 OFFCURVE",
"423 324 CURVE SMOOTH",
"423 379 OFFCURVE",
"490 389 OFFCURVE",
"574 400 CURVE SMOOTH",
"723 419 OFFCURVE",
"956 498 OFFCURVE",
"970 565 CURVE",
"828 690 LINE",
"818 643 OFFCURVE",
"726 628 OFFCURVE",
"548 609 CURVE SMOOTH",
"262 579 OFFCURVE",
"11 504 OFFCURVE",
"11 249 CURVE SMOOTH",
"11 106 OFFCURVE",
"167 -14 OFFCURVE",
"395 -14 CURVE SMOOTH"
);
}
);
width = 2083;
},
{
anchors = (
{
name = bottom;
position = "{898, 0}";
},
{
name = top;
position = "{1124, 1062}";
}
);
components = (
{
name = e;
transform = "{1, 0, 0, 1, 859, 0}";
}
);
layerId = "2503C51C-5A6C-4B2C-A968-78FEA18C2585";
paths = (
{
closed = 1;
nodes = (
"984 523 LINE",
"992 552 OFFCURVE",
"1043 746 OFFCURVE",
"1043 845 CURVE SMOOTH",
"1043 994 OFFCURVE",
"896 1073 OFFCURVE",
"692 1073 CURVE SMOOTH",
"423 1073 OFFCURVE",
"229 942 OFFCURVE",
"182 721 CURVE",
"215 721 LINE",
"257 921 OFFCURVE",
"442 1045 OFFCURVE",
"692 1045 CURVE SMOOTH",
"894 1045 OFFCURVE",
"1011 965 OFFCURVE",
"1011 842 CURVE SMOOTH",
"1011 743 OFFCURVE",
"959 551 OFFCURVE",
"951 523 CURVE"
);
},
{
closed = 1;
nodes = (
"719 -15 OFFCURVE",
"905 149 OFFCURVE",
"984 523 CURVE",
"951 523 LINE",
"873 158 OFFCURVE",
"697 13 OFFCURVE",
"435 13 CURVE SMOOTH",
"183 13 OFFCURVE",
"77 111 OFFCURVE",
"77 260 CURVE SMOOTH",
"77 451 OFFCURVE",
"294 555 OFFCURVE",
"567 569 CURVE SMOOTH",
"812 582 OFFCURVE",
"1006 620 OFFCURVE",
"1025 709 CURVE",
"999 726 LINE",
"983 653 OFFCURVE",
"853 615 OFFCURVE",
"560 597 CURVE SMOOTH",
"274 579 OFFCURVE",
"44 471 OFFCURVE",
"44 260 CURVE SMOOTH",
"44 85 OFFCURVE",
"167 -15 OFFCURVE",
"433 -15 CURVE SMOOTH"
);
}
);
width = 2075;
}
);
leftKerningGroup = a;
leftMetricsKey = a;
rightKerningGroup = e;
rightMetricsKey = e;
unicode = 00E6;
},
{
glyphname = b;
lastChange = "2020-04-10 19:37:41 +0000";
layers = (
{
anchors = (
{
name = bottom;
position = "{558, 0}";
},
{
name = top;
position = "{558, 1563}";
}
);
layerId = "A1A0948C-E637-4A65-8CCC-05505AD98C44";
paths = (
{
closed = 1;
nodes = (
"823 -15 OFFCURVE",
"998 181 OFFCURVE",
"998 529 CURVE SMOOTH",
"998 877 OFFCURVE",
"823 1073 OFFCURVE",
"564 1073 CURVE SMOOTH",
"324 1073 OFFCURVE",
"134 886 OFFCURVE",
"134 675 CURVE",
"164 675 LINE",
"164 872 OFFCURVE",
"348 1045 OFFCURVE",
"564 1045 CURVE SMOOTH",
"804 1045 OFFCURVE",
"967 858 OFFCURVE",
"967 529 CURVE SMOOTH",
"967 200 OFFCURVE",
"804 13 OFFCURVE",
"564 13 CURVE SMOOTH",
"348 13 OFFCURVE",
"164 186 OFFCURVE",
"164 383 CURVE SMOOTH",
"164 385 OFFCURVE",
"164 388 OFFCURVE",
"164 390 CURVE",
"134 390 LINE",
"134 388 OFFCURVE",
"134 385 OFFCURVE",
"134 383 CURVE SMOOTH",
"134 172 OFFCURVE",
"324 -15 OFFCURVE",
"564 -15 CURVE SMOOTH"
);
},
{
closed = 1;
nodes = (
"164 0 LINE",
"164 1563 LINE",
"133 1563 LINE",
"133 0 LINE"
);
}
);
width = 1150;
},
{
anchors = (
{
name = bottom;
position = "{683, 0}";
},
{
name = top;
position = "{683, 1563}";
}
);
layerId = "584F9D0D-8480-40C6-ABEA-8DD6EE64252D";
paths = (
{
closed = 1;
nodes = (
"1079 -15 OFFCURVE",
"1314 166 OFFCURVE",
"1314 538 CURVE SMOOTH",
"1314 890 OFFCURVE",
"1069 1073 OFFCURVE",
"812 1073 CURVE SMOOTH",
"557 1073 OFFCURVE",
"356 866 OFFCURVE",
"356 571 CURVE",
"498 561 LINE",
"498 694 OFFCURVE",
"602 757 OFFCURVE",
"696 757 CURVE SMOOTH",
"798 757 OFFCURVE",
"898 695 OFFCURVE",
"898 538 CURVE SMOOTH",
"898 381 OFFCURVE",
"797 314 OFFCURVE",
"696 314 CURVE SMOOTH",
"600 314 OFFCURVE",
"498 382 OFFCURVE",
"498 515 CURVE SMOOTH",
"498 519 OFFCURVE",
"498 524 OFFCURVE",
"498 528 CURVE",
"356 525 LINE",
"356 518 OFFCURVE",
"356 512 OFFCURVE",
"356 505 CURVE SMOOTH",
"356 210 OFFCURVE",
"557 -15 OFFCURVE",
"812 -15 CURVE SMOOTH"
);
},
{
closed = 1;
nodes = (
"498 0 LINE",
"498 1563 LINE",
"94 1563 LINE",
"94 0 LINE"
);
}
);
width = 1392;
},
{
anchors = (
{
name = bottom;
position = "{576, 0}";
},
{
name = top;
position = "{908, 1563}";
}
);
layerId = "3FDD6C00-F7FD-4E85-84B0-0136AF7D7529";
paths = (
{
closed = 1;
nodes = (
"1078 -15 OFFCURVE",
"1315 252 OFFCURVE",
"1315 628 CURVE SMOOTH",
"1315 917 OFFCURVE",
"1146 1073 OFFCURVE",
"905 1073 CURVE SMOOTH",
"650 1073 OFFCURVE",
"425 866 OFFCURVE",
"362 571 CURVE",
"501 561 LINE",
"529 694 OFFCURVE",
"647 757 OFFCURVE",
"741 757 CURVE SMOOTH",
"835 757 OFFCURVE",
"898 706 OFFCURVE",
"898 593 CURVE SMOOTH",
"898 434 OFFCURVE",
"814 314 OFFCURVE",
"647 314 CURVE SMOOTH",
"563 314 OFFCURVE",
"487 366 OFFCURVE",
"487 467 CURVE SMOOTH",
"487 482 OFFCURVE",
"490 512 OFFCURVE",
"494 528 CURVE",
"352 525 LINE",
"343 501 OFFCURVE",
"335 457 OFFCURVE",
"335 386 CURVE SMOOTH",
"335 151 OFFCURVE",
"494 -15 OFFCURVE",
"713 -15 CURVE SMOOTH"
);
},
{
closed = 1;
nodes = (
"382 0 LINE",
"715 1563 LINE",
"311 1563 LINE",
"-22 0 LINE"
);
}
);
width = 1388;
},
{
anchors = (
{
name = bottom;
position = "{445, 0}";
},
{
name = top;
position = "{777, 1563}";
}
);
layerId = "2503C51C-5A6C-4B2C-A968-78FEA18C2585";
paths = (
{
closed = 1;
nodes = (
"796 -15 OFFCURVE",
"1001 295 OFFCURVE",
"1001 664 CURVE SMOOTH",
"1001 920 OFFCURVE",
"899 1073 OFFCURVE",
"671 1073 CURVE SMOOTH",
"431 1073 OFFCURVE",
"207 886 OFFCURVE",
"162 675 CURVE",
"191 675 LINE",
"233 872 OFFCURVE",
"455 1045 OFFCURVE",
"671 1045 CURVE SMOOTH",
"880 1045 OFFCURVE",
"970 902 OFFCURVE",
"970 663 CURVE SMOOTH",
"970 317 OFFCURVE",
"779 13 OFFCURVE",
"451 13 CURVE SMOOTH",
"260 13 OFFCURVE",
"123 148 OFFCURVE",
"123 316 CURVE SMOOTH",
"123 347 OFFCURVE",
"131 388 OFFCURVE",
"131 390 CURVE",
"101 390 LINE",
"101 389 OFFCURVE",
"92 344 OFFCURVE",
"92 311 CURVE SMOOTH",
"92 131 OFFCURVE",
"239 -15 OFFCURVE",
"451 -15 CURVE SMOOTH"
);
},
{
closed = 1;
nodes = (
"48 0 LINE",
"381 1563 LINE",
"350 1563 LINE",
"17 0 LINE"
);
}
);
width = 1142;
}
);
leftKerningGroup = h;
leftMetricsKey = h;
note = b;
rightKerningGroup = o;
rightMetricsKey = o;
unicode = 0062;
},
{
glyphname = c;
lastChange = "2020-04-24 14:53:49 +0000";
layers = (
{
anchors = (
{
name = bottom;
position = "{579, 0}";
},
{
name = top;
position = "{569, 1062}";
}
);
layerId = "A1A0948C-E637-4A65-8CCC-05505AD98C44";
paths = (
{
closed = 1;
nodes = (
"881 -15 OFFCURVE",
"1028 170 OFFCURVE",
"1028 325 CURVE",
"997 325 LINE",
"997 183 OFFCURVE",
"864 13 OFFCURVE",
"586 13 CURVE SMOOTH",
"339 13 OFFCURVE",
"110 193 OFFCURVE",
"110 529 CURVE SMOOTH",
"110 865 OFFCURVE",
"340 1045 OFFCURVE",
"586 1045 CURVE SMOOTH",
"801 1045 OFFCURVE",
"971 915 OFFCURVE",
"996 750 CURVE SMOOTH",
"997 743 OFFCURVE",
"997 734 OFFCURVE",
"997 727 CURVE",
"1028 727 LINE",
"1028 729 OFFCURVE",
"1028 731 OFFCURVE",
"1028 733 CURVE SMOOTH",
"1028 878 OFFCURVE",
"863 1073 OFFCURVE",
"586 1073 CURVE SMOOTH",
"321 1073 OFFCURVE",
"79 882 OFFCURVE",
"79 529 CURVE SMOOTH",
"79 176 OFFCURVE",
"321 -15 OFFCURVE",
"586 -15 CURVE SMOOTH"
);
}
);
width = 1180;
},
{
anchors = (
{
name = bottom;
position = "{650, 0}";
},
{
name = top;
position = "{651, 1073}";
}
);
layerId = "584F9D0D-8480-40C6-ABEA-8DD6EE64252D";
paths = (
{
closed = 1;
nodes = (
"1067 -15 OFFCURVE",
"1248 220 OFFCURVE",
"1248 424 CURVE",
"848 424 LINE",
"836 364 OFFCURVE",
"786 285 OFFCURVE",
"673 285 CURVE SMOOTH",
"551 285 OFFCURVE",
"475 389 OFFCURVE",
"475 536 CURVE SMOOTH",
"475 685 OFFCURVE",
"551 773 OFFCURVE",
"673 773 CURVE SMOOTH",
"775 773 OFFCURVE",
"825 714 OFFCURVE",
"843 659 CURVE SMOOTH",
"845 654 OFFCURVE",
"849 638 OFFCURVE",
"849 631 CURVE",
"1248 631 LINE",
"1248 634 OFFCURVE",
"1248 637 OFFCURVE",
"1248 640 CURVE SMOOTH",
"1248 844 OFFCURVE",
"1067 1073 OFFCURVE",
"681 1073 CURVE SMOOTH",
"308 1073 OFFCURVE",
"66 861 OFFCURVE",
"66 536 CURVE SMOOTH",
"66 211 OFFCURVE",
"308 -15 OFFCURVE",
"681 -15 CURVE SMOOTH"
);
}
);
width = 1326;
},
{
anchors = (
{
name = bottom;
position = "{557, 0}";
},
{
name = top;
position = "{783, 1062}";
}
);
layerId = "3FDD6C00-F7FD-4E85-84B0-0136AF7D7529";
paths = (
{
closed = 1;
nodes = (
"965 -15 OFFCURVE",
"1176 220 OFFCURVE",
"1220 424 CURVE",
"820 424 LINE",
"795 364 OFFCURVE",
"723 285 OFFCURVE",
"615 285 CURVE SMOOTH",
"512 285 OFFCURVE",
"469 356 OFFCURVE",
"469 466 CURVE SMOOTH",
"469 669 OFFCURVE",
"591 773 OFFCURVE",
"719 773 CURVE SMOOTH",
"832 773 OFFCURVE",
"867 703 OFFCURVE",
"867 647 CURVE SMOOTH",
"867 642 OFFCURVE",
"866 634 OFFCURVE",
"865 631 CURVE",
"1264 631 LINE",
"1266 638 OFFCURVE",
"1273 676 OFFCURVE",
"1273 707 CURVE SMOOTH",
"1273 891 OFFCURVE",
"1115 1073 OFFCURVE",
"771 1073 CURVE SMOOTH",
"371 1073 OFFCURVE",
"59 828 OFFCURVE",
"59 439 CURVE SMOOTH",
"59 165 OFFCURVE",
"230 -15 OFFCURVE",
"579 -15 CURVE SMOOTH"
);
}
);
width = 1318;
},
{
anchors = (
{
name = bottom;
position = "{468, 0}";
},
{
name = top;
position = "{694, 1062}";
}
);
layerId = "2503C51C-5A6C-4B2C-A968-78FEA18C2585";
paths = (
{
closed = 1;
nodes = (
"788 -15 OFFCURVE",
"966 180 OFFCURVE",
"999 335 CURVE",
"968 335 LINE",
"937 193 OFFCURVE",
"767 13 OFFCURVE",
"488 13 CURVE SMOOTH",
"262 13 OFFCURVE",
"118 173 OFFCURVE",
"118 419 CURVE SMOOTH",
"118 764 OFFCURVE",
"372 1045 OFFCURVE",
"708 1045 CURVE SMOOTH",
"939 1045 OFFCURVE",
"1055 900 OFFCURVE",
"1055 767 CURVE SMOOTH",
"1055 751 OFFCURVE",
"1051 723 OFFCURVE",
"1049 717 CURVE",
"1080 717 LINE",
"1082 723 OFFCURVE",
"1086 752 OFFCURVE",
"1086 772 CURVE SMOOTH",
"1086 916 OFFCURVE",
"959 1073 OFFCURVE",
"708 1073 CURVE SMOOTH",
"350 1073 OFFCURVE",
"88 787 OFFCURVE",
"88 418 CURVE SMOOTH",
"88 154 OFFCURVE",
"239 -15 OFFCURVE",
"488 -15 CURVE SMOOTH"
);
}
);
width = 1189;
}
);
leftKerningGroup = o;
leftMetricsKey = o;
note = c;
rightKerningGroup = o;
rightMetricsKey = o;
unicode = 0063;
},
{
glyphname = d;
lastChange = "2020-04-11 13:40:45 +0000";
layers = (
{
anchors = (
{
name = bottom;
position = "{533, 0}";
},
{
name = center;
position = "{927, 1295}";
},
{
name = top;
position = "{533, 1563}";
},
{
name = topright;
position = "{1065, 1062}";
}
);
layerId = "A1A0948C-E637-4A65-8CCC-05505AD98C44";
paths = (
{
closed = 1;
nodes = (
"742 -15 OFFCURVE",
"943 159 OFFCURVE",
"943 390 CURVE",
"913 390 LINE",
"913 179 OFFCURVE",
"725 13 OFFCURVE",
"513 13 CURVE SMOOTH",
"273 13 OFFCURVE",
"110 200 OFFCURVE",
"110 529 CURVE SMOOTH",
"110 858 OFFCURVE",
"273 1045 OFFCURVE",
"513 1045 CURVE SMOOTH",
"729 1045 OFFCURVE",
"913 872 OFFCURVE",
"913 675 CURVE SMOOTH",
"913 670 OFFCURVE",
"913 666 OFFCURVE",
"913 661 CURVE",
"943 657 LINE",
"943 663 OFFCURVE",
"943 669 OFFCURVE",
"943 675 CURVE SMOOTH",
"943 886 OFFCURVE",
"753 1073 OFFCURVE",
"513 1073 CURVE SMOOTH",
"254 1073 OFFCURVE",
"79 877 OFFCURVE",
"79 529 CURVE SMOOTH",
"79 181 OFFCURVE",
"254 -15 OFFCURVE",
"513 -15 CURVE SMOOTH"
);
},
{
closed = 1;
nodes = (
"944 1563 LINE",
"913 1563 LINE",
"913 0 LINE",
"944 0 LINE"
);
}
);
width = 1135;
},
{
anchors = (
{
name = bottom;
position = "{645, 0}";
},
{
name = center;
position = "{1080, 1298}";
},
{
name = top;
position = "{645, 1563}";
},
{
name = topright;
position = "{1381, 1062}";
}
);
layerId = "584F9D0D-8480-40C6-ABEA-8DD6EE64252D";
paths = (
{
closed = 1;
nodes = (
"823 -15 OFFCURVE",
"1024 210 OFFCURVE",
"1024 505 CURVE",
"882 515 LINE",
"882 382 OFFCURVE",
"780 314 OFFCURVE",
"684 314 CURVE SMOOTH",
"583 314 OFFCURVE",
"482 381 OFFCURVE",
"482 538 CURVE SMOOTH",
"482 695 OFFCURVE",
"583 757 OFFCURVE",
"684 757 CURVE SMOOTH",
"778 757 OFFCURVE",
"882 694 OFFCURVE",
"882 561 CURVE SMOOTH",
"882 557 OFFCURVE",
"882 552 OFFCURVE",
"882 548 CURVE",
"1024 548 LINE",
"1024 556 OFFCURVE",
"1024 563 OFFCURVE",
"1024 571 CURVE SMOOTH",
"1024 866 OFFCURVE",
"823 1073 OFFCURVE",
"568 1073 CURVE SMOOTH",
"311 1073 OFFCURVE",
"66 890 OFFCURVE",
"66 538 CURVE SMOOTH",
"66 166 OFFCURVE",
"301 -15 OFFCURVE",
"568 -15 CURVE SMOOTH"
);
},
{
closed = 1;
nodes = (
"1286 1563 LINE",
"882 1563 LINE",
"882 0 LINE",
"1286 0 LINE"
);
}
);
width = 1401;
},
{
anchors = (
{
name = bottom;
position = "{543, 17}";
},
{
name = center;
position = "{1229, 1298}";
},
{
name = top;
position = "{875, 1580}";
},
{
name = topright;
position = "{1489, 1062}";
}
);
layerId = "3FDD6C00-F7FD-4E85-84B0-0136AF7D7529";
paths = (
{
closed = 1;
nodes = (
"699 -15 OFFCURVE",
"948 210 OFFCURVE",
"1011 505 CURVE",
"871 515 LINE",
"843 382 OFFCURVE",
"726 314 OFFCURVE",
"630 314 CURVE SMOOTH",
"539 314 OFFCURVE",
"473 375 OFFCURVE",
"473 487 CURVE SMOOTH",
"473 642 OFFCURVE",
"574 757 OFFCURVE",
"724 757 CURVE SMOOTH",
"806 757 OFFCURVE",
"886 709 OFFCURVE",
"886 608 CURVE SMOOTH",
"886 593 OFFCURVE",
"882 564 OFFCURVE",
"878 548 CURVE",
"1020 548 LINE",
"1031 591 OFFCURVE",
"1039 654 OFFCURVE",
"1039 697 CURVE SMOOTH",
"1039 923 OFFCURVE",
"893 1073 OFFCURVE",
"676 1073 CURVE SMOOTH",
"322 1073 OFFCURVE",
"54 778 OFFCURVE",
"54 414 CURVE SMOOTH",
"54 130 OFFCURVE",
"205 -15 OFFCURVE",
"444 -15 CURVE SMOOTH"
);
},
{
closed = 1;
nodes = (
"1498 1563 LINE",
"1094 1563 LINE",
"761 0 LINE",
"1165 0 LINE"
);
}
);
width = 1409;
},
{
anchors = (
{
name = bottom;
position = "{447, 0}";
},
{
name = center;
position = "{1111, 1295}";
},
{
name = top;
position = "{779, 1563}";
},
{
name = topright;
position = "{1238, 1062}";
}
);
layerId = "2503C51C-5A6C-4B2C-A968-78FEA18C2585";
paths = (
{
closed = 1;
nodes = (
"687 -15 OFFCURVE",
"880 172 OFFCURVE",
"925 383 CURVE",
"896 383 LINE",
"854 186 OFFCURVE",
"663 13 OFFCURVE",
"427 13 CURVE SMOOTH",
"219 13 OFFCURVE",
"118 163 OFFCURVE",
"118 389 CURVE SMOOTH",
"118 739 OFFCURVE",
"306 1045 OFFCURVE",
"637 1045 CURVE SMOOTH",
"828 1045 OFFCURVE",
"965 910 OFFCURVE",
"965 742 CURVE SMOOTH",
"965 717 OFFCURVE",
"961 692 OFFCURVE",
"955 661 CURVE",
"984 657 LINE",
"984 659 OFFCURVE",
"995 702 OFFCURVE",
"995 747 CURVE SMOOTH",
"995 927 OFFCURVE",
"850 1073 OFFCURVE",
"638 1073 CURVE SMOOTH",
"288 1073 OFFCURVE",
"86 760 OFFCURVE",
"86 387 CURVE SMOOTH",
"86 145 OFFCURVE",
"199 -15 OFFCURVE",
"425 -15 CURVE SMOOTH"
);
},
{
closed = 1;
nodes = (
"1177 1563 LINE",
"1147 1563 LINE",
"814 0 LINE",
"844 0 LINE"
);
}
);
width = 1179;
}
);
leftKerningGroup = o;
leftMetricsKey = o;
note = d;
rightKerningGroup = l;
unicode = 0064;
},
{
glyphname = eth;
lastChange = "2020-04-22 00:47:43 +0000";
layers = (
{
components = (
{
name = o;
}
);
layerId = "A1A0948C-E637-4A65-8CCC-05505AD98C44";
paths = (
{
closed = 1;
nodes = (
"655 1339 LINE",
"876 1509 LINE",
"849 1530 LINE",
"628 1360 LINE"
);
},
{
closed = 1;
nodes = (
"1093 533 LINE",
"1093 1182 OFFCURVE",
"846 1446 OFFCURVE",
"520 1554 CURVE",
"492 1530 LINE",
"810 1437 OFFCURVE",
"1062 1173 OFFCURVE",
"1062 533 CURVE"
);
}
);
width = 1284;
},
{
components = (
{
name = o;
}
);
layerId = "584F9D0D-8480-40C6-ABEA-8DD6EE64252D";
paths = (
{
closed = 1;
nodes = (
"629 1103 LINE",
"1017 1468 LINE",
"802 1591 LINE",
"412 1222 LINE"
);
},
{
closed = 1;
nodes = (
"1278 530 LINE",
"1278 1179 OFFCURVE",
"938 1475 OFFCURVE",
"501 1576 CURVE",
"332 1394 LINE",
"672 1306 OFFCURVE",
"880 1173 OFFCURVE",
"882 530 CURVE"
);
}
);
width = 1393;
},
{
components = (
{
name = o;
}
);
layerId = "3FDD6C00-F7FD-4E85-84B0-0136AF7D7529";
paths = (
{
closed = 1;
nodes = (
"659 1103 LINE",
"1047 1468 LINE",
"832 1591 LINE",
"442 1222 LINE"
);
},
{
closed = 1;
nodes = (
"1286 627 LINE",
"1286 1192 OFFCURVE",
"968 1475 OFFCURVE",
"531 1576 CURVE",
"362 1394 LINE",
"702 1306 OFFCURVE",
"892 1172 OFFCURVE",
"892 643 CURVE"
);
}
);
width = 1411;
},
{
components = (
{
name = o;
}
);
layerId = "2503C51C-5A6C-4B2C-A968-78FEA18C2585";
paths = (
{
closed = 1;
nodes = (
"784 1339 LINE",
"1005 1509 LINE",
"978 1530 LINE",
"757 1360 LINE"
);
},
{
closed = 1;
nodes = (
"1105 653 LINE",
"1105 1150 OFFCURVE",
"931 1479 OFFCURVE",
"685 1554 CURVE",
"662 1531 LINE",
"907 1456 OFFCURVE",
"1074 1131 OFFCURVE",
"1074 649 CURVE"
);
}
);
width = 1318;
}
);
leftKerningGroup = o;
leftMetricsKey = o;
rightKerningGroup = d;
rightMetricsKey = d;
unicode = 00F0;
},
{
glyphname = dcroat;
lastChange = "2019-12-17 19:59:18 +0000";
layers = (
{
components = (
{
name = d;
transform = "{1, 0, 0, 1, -101, 0}";
}
);
layerId = "A1A0948C-E637-4A65-8CCC-05505AD98C44";
paths = (
{
closed = 1;
nodes = (
"1098 1362 LINE",
"1098 1388 LINE",
"610 1388 LINE",
"610 1362 LINE"
);
}
);
width = 1045;
},
{
components = (
{
name = d;
transform = "{1, 0, 0, 1, -101, 0}";
}
);
layerId = "584F9D0D-8480-40C6-ABEA-8DD6EE64252D";
paths = (
{
closed = 1;
nodes = (
"1312 1187 LINE",
"1312 1432 LINE",
"411 1432 LINE",
"411 1187 LINE"
);
}
);
width = 1243;
},
{
components = (
{
name = d;
transform = "{1, 0, 0, 1, -87, 0}";
}
);
layerId = "3FDD6C00-F7FD-4E85-84B0-0136AF7D7529";
paths = (
{
closed = 1;
nodes = (
"1493 1187 LINE",
"1548 1432 LINE",
"648 1432 LINE",
"592 1187 LINE"
);
}
);
width = 1243;
},
{
components = (
{
name = d;
transform = "{1, 0, 0, 1, -82, 0}";
}
);
layerId = "2503C51C-5A6C-4B2C-A968-78FEA18C2585";
paths = (
{
closed = 1;
nodes = (
"1265 1362 LINE",
"1267 1388 LINE",
"779 1388 LINE",
"776 1362 LINE"
);
}
);
width = 1045;
}
);
leftKerningGroup = o;
rightKerningGroup = l;
unicode = 0111;
},
{
glyphname = e;
lastChange = "2020-04-24 15:09:20 +0000";
layers = (
{
anchors = (
{
name = bottom;
position = "{579, -4}";
},
{
name = ogonek;
position = "{751, 22}";
},
{
name = top;
position = "{559, 1062}";
}
);
layerId = "A1A0948C-E637-4A65-8CCC-05505AD98C44";
paths = (
{
closed = 1;
nodes = (
"1058 512 LINE",
"1058 521 OFFCURVE",
"1058 535 OFFCURVE",
"1058 544 CURVE SMOOTH",
"1058 828 OFFCURVE",
"873 1073 OFFCURVE",
"584 1073 CURVE SMOOTH",
"296 1073 OFFCURVE",
"79 847 OFFCURVE",
"79 527 CURVE SMOOTH",
"79 207 OFFCURVE",
"297 -15 OFFCURVE",
"583 -15 CURVE SMOOTH",
"882 -15 OFFCURVE",
"1031 202 OFFCURVE",
"1042 332 CURVE",
"1011 332 LINE",
"999 220 OFFCURVE",
"867 13 OFFCURVE",
"583 13 CURVE SMOOTH",
"314 13 OFFCURVE",
"110 234 OFFCURVE",
"110 527 CURVE SMOOTH",
"110 813 OFFCURVE",
"308 1045 OFFCURVE",
"584 1045 CURVE SMOOTH",
"855 1045 OFFCURVE",
"1027 806 OFFCURVE",
"1027 554 CURVE SMOOTH",
"1027 548 OFFCURVE",
"1027 546 OFFCURVE",
"1027 538 CURVE",
"1040 542 LINE",
"102 542 LINE",
"102 512 LINE"
);
}
);
width = 1210;
},
{
anchors = (
{
name = bottom;
position = "{677, 0}";
},
{
name = ogonek;
position = "{896, 22}";
},
{
name = top;
position = "{675, 1062}";
}
);
layerId = "584F9D0D-8480-40C6-ABEA-8DD6EE64252D";
paths = (
{
closed = 1;
nodes = (
"1280 421 LINE",
"1282 438 OFFCURVE",
"1284 466 OFFCURVE",
"1284 506 CURVE SMOOTH",
"1284 861 OFFCURVE",
"1051 1073 OFFCURVE",
"675 1073 CURVE SMOOTH",
"310 1073 OFFCURVE",
"66 863 OFFCURVE",
"66 529 CURVE SMOOTH",
"66 202 OFFCURVE",
"300 -15 OFFCURVE",
"675 -15 CURVE SMOOTH",
"1036 -15 OFFCURVE",
"1250 148 OFFCURVE",
"1270 336 CURVE",
"872 336 LINE",
"860 295 OFFCURVE",
"795 262 OFFCURVE",
"696 262 CURVE SMOOTH",
"504 262 OFFCURVE",
"455 362 OFFCURVE",
"455 539 CURVE SMOOTH",
"455 707 OFFCURVE",
"537 800 OFFCURVE",
"680 800 CURVE SMOOTH",
"817 800 OFFCURVE",
"879 711 OFFCURVE",
"879 643 CURVE SMOOTH",
"879 633 OFFCURVE",
"880 619 OFFCURVE",
"880 609 CURVE",
"909 661 LINE",
"363 661 LINE",
"363 421 LINE"
);
}
);
width = 1362;
},
{
anchors = (
{
name = bottom;
position = "{542, 0}";
},
{
name = ogonek;
position = "{754, 22}";
},
{
name = top;
position = "{767, 1062}";
}
);
layerId = "3FDD6C00-F7FD-4E85-84B0-0136AF7D7529";
paths = (
{
closed = 1;
nodes = (
"1250 421 LINE",
"1270 477 OFFCURVE",
"1287 575 OFFCURVE",
"1287 641 CURVE SMOOTH",
"1287 914 OFFCURVE",
"1081 1073 OFFCURVE",
"764 1073 CURVE SMOOTH",
"363 1073 OFFCURVE",
"57 818 OFFCURVE",
"57 427 CURVE SMOOTH",
"57 158 OFFCURVE",
"229 -15 OFFCURVE",
"572 -15 CURVE SMOOTH",
"943 -15 OFFCURVE",
"1162 148 OFFCURVE",
"1222 336 CURVE",
"824 336 LINE",
"803 295 OFFCURVE",
"731 262 OFFCURVE",
"632 262 CURVE SMOOTH",
"482 262 OFFCURVE",
"442 315 OFFCURVE",
"442 415 CURVE SMOOTH",
"442 623 OFFCURVE",
"538 800 OFFCURVE",
"731 800 CURVE SMOOTH",
"851 800 OFFCURVE",
"899 732 OFFCURVE",
"899 669 CURVE SMOOTH",
"899 659 OFFCURVE",
"894 629 OFFCURVE",
"890 609 CURVE",
"930 661 LINE",
"384 661 LINE",
"333 421 LINE"
);
}
);
width = 1353;
},
{
anchors = (
{
name = bottom;
position = "{466, 0}";
},
{
name = ogonek;
position = "{661, 22}";
},
{
name = top;
position = "{691, 1062}";
}
);
layerId = "2503C51C-5A6C-4B2C-A968-78FEA18C2585";
paths = (
{
closed = 1;
nodes = (
"1065 512 LINE",
"1077 564 OFFCURVE",
"1083 613 OFFCURVE",
"1083 664 CURVE SMOOTH",
"1083 894 OFFCURVE",
"954 1073 OFFCURVE",
"707 1073 CURVE SMOOTH",
"360 1073 OFFCURVE",
"85 771 OFFCURVE",
"85 410 CURVE SMOOTH",
"85 163 OFFCURVE",
"225 -15 OFFCURVE",
"482 -15 CURVE SMOOTH",
"781 -15 OFFCURVE",
"972 202 OFFCURVE",
"1011 332 CURVE",
"980 332 LINE",
"944 220 OFFCURVE",
"765 13 OFFCURVE",
"484 13 CURVE SMOOTH",
"233 13 OFFCURVE",
"116 190 OFFCURVE",
"116 416 CURVE SMOOTH",
"116 752 OFFCURVE",
"378 1045 OFFCURVE",
"705 1045 CURVE SMOOTH",
"939 1045 OFFCURVE",
"1052 869 OFFCURVE",
"1052 661 CURVE SMOOTH",
"1052 632 OFFCURVE",
"1046 566 OFFCURVE",
"1039 538 CURVE",
"1054 542 LINE",
"116 542 LINE",
"109 512 LINE"
);
}
);
width = 1217;
}
);
leftKerningGroup = o;
leftMetricsKey = o;
note = e;
rightKerningGroup = o;
rightMetricsKey = o;
unicode = 0065;
},
{
glyphname = f;
lastChange = "2020-04-11 13:55:48 +0000";
layers = (
{
anchors = (
{
name = bottom;
position = "{409, 0}";
},
{
name = top;
position = "{409, 1563}";
}
);
layerId = "A1A0948C-E637-4A65-8CCC-05505AD98C44";
paths = (
{
closed = 1;
nodes = (
"344 0 LINE",
"344 1034 LINE",
"648 1034 LINE",
"648 1062 LINE",
"344 1062 LINE",
"344 1230 LINE SMOOTH",
"344 1373 OFFCURVE",
"371 1549 OFFCURVE",
"579 1549 CURVE SMOOTH",
"618 1549 OFFCURVE",
"655 1542 OFFCURVE",
"672 1536 CURVE",
"672 1564 LINE",
"658 1570 OFFCURVE",
"622 1577 OFFCURVE",
"579 1577 CURVE SMOOTH",
"331 1577 OFFCURVE",
"313 1356 OFFCURVE",
"313 1230 CURVE SMOOTH",
"313 1062 LINE",
"60 1062 LINE",
"60 1034 LINE",
"313 1034 LINE",
"313 0 LINE"
);
}
);
width = 817;
},
{
anchors = (
{
name = bottom;
position = "{475, 0}";
},
{
name = top;
position = "{475, 1563}";
}
);
layerId = "584F9D0D-8480-40C6-ABEA-8DD6EE64252D";
paths = (
{
closed = 1;
nodes = (
"648 0 LINE",
"648 762 LINE",
"887 762 LINE",
"887 1062 LINE",
"648 1062 LINE",
"648 1089 LINE SMOOTH",
"648 1204 OFFCURVE",
"694 1267 OFFCURVE",
"831 1267 CURVE SMOOTH",
"880 1267 OFFCURVE",
"928 1257 OFFCURVE",
"944 1252 CURVE",
"944 1553 LINE",
"928 1558 OFFCURVE",
"878 1567 OFFCURVE",
"824 1567 CURVE SMOOTH",
"591 1567 OFFCURVE",
"246 1519 OFFCURVE",
"246 1093 CURVE SMOOTH",
"246 1062 LINE",
"22 1062 LINE",
"22 762 LINE",
"246 762 LINE",
"246 0 LINE"
);
}
);
width = 980;
},
{
anchors = (
{
name = bottom;
position = "{337, 0}";
},
{
name = top;
position = "{699, 1563}";
}
);
layerId = "3FDD6C00-F7FD-4E85-84B0-0136AF7D7529";
paths = (
{
closed = 1;
nodes = (
"537 0 LINE",
"699 762 LINE",
"938 762 LINE",
"1002 1062 LINE",
"763 1062 LINE",
"769 1089 LINE SMOOTH",
"795 1204 OFFCURVE",
"853 1267 OFFCURVE",
"990 1267 CURVE SMOOTH",
"1039 1267 OFFCURVE",
"1085 1257 OFFCURVE",
"1100 1252 CURVE",
"1164 1553 LINE",
"1149 1558 OFFCURVE",
"1081 1567 OFFCURVE",
"1027 1567 CURVE SMOOTH",
"794 1567 OFFCURVE",
"464 1518 OFFCURVE",
"368 1093 CURVE SMOOTH",
"361 1062 LINE",
"137 1062 LINE",
"73 762 LINE",
"297 762 LINE",
"135 0 LINE"
);
}
);
width = 991;
},
{
anchors = (
{
name = bottom;
position = "{211, 0}";
},
{
name = top;
position = "{623.358, 1563}";
}
);
layerId = "2503C51C-5A6C-4B2C-A968-78FEA18C2585";
paths = (
{
closed = 1;
nodes = (
"228 0 LINE",
"449 1034 LINE",
"747 1034 LINE",
"753 1062 LINE",
"454 1062 LINE",
"490 1230 LINE SMOOTH",
"524 1389 OFFCURVE",
"600 1549 OFFCURVE",
"790 1549 CURVE SMOOTH",
"828 1549 OFFCURVE",
"862 1542 OFFCURVE",
"878 1536 CURVE",
"883 1564 LINE",
"870 1570 OFFCURVE",
"837 1577 OFFCURVE",
"795 1577 CURVE SMOOTH",
"576 1577 OFFCURVE",
"496 1403 OFFCURVE",
"459 1230 CURVE SMOOTH",
"423 1062 LINE",
"174 1062 LINE",
"169 1034 LINE",
"417 1034 LINE",
"197 0 LINE"
);
}
);
width = 817;
}
);
leftKerningGroup = f;
leftMetricsKey = t;
note = f;
rightKerningGroup = f;
unicode = 0066;
},
{
glyphname = g;
lastChange = "2020-04-24 15:08:59 +0000";
layers = (
{
anchors = (
{
name = bottom;
position = "{537, -437}";
},
{
name = top;
position = "{537, 1062}";
}
);
layerId = "A1A0948C-E637-4A65-8CCC-05505AD98C44";
paths = (
{
closed = 1;
nodes = (
"348 34 LINE SMOOTH",
"221 43 OFFCURVE",
"170 78 OFFCURVE",
"170 140 CURVE SMOOTH",
"170 211 OFFCURVE",
"239 242 OFFCURVE",
"282 251 CURVE",
"259 275 LINE",
"213 266 OFFCURVE",
"139 221 OFFCURVE",
"139 140 CURVE SMOOTH",
"139 54 OFFCURVE",
"215 14 OFFCURVE",
"338 5 CURVE SMOOTH",
"744 -24 LINE SMOOTH",
"879 -34 OFFCURVE",
"978 -78 OFFCURVE",
"978 -191 CURVE SMOOTH",
"978 -303 OFFCURVE",
"854 -419 OFFCURVE",
"534 -419 CURVE SMOOTH",
"257 -419 OFFCURVE",
"109 -327 OFFCURVE",
"109 -185 CURVE SMOOTH",
"109 -133 OFFCURVE",
"124 -92 OFFCURVE",
"138 -71 CURVE",
"109 -64 LINE",
"94 -88 OFFCURVE",
"78 -129 OFFCURVE",
"78 -187 CURVE SMOOTH",
"78 -333 OFFCURVE",
"215 -447 OFFCURVE",
"527 -447 CURVE SMOOTH",
"873 -447 OFFCURVE",
"1009 -327 OFFCURVE",
"1009 -191 CURVE SMOOTH",
"1009 -63 OFFCURVE",
"901 -6 OFFCURVE",
"754 5 CURVE SMOOTH"
);
},
{
closed = 1;
nodes = (
"931 782 LINE",
"939 774 LINE",
"918 896 OFFCURVE",
"791 1073 OFFCURVE",
"534 1073 CURVE SMOOTH",
"272 1073 OFFCURVE",
"100 872 OFFCURVE",
"100 616 CURVE SMOOTH",
"100 342 OFFCURVE",
"252 161 OFFCURVE",
"531 161 CURVE SMOOTH",
"801 161 OFFCURVE",
"962 336 OFFCURVE",
"962 614 CURVE SMOOTH",
"962 1062 LINE",
"931 1062 LINE"
);
},
{
closed = 1;
nodes = (
"276 189 OFFCURVE",
"131 362 OFFCURVE",
"131 616 CURVE SMOOTH",
"131 843 OFFCURVE",
"293 1045 OFFCURVE",
"533 1045 CURVE SMOOTH",
"785 1045 OFFCURVE",
"931 849 OFFCURVE",
"931 620 CURVE SMOOTH",
"931 358 OFFCURVE",
"787 189 OFFCURVE",
"531 189 CURVE SMOOTH"
);
}
);
width = 1113;
},
{
anchors = (
{
name = bottom;
position = "{645, -437}";
},
{
name = top;
position = "{645, 1062}";
}
);
layerId = "584F9D0D-8480-40C6-ABEA-8DD6EE64252D";
paths = (
{
closed = 1;
nodes = (
"521 208 LINE SMOOTH",
"427 218 OFFCURVE",
"396 242 OFFCURVE",
"396 272 CURVE SMOOTH",
"396 298 OFFCURVE",
"426 320 OFFCURVE",
"446 323 CURVE",
"272 416 LINE",
"216 398 OFFCURVE",
"81 308 OFFCURVE",
"81 186 CURVE SMOOTH",
"81 54 OFFCURVE",
"200 -10 OFFCURVE",
"357 -30 CURVE SMOOTH",
"758 -80 LINE SMOOTH",
"814 -87 OFFCURVE",
"872 -100 OFFCURVE",
"872 -142 CURVE SMOOTH",
"872 -189 OFFCURVE",
"773 -220 OFFCURVE",
"642 -220 CURVE SMOOTH",
"511 -220 OFFCURVE",
"400 -190 OFFCURVE",
"400 -143 CURVE SMOOTH",
"400 -121 OFFCURVE",
"407 -108 OFFCURVE",
"411 -103 CURVE",
"50 -51 LINE",
"31 -80 OFFCURVE",
"20 -120 OFFCURVE",
"20 -165 CURVE SMOOTH",
"20 -345 OFFCURVE",
"252 -463 OFFCURVE",
"633 -463 CURVE SMOOTH",
"1011 -463 OFFCURVE",
"1246 -345 OFFCURVE",
"1246 -117 CURVE SMOOTH",
"1246 78 OFFCURVE",
"1106 148 OFFCURVE",
"894 170 CURVE SMOOTH"
);
},
{
closed = 1;
nodes = (
"950 820 LINE",
"1002 842 LINE",
"1002 957 OFFCURVE",
"860 1075 OFFCURVE",
"610 1075 CURVE SMOOTH",
"314 1075 OFFCURVE",
"85 932 OFFCURVE",
"85 679 CURVE SMOOTH",
"85 424 OFFCURVE",
"325 270 OFFCURVE",
"644 270 CURVE SMOOTH",
"955 270 OFFCURVE",
"1098 429 OFFCURVE",
"1179 660 CURVE SMOOTH",
"1320 1062 LINE",
"961 1062 LINE"
);
},
{
closed = 1;
nodes = (
"551 548 OFFCURVE",
"479 590 OFFCURVE",
"479 671 CURVE SMOOTH",
"479 754 OFFCURVE",
"552 797 OFFCURVE",
"642 797 CURVE SMOOTH",
"733 797 OFFCURVE",
"804 754 OFFCURVE",
"804 673 CURVE SMOOTH",
"804 592 OFFCURVE",
"734 548 OFFCURVE",
"642 548 CURVE SMOOTH"
);
}
);
width = 1340;
},
{
anchors = (
{
name = bottom;
position = "{413, -437}";
},
{
name = top;
position = "{752, 1062}";
}
);
layerId = "3FDD6C00-F7FD-4E85-84B0-0136AF7D7529";
paths = (
{
closed = 1;
nodes = (
"452 208 LINE SMOOTH",
"360 218 OFFCURVE",
"351 239 OFFCURVE",
"351 258 CURVE SMOOTH",
"351 294 OFFCURVE",
"391 320 OFFCURVE",
"412 323 CURVE",
"257 416 LINE",
"198 398 OFFCURVE",
"23 323 OFFCURVE",
"23 155 CURVE SMOOTH",
"23 53 OFFCURVE",
"119 -11 OFFCURVE",
"271 -31 CURVE SMOOTH",
"638 -80 LINE SMOOTH",
"688 -87 OFFCURVE",
"740 -98 OFFCURVE",
"740 -133 CURVE SMOOTH",
"740 -197 OFFCURVE",
"594 -220 OFFCURVE",
"492 -220 CURVE SMOOTH",
"361 -220 OFFCURVE",
"276 -189 OFFCURVE",
"276 -139 CURVE SMOOTH",
"276 -118 OFFCURVE",
"282 -108 OFFCURVE",
"285 -103 CURVE",
"-64 -51 LINE",
"-97 -90 OFFCURVE",
"-122 -153 OFFCURVE",
"-122 -203 CURVE SMOOTH",
"-122 -362 OFFCURVE",
"99 -463 OFFCURVE",
"452 -463 CURVE SMOOTH",
"801 -463 OFFCURVE",
"1123 -357 OFFCURVE",
"1123 -60 CURVE SMOOTH",
"1123 92 OFFCURVE",
"1002 151 OFFCURVE",
"817 170 CURVE SMOOTH"
);
},
{
closed = 1;
nodes = (
"1021 820 LINE",
"1078 842 LINE",
"1078 998 OFFCURVE",
"908 1075 OFFCURVE",
"713 1075 CURVE SMOOTH",
"403 1075 OFFCURVE",
"124 921 OFFCURVE",
"124 629 CURVE SMOOTH",
"124 408 OFFCURVE",
"309 270 OFFCURVE",
"610 270 CURVE SMOOTH",
"921 270 OFFCURVE",
"1086 429 OFFCURVE",
"1216 660 CURVE SMOOTH",
"1443 1062 LINE",
"1074 1062 LINE"
);
},
{
closed = 1;
nodes = (
"575 548 OFFCURVE",
"518 583 OFFCURVE",
"518 655 CURVE SMOOTH",
"518 748 OFFCURVE",
"612 797 OFFCURVE",
"708 797 CURVE SMOOTH",
"791 797 OFFCURVE",
"845 762 OFFCURVE",
"845 693 CURVE SMOOTH",
"845 599 OFFCURVE",
"759 548 OFFCURVE",
"660 548 CURVE SMOOTH"
);
}
);
width = 1340;
},
{
anchors = (
{
name = bottom;
position = "{323, -437}";
},
{
name = top;
position = "{642, 1062}";
}
);
layerId = "2503C51C-5A6C-4B2C-A968-78FEA18C2585";
paths = (
{
closed = 1;
nodes = (
"242 34 LINE SMOOTH",
"117 43 OFFCURVE",
"76 72 OFFCURVE",
"76 124 CURVE SMOOTH",
"76 211 OFFCURVE",
"177 242 OFFCURVE",
"222 251 CURVE",
"204 275 LINE",
"156 266 OFFCURVE",
"45 221 OFFCURVE",
"45 124 CURVE SMOOTH",
"45 47 OFFCURVE",
"104 14 OFFCURVE",
"226 5 CURVE SMOOTH",
"625 -24 LINE SMOOTH",
"744 -33 OFFCURVE",
"828 -69 OFFCURVE",
"828 -156 CURVE SMOOTH",
"828 -332 OFFCURVE",
"582 -419 OFFCURVE",
"331 -419 CURVE SMOOTH",
"54 -419 OFFCURVE",
"-44 -328 OFFCURVE",
"-44 -205 CURVE SMOOTH",
"-44 -132 OFFCURVE",
"-9 -89 OFFCURVE",
"9 -71 CURVE",
"-18 -64 LINE",
"-38 -85 OFFCURVE",
"-75 -128 OFFCURVE",
"-75 -207 CURVE SMOOTH",
"-75 -334 OFFCURVE",
"13 -447 OFFCURVE",
"325 -447 CURVE SMOOTH",
"600 -447 OFFCURVE",
"859 -357 OFFCURVE",
"859 -151 CURVE SMOOTH",
"859 -51 OFFCURVE",
"766 -5 OFFCURVE",
"638 5 CURVE SMOOTH"
);
},
{
closed = 1;
nodes = (
"984 782 LINE",
"988 769 LINE",
"993 891 OFFCURVE",
"900 1073 OFFCURVE",
"643 1073 CURVE SMOOTH",
"334 1073 OFFCURVE",
"113 835 OFFCURVE",
"113 513 CURVE SMOOTH",
"113 312 OFFCURVE",
"212 161 OFFCURVE",
"458 161 CURVE SMOOTH",
"730 161 OFFCURVE",
"920 335 OFFCURVE",
"979 614 CURVE SMOOTH",
"1074 1062 LINE",
"1043 1062 LINE"
);
},
{
closed = 1;
nodes = (
"229 189 OFFCURVE",
"145 333 OFFCURVE",
"145 521 CURVE SMOOTH",
"145 813 OFFCURVE",
"358 1045 OFFCURVE",
"642 1045 CURVE SMOOTH",
"854 1045 OFFCURVE",
"961 907 OFFCURVE",
"961 728 CURVE SMOOTH",
"961 435 OFFCURVE",
"753 189 OFFCURVE",
"458 189 CURVE SMOOTH"
);
}
);
width = 1113;
}
);
leftKerningGroup = g;
note = g;
rightKerningGroup = g;
unicode = 0067;
},
{
glyphname = g.ss01;
lastChange = "2020-04-21 00:43:03 +0000";
layers = (
{
anchors = (
{
name = bottom;
position = "{505, -437}";
},
{
name = top;
position = "{505, 1062}";
}
);
components = (
{
name = a.ss01;
}
);
layerId = "A1A0948C-E637-4A65-8CCC-05505AD98C44";
paths = (
{
closed = 1;
nodes = (
"922 0 LINE",
"922 -318 OFFCURVE",
"736 -419 OFFCURVE",
"529 -419 CURVE SMOOTH",
"322 -419 OFFCURVE",
"137 -314 OFFCURVE",
"137 -104 CURVE",
"137 -102 OFFCURVE",
"137 -99 OFFCURVE",
"137 -97 CURVE",
"106 -97 LINE",
"106 -99 OFFCURVE",
"106 -102 OFFCURVE",
"106 -104 CURVE",
"106 -344 OFFCURVE",
"312 -447 OFFCURVE",
"529 -447 CURVE SMOOTH",
"746 -447 OFFCURVE",
"953 -340 OFFCURVE",
"953 0 CURVE"
);
}
);
width = 1157;
},
{
anchors = (
{
name = bottom;
position = "{664, -437}";
},
{
name = top;
position = "{664, 1062}";
}
);
components = (
{
name = a.ss01;
}
);
layerId = "584F9D0D-8480-40C6-ABEA-8DD6EE64252D";
paths = (
{
closed = 1;
nodes = (
"892 0 LINE",
"892 -115 OFFCURVE",
"830 -180 OFFCURVE",
"696 -180 CURVE SMOOTH",
"582 -180 OFFCURVE",
"515 -132 OFFCURVE",
"515 -85 CURVE",
"515 -80 OFFCURVE",
"515 -76 OFFCURVE",
"515 -71 CURVE",
"112 -71 LINE",
"112 -76 OFFCURVE",
"112 -80 OFFCURVE",
"112 -85 CURVE",
"112 -364 OFFCURVE",
"398 -457 OFFCURVE",
"687 -457 CURVE SMOOTH",
"976 -457 OFFCURVE",
"1295 -359 OFFCURVE",
"1295 0 CURVE"
);
}
);
width = 1439;
},
{
anchors = (
{
name = bottom;
position = "{451, -437}";
},
{
name = top;
position = "{770, 1062}";
}
);
components = (
{
name = a.ss01;
}
);
layerId = "3FDD6C00-F7FD-4E85-84B0-0136AF7D7529";
paths = (
{
closed = 1;
nodes = (
"775 0 LINE",
"750 -115 OFFCURVE",
"674 -180 OFFCURVE",
"540 -180 CURVE SMOOTH",
"435 -180 OFFCURVE",
"379 -139 OFFCURVE",
"379 -96 CURVE SMOOTH",
"379 -86 OFFCURVE",
"381 -76 OFFCURVE",
"382 -71 CURVE",
"-21 -71 LINE",
"-26 -94 OFFCURVE",
"-31 -122 OFFCURVE",
"-31 -157 CURVE SMOOTH",
"-31 -380 OFFCURVE",
"228 -457 OFFCURVE",
"491 -457 CURVE SMOOTH",
"780 -457 OFFCURVE",
"1101 -359 OFFCURVE",
"1178 0 CURVE"
);
}
);
width = 1444;
},
{
anchors = (
{
name = bottom;
position = "{317, -437}";
},
{
name = top;
position = "{636, 1062}";
}
);
components = (
{
name = a.ss01;
}
);
layerId = "2503C51C-5A6C-4B2C-A968-78FEA18C2585";
paths = (
{
closed = 1;
nodes = (
"825 0 LINE",
"757 -318 OFFCURVE",
"549 -419 OFFCURVE",
"342 -419 CURVE SMOOTH",
"158 -419 OFFCURVE",
"10 -336 OFFCURVE",
"10 -170 CURVE SMOOTH",
"10 -133 OFFCURVE",
"16 -106 OFFCURVE",
"19 -97 CURVE",
"-12 -97 LINE",
"-15 -105 OFFCURVE",
"-22 -134 OFFCURVE",
"-22 -177 CURVE SMOOTH",
"-22 -365 OFFCURVE",
"155 -447 OFFCURVE",
"349 -447 CURVE SMOOTH",
"566 -447 OFFCURVE",
"783 -340 OFFCURVE",
"856 0 CURVE"
);
}
);
width = 1186;
}
);
leftKerningGroup = o;
leftMetricsKey = a;
rightKerningGroup = g;
rightMetricsKey = u;
},
{
glyphname = h;
lastChange = "2020-04-11 13:54:45 +0000";
layers = (
{
anchors = (
{
name = bottom;
position = "{556, 0}";
},
{
name = center;
position = "{146, 1295}";
},
{
name = top;
position = "{147, 1542}";
}
);
layerId = "A1A0948C-E637-4A65-8CCC-05505AD98C44";
paths = (
{
closed = 1;
nodes = (
"905 0 LINE",
"905 400 LINE SMOOTH",
"905 476 OFFCURVE",
"905 569 OFFCURVE",
"905 641 CURVE SMOOTH",
"905 911 OFFCURVE",
"818 1073 OFFCURVE",
"567 1073 CURVE SMOOTH",
"306 1073 OFFCURVE",
"133 887 OFFCURVE",
"133 699 CURVE",
"163 693 LINE",
"163 870 OFFCURVE",
"339 1045 OFFCURVE",
"566 1045 CURVE SMOOTH",
"788 1045 OFFCURVE",
"875 897 OFFCURVE",
"875 652 CURVE SMOOTH",
"875 582 OFFCURVE",
"875 481 OFFCURVE",
"875 413 CURVE SMOOTH",
"875 0 LINE"
);
},
{
closed = 1;
nodes = (
"163 0 LINE",
"163 1563 LINE",
"133 1563 LINE",
"133 0 LINE"
);
}
);
width = 1111;
},
{
anchors = (
{
name = bottom;
position = "{653, 0}";
},
{
name = center;
position = "{297, 1298}";
},
{
name = top;
position = "{302, 1563}";
}
);
layerId = "584F9D0D-8480-40C6-ABEA-8DD6EE64252D";
paths = (
{
closed = 1;
nodes = (
"1216 0 LINE",
"1216 340 LINE",
"1216 485 OFFCURVE",
"1216 583 OFFCURVE",
"1216 651 CURVE",
"1216 924 OFFCURVE",
"1103 1073 OFFCURVE",
"840 1073 CURVE SMOOTH",
"574 1073 OFFCURVE",
"419 903 OFFCURVE",
"419 612 CURVE",
"497 532 LINE",
"497 670 OFFCURVE",
"545 751 OFFCURVE",
"664 751 CURVE SMOOTH",
"786 751 OFFCURVE",
"813 667 OFFCURVE",
"813 532 CURVE",
"813 496 OFFCURVE",
"813 397 OFFCURVE",
"813 366 CURVE",
"813 0 LINE"
);
},
{
closed = 1;
nodes = (
"497 0 LINE",
"497 1563 LINE",
"94 1563 LINE",
"94 0 LINE"
);
}
);
width = 1306;
},
{
anchors = (
{
name = bottom;
position = "{535.132, 0}";
},
{
name = center;
position = "{447, 1298}";
},
{
name = top;
position = "{515, 1563}";
}
);
layerId = "3FDD6C00-F7FD-4E85-84B0-0136AF7D7529";
paths = (
{
closed = 1;
nodes = (
"1100 0 LINE",
"1206 497 LINE",
"1237 642 OFFCURVE",
"1257 740 OFFCURVE",
"1257 808 CURVE SMOOTH",
"1257 921 OFFCURVE",
"1216 1073 OFFCURVE",
"952 1073 CURVE SMOOTH",
"686 1073 OFFCURVE",
"495 903 OFFCURVE",
"433 612 CURVE",
"493 532 LINE",
"522 670 OFFCURVE",
"588 751 OFFCURVE",
"707 751 CURVE SMOOTH",
"800 751 OFFCURVE",
"823 702 OFFCURVE",
"823 641 CURVE SMOOTH",
"823 605 OFFCURVE",
"804 506 OFFCURVE",
"797 475 CURVE",
"697 0 LINE"
);
},
{
closed = 1;
nodes = (
"381 0 LINE",
"713 1563 LINE",
"310 1563 LINE",
"-22 0 LINE"
);
}
);
width = 1306;
},
{
anchors = (
{
name = bottom;
position = "{438.132, 0}";
},
{
name = center;
position = "{307, 1295}";
},
{
name = top;
position = "{361, 1546}";
}
);
layerId = "2503C51C-5A6C-4B2C-A968-78FEA18C2585";
paths = (
{
closed = 1;
nodes = (
"789 0 LINE",
"910 572 LINE",
"926 648 OFFCURVE",
"945 740 OFFCURVE",
"945 812 CURVE SMOOTH",
"945 893 OFFCURVE",
"938 1073 OFFCURVE",
"679 1073 CURVE SMOOTH",
"418 1073 OFFCURVE",
"206 887 OFFCURVE",
"166 699 CURVE",
"194 693 LINE",
"232 870 OFFCURVE",
"450 1045 OFFCURVE",
"677 1045 CURVE SMOOTH",
"900 1045 OFFCURVE",
"913 888 OFFCURVE",
"913 812 CURVE SMOOTH",
"913 742 OFFCURVE",
"895 642 OFFCURVE",
"881 573 CURVE",
"759 0 LINE"
);
},
{
closed = 1;
nodes = (
"47 0 LINE",
"379 1563 LINE",
"349 1563 LINE",
"17 0 LINE"
);
}
);
width = 1111;
}
);
leftKerningGroup = h;
note = h;
rightKerningGroup = n;
unicode = 0068;
},
{
glyphname = hbar;
lastChange = "2020-01-24 19:59:32 +0000";
layers = (
{
components = (
{
name = h;
}
);
layerId = "A1A0948C-E637-4A65-8CCC-05505AD98C44";
paths = (
{
closed = 1;
nodes = (
"425 1362 LINE",
"425 1388 LINE",
"-66 1388 LINE",
"-66 1362 LINE"
);
}
);
width = 1111;
},
{
components = (
{
name = h;
}
);
layerId = "584F9D0D-8480-40C6-ABEA-8DD6EE64252D";
paths = (
{
closed = 1;
nodes = (
"877 1187 LINE",
"877 1432 LINE",
"-24 1432 LINE",
"-24 1187 LINE"
);
}
);
width = 1306;
},
{
components = (
{
name = h;
}
);
layerId = "3FDD6C00-F7FD-4E85-84B0-0136AF7D7529";
paths = (
{
closed = 1;
nodes = (
"1024 1187 LINE",
"1069 1432 LINE",
"168 1432 LINE",
"122 1187 LINE"
);
}
);
width = 1306;
},
{
components = (
{
name = h;
}
);
layerId = "2503C51C-5A6C-4B2C-A968-78FEA18C2585";
paths = (
{
closed = 1;
nodes = (
"595 1362 LINE",
"601 1388 LINE",
"110 1388 LINE",
"105 1362 LINE"
);
}
);
width = 1111;
}
);
leftKerningGroup = h;
rightKerningGroup = n;
unicode = 0127;
},
{
glyphname = i;
lastChange = "2020-04-24 14:57:56 +0000";
layers = (
{
anchors = (
{
name = bottom;
position = "{181, 0}";
}
);
layerId = "A1A0948C-E637-4A65-8CCC-05505AD98C44";
paths = (
{
closed = 1;
nodes = (
"197 0 LINE",
"197 1062 LINE",
"167 1062 LINE",
"167 0 LINE"
);
},
{
closed = 1;
nodes = (
"209 1377 OFFCURVE",
"232 1400 OFFCURVE",
"232 1429 CURVE SMOOTH",
"232 1457 OFFCURVE",
"209 1480 OFFCURVE",
"181 1480 CURVE SMOOTH",
"152 1480 OFFCURVE",
"129 1457 OFFCURVE",
"129 1429 CURVE SMOOTH",
"129 1400 OFFCURVE",
"152 1377 OFFCURVE",
"181 1377 CURVE SMOOTH"
);
}
);
width = 435;
},
{
anchors = (
{
name = bottom;
position = "{366, 0}";
}
);
layerId = "584F9D0D-8480-40C6-ABEA-8DD6EE64252D";
paths = (
{
closed = 1;
nodes = (
"568 0 LINE",
"568 1062 LINE",
"169 1062 LINE",
"169 0 LINE"
);
},
{
closed = 1;
nodes = (
"495 1154 OFFCURVE",
"606 1222 OFFCURVE",
"606 1344 CURVE SMOOTH",
"606 1467 OFFCURVE",
"495 1534 OFFCURVE",
"368 1534 CURVE SMOOTH",
"240 1534 OFFCURVE",
"130 1467 OFFCURVE",
"130 1344 CURVE SMOOTH",
"130 1222 OFFCURVE",
"240 1154 OFFCURVE",
"368 1154 CURVE SMOOTH"
);
}
);
width = 747;
},
{
anchors = (
{
name = bottom;
position = "{242, 0}";
}
);
layerId = "3FDD6C00-F7FD-4E85-84B0-0136AF7D7529";
paths = (
{
closed = 1;
nodes = (
"443 0 LINE",
"668 1062 LINE",
"267 1062 LINE",
"42 0 LINE"
);
},
{
closed = 1;
nodes = (
"633 1154 OFFCURVE",
"773 1234 OFFCURVE",
"773 1375 CURVE SMOOTH",
"773 1478 OFFCURVE",
"689 1534 OFFCURVE",
"573 1534 CURVE SMOOTH",
"428 1534 OFFCURVE",
"292 1450 OFFCURVE",
"292 1311 CURVE SMOOTH",
"292 1210 OFFCURVE",
"377.005 1154 OFFCURVE",
"493 1154 CURVE SMOOTH"
);
}
);
width = 747;
},
{
anchors = (
{
name = bottom;
position = "{54, 0}";
}
);
layerId = "2503C51C-5A6C-4B2C-A968-78FEA18C2585";
paths = (
{
closed = 1;
nodes = (
"69 0 LINE",
"294 1062 LINE",
"264 1062 LINE",
"39 0 LINE"
);
},
{
closed = 1;
nodes = (
"381 1377 OFFCURVE",
"410 1404 OFFCURVE",
"410 1439 CURVE SMOOTH",
"410 1462 OFFCURVE",
"392 1480 OFFCURVE",
"367 1480 CURVE SMOOTH",
"337 1480 OFFCURVE",
"305 1457 OFFCURVE",
"305 1417 CURVE SMOOTH",
"305 1394 OFFCURVE",
"324 1377 OFFCURVE",
"349 1377 CURVE SMOOTH"
);
}
);
width = 435;
}
);
leftKerningGroup = i;
note = i;
rightKerningGroup = i;
unicode = 0069;
},
{
glyphname = idotless;
lastChange = "2020-04-10 19:19:06 +0000";
layers = (
{
anchors = (
{
name = bottom;
position = "{199, 0}";
},
{
name = ogonek;
position = "{215, 0}";
},
{
name = top;
position = "{199, 1062}";
}
);
layerId = "A1A0948C-E637-4A65-8CCC-05505AD98C44";
paths = (
{
closed = 1;
nodes = (
"214 0 LINE",
"214 1062 LINE",
"184 1062 LINE",
"184 0 LINE"
);
}
);
width = 459;
},
{
anchors = (
{
name = bottom;
position = "{352, 0}";
},
{
name = ogonek;
position = "{553, 0}";
},
{
name = top;
position = "{352, 1062}";
}
);
layerId = "584F9D0D-8480-40C6-ABEA-8DD6EE64252D";
paths = (
{
closed = 1;
nodes = (
"553 0 LINE",
"553 1062 LINE",
"151 1062 LINE",
"151 0 LINE"
);
}
);
width = 683;
},
{
anchors = (
{
name = bottom;
position = "{229.132, 0}";
},
{
name = ogonek;
position = "{437, 0}";
},
{
name = top;
position = "{454.868, 1062}";
}
);
layerId = "3FDD6C00-F7FD-4E85-84B0-0136AF7D7529";
paths = (
{
closed = 1;
nodes = (
"437 0 LINE",
"663 1062 LINE",
"260 1062 LINE",
"35 0 LINE"
);
}
);
width = 684;
},
{
anchors = (
{
name = bottom;
position = "{88, 0}";
},
{
name = ogonek;
position = "{104, 0}";
},
{
name = top;
position = "{313, 1062}";
}
);
layerId = "2503C51C-5A6C-4B2C-A968-78FEA18C2585";
paths = (
{
closed = 1;
nodes = (
"104 0 LINE",
"330 1062 LINE",
"298 1062 LINE",
"73 0 LINE"
);
}
);
width = 462;
}
);
leftKerningGroup = idotless;
rightKerningGroup = idotless;
unicode = 0131;
},
{
glyphname = j;
lastChange = "2020-04-10 19:47:19 +0000";
layers = (
{
layerId = "A1A0948C-E637-4A65-8CCC-05505AD98C44";
paths = (
{
closed = 1;
nodes = (
"241 -435 OFFCURVE",
"293 -278 OFFCURVE",
"295 -103 CURVE",
"295 1062 LINE",
"265 1062 LINE",
"265 -96 LINE SMOOTH",
"265 -237 OFFCURVE",
"229 -407 OFFCURVE",
"4 -407 CURVE SMOOTH",
"-38 -407 OFFCURVE",
"-76 -398 OFFCURVE",
"-94 -391 CURVE",
"-94 -422 LINE",
"-78 -428 OFFCURVE",
"-41 -435 OFFCURVE",
"4 -435 CURVE SMOOTH"
);
},
{
closed = 1;
nodes = (
"312 1377 OFFCURVE",
"335 1400 OFFCURVE",
"335 1429 CURVE SMOOTH",
"335 1457 OFFCURVE",
"312 1480 OFFCURVE",
"284 1480 CURVE SMOOTH",
"255 1480 OFFCURVE",
"232 1457 OFFCURVE",
"232 1429 CURVE SMOOTH",
"232 1400 OFFCURVE",
"255 1377 OFFCURVE",
"284 1377 CURVE SMOOTH"
);
}
);
width = 539;
},
{
layerId = "584F9D0D-8480-40C6-ABEA-8DD6EE64252D";
paths = (
{
closed = 1;
nodes = (
"492 -464 OFFCURVE",
"571 -263 OFFCURVE",
"573 -88 CURVE",
"573 1062 LINE",
"171 1062 LINE",
"171 -81 LINE SMOOTH",
"171 -121 OFFCURVE",
"134 -173 OFFCURVE",
"19 -173 CURVE SMOOTH",
"-23 -173 OFFCURVE",
"-74 -168 OFFCURVE",
"-101 -165 CURVE",
"-101 -460 LINE",
"-73 -462 OFFCURVE",
"-21 -464 OFFCURVE",
"19 -464 CURVE SMOOTH"
);
},
{
closed = 1;
nodes = (
"502 1154 OFFCURVE",
"613 1222 OFFCURVE",
"613 1344 CURVE SMOOTH",
"613 1467 OFFCURVE",
"502 1534 OFFCURVE",
"375 1534 CURVE SMOOTH",
"247 1534 OFFCURVE",
"137 1467 OFFCURVE",
"137 1344 CURVE SMOOTH",
"137 1222 OFFCURVE",
"247 1154 OFFCURVE",
"375 1154 CURVE SMOOTH"
);
}
);
width = 718;
},
{
layerId = "3FDD6C00-F7FD-4E85-84B0-0136AF7D7529";
paths = (
{
closed = 1;
nodes = (
"272 -435 OFFCURVE",
"389 -234 OFFCURVE",
"428 -59 CURVE",
"668 1062 LINE",
"264 1062 LINE",
"26 -52 LINE SMOOTH",
"15 -103 OFFCURVE",
"-32 -144 OFFCURVE",
"-128 -144 CURVE SMOOTH",
"-167 -144 OFFCURVE",
"-213 -140 OFFCURVE",
"-238 -136 CURVE",
"-296 -431 LINE",
"-269 -433 OFFCURVE",
"-221 -435 OFFCURVE",
"-184 -435 CURVE SMOOTH"
);
},
{
closed = 1;
nodes = (
"645 1154 OFFCURVE",
"785 1234 OFFCURVE",
"785 1375 CURVE SMOOTH",
"785 1478 OFFCURVE",
"701 1534 OFFCURVE",
"585 1534 CURVE SMOOTH",
"440 1534 OFFCURVE",
"304 1450 OFFCURVE",
"304 1311 CURVE SMOOTH",
"304 1210 OFFCURVE",
"389 1154 OFFCURVE",
"505 1154 CURVE SMOOTH"
);
}
);
width = 718;
},
{
layerId = "2503C51C-5A6C-4B2C-A968-78FEA18C2585";
paths = (
{
closed = 1;
nodes = (
"12 -435 OFFCURVE",
"89 -276 OFFCURVE",
"126 -103 CURVE SMOOTH",
"374 1062 LINE",
"343 1062 LINE",
"97 -94 LINE SMOOTH",
"67 -236 OFFCURVE",
"-2 -407 OFFCURVE",
"-206 -407 CURVE SMOOTH",
"-244 -407 OFFCURVE",
"-279 -399 OFFCURVE",
"-294 -393 CURVE",
"-297 -422 LINE",
"-284 -428 OFFCURVE",
"-251 -435 OFFCURVE",
"-209 -435 CURVE"
);
},
{
closed = 1;
nodes = (
"464 1377 OFFCURVE",
"493 1404 OFFCURVE",
"493 1439 CURVE SMOOTH",
"493 1462 OFFCURVE",
"475 1480 OFFCURVE",
"450 1480 CURVE SMOOTH",
"420 1480 OFFCURVE",
"388 1457 OFFCURVE",
"388 1417 CURVE SMOOTH",
"388 1394 OFFCURVE",
"407 1377 OFFCURVE",
"432 1377 CURVE SMOOTH"
);
}
);
width = 539;
}
);
leftKerningGroup = j;
note = j;
rightKerningGroup = j;
unicode = 006A;
},
{
glyphname = jdotless;
lastChange = "2020-04-10 19:47:27 +0000";
layers = (
{
anchors = (
{
name = bottom;
position = "{235, -437}";
},
{
name = top;
position = "{280, 1062}";
}
);
layerId = "A1A0948C-E637-4A65-8CCC-05505AD98C44";
paths = (
{
closed = 1;
nodes = (
"241 -435 OFFCURVE",
"294 -278 OFFCURVE",
"296 -103 CURVE",
"296 1062 LINE",
"265 1062 LINE",
"265 -96 LINE SMOOTH",
"265 -237 OFFCURVE",
"229 -407 OFFCURVE",
"4 -407 CURVE SMOOTH",
"-38 -407 OFFCURVE",
"-76 -398 OFFCURVE",
"-94 -391 CURVE",
"-94 -422 LINE",
"-78 -428 OFFCURVE",
"-41 -435 OFFCURVE",
"4 -435 CURVE SMOOTH"
);
}
);
width = 500;
},
{
anchors = (
{
name = bottom;
position = "{339, -437}";
},
{
name = top;
position = "{369, 1062}";
}
);
layerId = "584F9D0D-8480-40C6-ABEA-8DD6EE64252D";
paths = (
{
closed = 1;
nodes = (
"492 -464 OFFCURVE",
"571 -263 OFFCURVE",
"573 -88 CURVE",
"573 1062 LINE",
"171 1062 LINE",
"171 -81 LINE SMOOTH",
"171 -121 OFFCURVE",
"134 -173 OFFCURVE",
"19 -173 CURVE SMOOTH",
"-23 -173 OFFCURVE",
"-74 -168 OFFCURVE",
"-101 -165 CURVE",
"-101 -460 LINE",
"-73 -462 OFFCURVE",
"-21 -464 OFFCURVE",
"19 -464 CURVE SMOOTH"
);
}
);
width = 678;
},
{
anchors = (
{
name = bottom;
position = "{29, -437}";
},
{
name = top;
position = "{359, 1062}";
}
);
layerId = "2503C51C-5A6C-4B2C-A968-78FEA18C2585";
paths = (
{
closed = 1;
nodes = (
"12 -435 OFFCURVE",
"90 -276 OFFCURVE",
"127 -103 CURVE SMOOTH",
"375 1062 LINE",
"343 1062 LINE",
"97 -94 LINE SMOOTH",
"67 -236 OFFCURVE",
"-2 -407 OFFCURVE",
"-206 -407 CURVE SMOOTH",
"-244 -407 OFFCURVE",
"-279 -399 OFFCURVE",
"-294 -393 CURVE",
"-297 -422 LINE",
"-284 -428 OFFCURVE",
"-251 -435 OFFCURVE",
"-209 -435 CURVE"
);
}
);
width = 500;
},
{
anchors = (
{
name = bottom;
position = "{138, -437}";
},
{
name = top;
position = "{467, 1062}";
}
);
layerId = "3FDD6C00-F7FD-4E85-84B0-0136AF7D7529";
paths = (
{
closed = 1;
nodes = (
"272 -435 OFFCURVE",
"389 -234 OFFCURVE",
"428 -59 CURVE",
"668 1062 LINE",
"264 1062 LINE",
"26 -52 LINE SMOOTH",
"15 -103 OFFCURVE",
"-32 -144 OFFCURVE",
"-128 -144 CURVE SMOOTH",
"-167 -144 OFFCURVE",
"-213 -140 OFFCURVE",
"-238 -136 CURVE",
"-296 -431 LINE",
"-269 -433 OFFCURVE",
"-221 -435 OFFCURVE",
"-184 -435 CURVE SMOOTH"
);
}
);
width = 663;
}
);
leftKerningGroup = j;
leftMetricsKey = j;
rightKerningGroup = j;
rightMetricsKey = j;
unicode = 0237;
},
{
glyphname = k;
lastChange = "2020-04-10 19:20:26 +0000";
layers = (
{
anchors = (
{
name = bottom;
position = "{477, 0}";
},
{
name = top;
position = "{477, 1563}";
}
);
layerId = "A1A0948C-E637-4A65-8CCC-05505AD98C44";
paths = (
{
closed = 1;
nodes = (
"167 0 LINE",
"167 531 LINE",
"155 507 LINE",
"306 627 LINE",
"280 640 LINE",
"822 0 LINE",
"858 0 LINE",
"309 653 LINE",
"308 630 LINE",
"840 1062 LINE",
"798 1062 LINE",
"158 544 LINE",
"167 542 LINE",
"167 1563 LINE",
"137 1563 LINE",
"137 0 LINE"
);
}
);
width = 954;
},
{
anchors = (
{
name = bottom;
position = "{650, 0}";
},
{
name = top;
position = "{650, 1563}";
}
);
layerId = "584F9D0D-8480-40C6-ABEA-8DD6EE64252D";
paths = (
{
closed = 1;
nodes = (
"480 0 LINE",
"480 514 LINE",
"433 365 LINE",
"620 520 LINE",
"509 505 LINE",
"835 0 LINE",
"1256 0 LINE",
"754 734 LINE",
"697 587 LINE",
"1274 1062 LINE",
"787 1062 LINE",
"391 738 LINE",
"480 710 LINE",
"480 1563 LINE",
"98 1563 LINE",
"98 0 LINE"
);
}
);
width = 1299;
},
{
anchors = (
{
name = bottom;
position = "{529.132, 0}";
},
{
name = top;
position = "{861.358, 1563}";
}
);
layerId = "3FDD6C00-F7FD-4E85-84B0-0136AF7D7529";
paths = (
{
closed = 1;
nodes = (
"354 0 LINE",
"463 514 LINE",
"387 365 LINE",
"603 520 LINE",
"502 505 LINE",
"706 0 LINE",
"1114 0 LINE",
"780 734 LINE",
"694 587 LINE",
"1358 1062 LINE",
"864 1062 LINE",
"396 738 LINE",
"502 710 LINE",
"686 1563 LINE",
"304 1563 LINE",
"-28 0 LINE"
);
}
);
width = 1299;
},
{
anchors = (
{
name = bottom;
position = "{356.132, 0}";
},
{
name = top;
position = "{688.358, 1563}";
}
);
layerId = "2503C51C-5A6C-4B2C-A968-78FEA18C2585";
paths = (
{
closed = 1;
nodes = (
"51 0 LINE",
"164 531 LINE",
"148 507 LINE",
"321 627 LINE",
"305 630 LINE",
"688 0 LINE",
"727 0 LINE",
"332 653 LINE",
"323 630 LINE",
"935 1062 LINE",
"887 1062 LINE",
"153 549 LINE",
"166 542 LINE",
"383 1563 LINE",
"353 1563 LINE",
"21 0 LINE"
);
}
);
width = 954;
}
);
leftKerningGroup = h;
note = k;
rightKerningGroup = k;
unicode = 006B;
},
{
glyphname = kgreenlandic;
lastChange = "2020-04-10 19:20:55 +0000";
layers = (
{
anchors = (
{
name = bottom;
position = "{405, 0}";
},
{
name = top;
position = "{405, 1062}";
}
);
layerId = "A1A0948C-E637-4A65-8CCC-05505AD98C44";
paths = (
{
closed = 1;
nodes = (
"656 1062 LINE",
"619 1062 LINE",
"149 447 LINE",
"163 446 LINE",
"163 1062 LINE",
"133 1062 LINE",
"133 0 LINE",
"163 0 LINE",
"163 433 LINE",
"156 412 LINE",
"269 555 LINE",
"242 559 LINE",
"651 0 LINE",
"690 0 LINE",
"267 579 LINE",
"274 560 LINE"
);
}
);
width = 786;
},
{
anchors = (
{
name = bottom;
position = "{611, 0}";
},
{
name = top;
position = "{611, 1062}";
}
);
layerId = "584F9D0D-8480-40C6-ABEA-8DD6EE64252D";
paths = (
{
closed = 1;
nodes = (
"1136 1062 LINE",
"721 1062 LINE",
"421 554 LINE",
"475 532 LINE",
"475 1062 LINE",
"94 1062 LINE",
"94 0 LINE",
"475 0 LINE",
"475 400 LINE",
"448 163 LINE",
"661 443 LINE",
"430 500 LINE",
"710 0 LINE",
"1136 0 LINE",
"702 722 LINE",
"734 500 LINE"
);
}
);
width = 1161;
},
{
anchors = (
{
name = bottom;
position = "{288.132, 0}";
},
{
name = top;
position = "{513.868, 1062}";
}
);
layerId = "2503C51C-5A6C-4B2C-A968-78FEA18C2585";
paths = (
{
closed = 1;
nodes = (
"766 1062 LINE",
"725 1062 LINE",
"124 447 LINE",
"142 446 LINE",
"273 1062 LINE",
"243 1062 LINE",
"17 0 LINE",
"47 0 LINE",
"139 433 LINE",
"128 412 LINE",
"271 555 LINE",
"251 559 LINE",
"539 0 LINE",
"574 0 LINE",
"274 579 LINE",
"277 560 LINE"
);
}
);
width = 801;
},
{
anchors = (
{
name = bottom;
position = "{486.132, 0}";
},
{
name = top;
position = "{711.868, 1062}";
}
);
layerId = "3FDD6C00-F7FD-4E85-84B0-0136AF7D7529";
paths = (
{
closed = 1;
nodes = (
"1256 1062 LINE",
"821 1062 LINE",
"413 554 LINE",
"472 532 LINE",
"585 1062 LINE",
"204 1062 LINE",
"-22 0 LINE",
"359 0 LINE",
"444 400 LINE",
"377 163 LINE",
"649 443 LINE",
"450 500 LINE",
"624 0 LINE",
"1020 0 LINE",
"740 722 LINE",
"734 500 LINE"
);
}
);
width = 1197;
}
);
leftKerningGroup = h;
leftMetricsKey = h;
rightKerningGroup = k;
rightMetricsKey = k;
unicode = 0138;
},
{
glyphname = l;
lastChange = "2020-04-11 13:18:54 +0000";
layers = (
{
layerId = "A1A0948C-E637-4A65-8CCC-05505AD98C44";
paths = (
{
closed = 1;
nodes = (
"328 -7 OFFCURVE",
"360 -3 OFFCURVE",
"375 0 CURVE",
"375 28 LINE",
"360 25 OFFCURVE",
"328 21 OFFCURVE",
"296 21 CURVE SMOOTH",
"236 21 OFFCURVE",
"163 42 OFFCURVE",
"163 186 CURVE SMOOTH",
"163 203 OFFCURVE",
"163 222 OFFCURVE",
"163 244 CURVE SMOOTH",
"163 1563 LINE",
"133 1563 LINE",
"133 252 LINE SMOOTH",
"133 228 OFFCURVE",
"133 207 OFFCURVE",
"133 188 CURVE SMOOTH",
"133 9 OFFCURVE",
"227 -7 OFFCURVE",
"295 -7 CURVE SMOOTH"
);
}
);
width = 493;
},
{
layerId = "584F9D0D-8480-40C6-ABEA-8DD6EE64252D";
paths = (
{
closed = 1;
nodes = (
"618 -20 OFFCURVE",
"675 -8 OFFCURVE",
"714 1 CURVE",
"714 293 LINE",
"687 281 OFFCURVE",
"635 271 OFFCURVE",
"590 271 CURVE SMOOTH",
"518 271 OFFCURVE",
"498 297 OFFCURVE",
"498 388 CURVE SMOOTH",
"498 400 OFFCURVE",
"498 414 OFFCURVE",
"498 430 CURVE SMOOTH",
"498 1563 LINE",
"94 1563 LINE",
"94 415 LINE SMOOTH",
"94 382 OFFCURVE",
"94 353 OFFCURVE",
"94 326 CURVE SMOOTH",
"94 8 OFFCURVE",
"348 -20 OFFCURVE",
"539 -20 CURVE SMOOTH"
);
}
);
width = 764;
},
{
layerId = "3FDD6C00-F7FD-4E85-84B0-0136AF7D7529";
paths = (
{
closed = 1;
nodes = (
"501 -20 OFFCURVE",
"560 -8 OFFCURVE",
"601 1 CURVE",
"663 293 LINE",
"634 281 OFFCURVE",
"580 271 OFFCURVE",
"535 271 CURVE SMOOTH",
"482 271 OFFCURVE",
"455 282 OFFCURVE",
"455 317 CURVE SMOOTH",
"455 343 OFFCURVE",
"458 359 OFFCURVE",
"473 430 CURVE SMOOTH",
"717 1563 LINE",
"313 1563 LINE",
"66 415 LINE SMOOTH",
"49 334 OFFCURVE",
"39 282 OFFCURVE",
"39 228 CURVE SMOOTH",
"39 2 OFFCURVE",
"253 -20 OFFCURVE",
"422 -20 CURVE SMOOTH"
);
}
);
width = 764;
},
{
layerId = "2503C51C-5A6C-4B2C-A968-78FEA18C2585";
paths = (
{
closed = 1;
nodes = (
"210 -7 OFFCURVE",
"243 -3 OFFCURVE",
"259 0 CURVE",
"265 28 LINE",
"249 25 OFFCURVE",
"216 21 OFFCURVE",
"184 21 CURVE SMOOTH",
"136 21 OFFCURVE",
"77 34 OFFCURVE",
"77 114 CURVE SMOOTH",
"77 143 OFFCURVE",
"81 164 OFFCURVE",
"86 186 CURVE SMOOTH",
"379 1563 LINE",
"349 1563 LINE",
"57 188 LINE SMOOTH",
"52 164 OFFCURVE",
"48 143 OFFCURVE",
"48 114 CURVE SMOOTH",
"48 5 OFFCURVE",
"122 -7 OFFCURVE",
"177 -7 CURVE SMOOTH"
);
}
);
width = 479;
}
);
leftKerningGroup = h;
leftMetricsKey = h;
rightKerningGroup = k;
unicode = 006C;
},
{
glyphname = l.ss01;
lastChange = "2020-04-21 00:45:11 +0000";
layers = (
{
anchors = (
{
name = bottom;
position = "{146, 0}";
},
{
name = center;
position = "{146, 782}";
},
{
name = top;
position = "{146, 1563}";
},
{
name = topright;
position = "{307, 1563}";
}
);
layerId = "A1A0948C-E637-4A65-8CCC-05505AD98C44";
paths = (
{
closed = 1;
nodes = (
"133 1563 LINE",
"133 0 LINE",
"163 0 LINE",
"163 1563 LINE"
);
}
);
width = 354;
},
{
anchors = (
{
name = bottom;
position = "{287, 0}";
},
{
name = center;
position = "{287, 782}";
},
{
name = top;
position = "{287, 1563}";
},
{
name = topright;
position = "{598, 1563}";
}
);
layerId = "584F9D0D-8480-40C6-ABEA-8DD6EE64252D";
paths = (
{
closed = 1;
nodes = (
"94 1563 LINE",
"94 0 LINE",
"491 0 LINE",
"491 1563 LINE"
);
}
);
width = 606;
},
{
anchors = (
{
name = bottom;
position = "{173, 0}";
},
{
name = center;
position = "{339, 782}";
},
{
name = top;
position = "{505, 1563}";
},
{
name = topright;
position = "{818, 1563}";
}
);
layerId = "3FDD6C00-F7FD-4E85-84B0-0136AF7D7529";
paths = (
{
closed = 1;
nodes = (
"310 1563 LINE",
"-22 0 LINE",
"379 0 LINE",
"711 1563 LINE"
);
}
);
width = 622;
},
{
anchors = (
{
name = bottom;
position = "{31, 0}";
},
{
name = center;
position = "{197, 782}";
},
{
name = top;
position = "{363, 1563}";
},
{
name = topright;
position = "{527, 1563}";
}
);
layerId = "2503C51C-5A6C-4B2C-A968-78FEA18C2585";
paths = (
{
closed = 1;
nodes = (
"349 1563 LINE",
"17 0 LINE",
"47 0 LINE",
"379 1563 LINE"
);
}
);
width = 381;
}
);
leftKerningGroup = h;
leftMetricsKey = h;
note = l;
rightKerningGroup = l;
rightMetricsKey = d;
},
{
glyphname = lslash;
lastChange = "2019-12-17 19:59:18 +0000";
layers = (
{
components = (
{
name = l.ss01;
transform = "{1, 0, 0, 1, 19, 0}";
}
);
layerId = "A1A0948C-E637-4A65-8CCC-05505AD98C44";
paths = (
{
closed = 1;
nodes = (
"59 599 LINE",
"416 863 LINE",
"394 887 LINE",
"37 623 LINE"
);
}
);
width = 487;
},
{
components = (
{
name = l.ss01;
transform = "{1, 0, 0, 1, 69, 0}";
}
);
layerId = "584F9D0D-8480-40C6-ABEA-8DD6EE64252D";
paths = (
{
closed = 1;
nodes = (
"113 457 LINE",
"862 802 LINE",
"764 1010 LINE",
"15 664 LINE"
);
}
);
width = 800;
},
{
components = (
{
name = l.ss01;
transform = "{1, 0, 0, 1, 94, 0}";
}
);
layerId = "3FDD6C00-F7FD-4E85-84B0-0136AF7D7529";
paths = (
{
closed = 1;
nodes = (
"107 457 LINE",
"910 802 LINE",
"844 1010 LINE",
"42 664 LINE"
);
}
);
width = 800;
},
{
components = (
{
name = l.ss01;
transform = "{1, 0, 0, 1, 42, 0}";
}
);
layerId = "2503C51C-5A6C-4B2C-A968-78FEA18C2585";
paths = (
{
closed = 1;
nodes = (
"70 599 LINE",
"474 863 LINE",
"455 887 LINE",
"52 623 LINE"
);
}
);
width = 487;
}
);
leftKerningGroup = lslash;
rightKerningGroup = lslash;
unicode = 0142;
},
{
glyphname = m;
lastChange = "2020-04-10 19:26:54 +0000";
layers = (
{
anchors = (
{
name = bottom;
position = "{765, 0}";
},
{
name = top;
position = "{765, 1062}";
}
);
layerId = "A1A0948C-E637-4A65-8CCC-05505AD98C44";
paths = (
{
closed = 1;
nodes = (
"777 0 LINE",
"777 523 LINE SMOOTH",
"777 602 OFFCURVE",
"777 673 OFFCURVE",
"777 723 CURVE SMOOTH",
"777 945 OFFCURVE",
"702 1073 OFFCURVE",
"483 1073 CURVE SMOOTH",
"243 1073 OFFCURVE",
"106 879 OFFCURVE",
"106 671 CURVE",
"134 662 LINE",
"134 788 OFFCURVE",
"215 1045 OFFCURVE",
"484 1045 CURVE SMOOTH",
"735 1045 OFFCURVE",
"747 822 OFFCURVE",
"747 719 CURVE SMOOTH",
"747 677 OFFCURVE",
"747 614 OFFCURVE",
"747 526 CURVE SMOOTH",
"747 0 LINE"
);
},
{
closed = 1;
nodes = (
"134 0 LINE",
"134 1062 LINE",
"104 1062 LINE",
"104 0 LINE"
);
},
{
closed = 1;
nodes = (
"1419 0 LINE",
"1419 551 LINE SMOOTH",
"1419 624 OFFCURVE",
"1419 699 OFFCURVE",
"1419 750 CURVE SMOOTH",
"1419 970 OFFCURVE",
"1318 1073 OFFCURVE",
"1119 1073 CURVE SMOOTH",
"877 1073 OFFCURVE",
"749 881 OFFCURVE",
"749 692 CURVE",
"777 687 LINE",
"777 787 OFFCURVE",
"847 1045 OFFCURVE",
"1120 1045 CURVE SMOOTH",
"1387 1045 OFFCURVE",
"1389 818 OFFCURVE",
"1389 726 CURVE SMOOTH",
"1389 681 OFFCURVE",
"1389 627 OFFCURVE",
"1389 528 CURVE SMOOTH",
"1389 0 LINE"
);
}
);
width = 1629;
},
{
anchors = (
{
name = bottom;
position = "{945, 0}";
},
{
name = top;
position = "{945, 1062}";
}
);
layerId = "584F9D0D-8480-40C6-ABEA-8DD6EE64252D";
paths = (
{
closed = 1;
nodes = (
"1133 0 LINE",
"1133 330 LINE",
"1133 485 OFFCURVE",
"1133 591 OFFCURVE",
"1133 651 CURVE SMOOTH",
"1133 878 OFFCURVE",
"1072 1073 OFFCURVE",
"792 1073 CURVE SMOOTH",
"539 1073 OFFCURVE",
"389 903 OFFCURVE",
"389 612 CURVE",
"466 522 LINE",
"466 659 OFFCURVE",
"514 751 OFFCURVE",
"608 751 CURVE SMOOTH",
"719 751 OFFCURVE",
"733 650 OFFCURVE",
"733 542 CURVE SMOOTH",
"733 504 OFFCURVE",
"733 447 OFFCURVE",
"733 373 CURVE",
"733 0 LINE"
);
},
{
closed = 1;
nodes = (
"466 0 LINE",
"466 1062 LINE",
"63 1062 LINE",
"63 0 LINE"
);
},
{
closed = 1;
nodes = (
"1801 0 LINE",
"1801 333 LINE",
"1801 489 OFFCURVE",
"1801 588 OFFCURVE",
"1801 651 CURVE SMOOTH",
"1801 878 OFFCURVE",
"1737 1073 OFFCURVE",
"1458 1073 CURVE SMOOTH",
"1205 1073 OFFCURVE",
"1056 903 OFFCURVE",
"1056 612 CURVE",
"1133 522 LINE",
"1133 659 OFFCURVE",
"1180 751 OFFCURVE",
"1274 751 CURVE SMOOTH",
"1379 751 OFFCURVE",
"1398 666 OFFCURVE",
"1398 542 CURVE SMOOTH",
"1398 505 OFFCURVE",
"1398 446 OFFCURVE",
"1398 371 CURVE",
"1398 0 LINE"
);
}
);
width = 1904;
},
{
anchors = (
{
name = bottom;
position = "{836.132, 0}";
},
{
name = top;
position = "{1061.868, 1062}";
}
);
layerId = "3FDD6C00-F7FD-4E85-84B0-0136AF7D7529";
paths = (
{
closed = 1;
nodes = (
"1019 0 LINE",
"1089 330 LINE",
"1144 587 OFFCURVE",
"1169 707 OFFCURVE",
"1169 801 CURVE SMOOTH",
"1169 957 OFFCURVE",
"1102 1073 OFFCURVE",
"886 1073 CURVE SMOOTH",
"633 1073 OFFCURVE",
"467 903 OFFCURVE",
"405 612 CURVE",
"463 522 LINE",
"492 659 OFFCURVE",
"560 751 OFFCURVE",
"654 751 CURVE SMOOTH",
"726 751 OFFCURVE",
"744 708 OFFCURVE",
"744 648 CURVE SMOOTH",
"744 597 OFFCURVE",
"729 516 OFFCURVE",
"698 373 CURVE",
"619 0 LINE"
);
},
{
closed = 1;
nodes = (
"352 0 LINE",
"578 1062 LINE",
"175 1062 LINE",
"-51 0 LINE"
);
},
{
closed = 1;
nodes = (
"1687 0 LINE",
"1758 333 LINE",
"1812 590 OFFCURVE",
"1836 707 OFFCURVE",
"1836 798 CURVE SMOOTH",
"1836 956 OFFCURVE",
"1768 1073 OFFCURVE",
"1552 1073 CURVE SMOOTH",
"1299 1073 OFFCURVE",
"1134 903 OFFCURVE",
"1072 612 CURVE",
"1130 522 LINE",
"1159 659 OFFCURVE",
"1226 751 OFFCURVE",
"1320 751 CURVE SMOOTH",
"1390 751 OFFCURVE",
"1411 713 OFFCURVE",
"1411 651 CURVE SMOOTH",
"1411 602 OFFCURVE",
"1395 522 OFFCURVE",
"1363 371 CURVE",
"1284 0 LINE"
);
}
);
width = 1904;
},
{
anchors = (
{
name = bottom;
position = "{648, 0}";
},
{
name = top;
position = "{874, 1062}";
}
);
layerId = "2503C51C-5A6C-4B2C-A968-78FEA18C2585";
paths = (
{
closed = 1;
nodes = (
"664 0 LINE",
"803 653 LINE SMOOTH",
"820 732 OFFCURVE",
"834 803 OFFCURVE",
"834 853 CURVE SMOOTH",
"834 994 OFFCURVE",
"762 1073 OFFCURVE",
"590 1073 CURVE SMOOTH",
"350 1073 OFFCURVE",
"180 881 OFFCURVE",
"135 673 CURVE",
"161 662 LINE",
"187 788 OFFCURVE",
"324 1045 OFFCURVE",
"593 1045 CURVE SMOOTH",
"762 1045 OFFCURVE",
"803 944 OFFCURVE",
"803 846 CURVE SMOOTH",
"803 804 OFFCURVE",
"792 741 OFFCURVE",
"773 653 CURVE SMOOTH",
"634 0 LINE"
);
},
{
closed = 1;
nodes = (
"21 0 LINE",
"247 1062 LINE",
"217 1062 LINE",
"-9 0 LINE"
);
},
{
closed = 1;
nodes = (
"1306 0 LINE",
"1445 653 LINE SMOOTH",
"1461 726 OFFCURVE",
"1475 791 OFFCURVE",
"1475 852 CURVE SMOOTH",
"1475 1002 OFFCURVE",
"1391 1073 OFFCURVE",
"1226 1073 CURVE SMOOTH",
"984 1073 OFFCURVE",
"824 883 OFFCURVE",
"784 694 CURVE",
"810 687 LINE",
"831 787 OFFCURVE",
"956 1045 OFFCURVE",
"1229 1045 CURVE SMOOTH",
"1406 1045 OFFCURVE",
"1443 945 OFFCURVE",
"1443 851 CURVE SMOOTH",
"1443 806 OFFCURVE",
"1436 752 OFFCURVE",
"1415 653 CURVE SMOOTH",
"1276 0 LINE"
);
}
);
width = 1629;
}
);
leftKerningGroup = n;
note = m;
rightKerningGroup = n;
unicode = 006D;
},
{
glyphname = n;
lastChange = "2020-04-20 16:10:03 +0000";
layers = (
{
anchors = (
{
name = bottom;
position = "{532, 0}";
},
{
name = top;
position = "{532, 1062}";
}
);
layerId = "A1A0948C-E637-4A65-8CCC-05505AD98C44";
paths = (
{
closed = 1;
nodes = (
"903 0 LINE",
"903 563 LINE SMOOTH",
"903 596 OFFCURVE",
"903 657 OFFCURVE",
"903 707 CURVE SMOOTH",
"903 947 OFFCURVE",
"792 1073 OFFCURVE",
"561 1073 CURVE SMOOTH",
"358 1073 OFFCURVE",
"134 927 OFFCURVE",
"134 701 CURVE",
"163 690 LINE",
"163 898 OFFCURVE",
"367 1045 OFFCURVE",
"564 1045 CURVE SMOOTH",
"787 1045 OFFCURVE",
"873 906 OFFCURVE",
"873 707 CURVE SMOOTH",
"873 668 OFFCURVE",
"873 639 OFFCURVE",
"873 566 CURVE SMOOTH",
"873 0 LINE"
);
},
{
closed = 1;
nodes = (
"163 0 LINE",
"163 1062 LINE",
"133 1062 LINE",
"133 0 LINE"
);
}
);
width = 1103;
},
{
anchors = (
{
name = bottom;
position = "{651, 0}";
},
{
name = top;
position = "{651, 1062}";
}
);
layerId = "584F9D0D-8480-40C6-ABEA-8DD6EE64252D";
paths = (
{
closed = 1;
nodes = (
"1216 0 LINE",
"1216 375 LINE SMOOTH",
"1216 480 OFFCURVE",
"1216 577 OFFCURVE",
"1216 651 CURVE SMOOTH",
"1216 903 OFFCURVE",
"1120 1073 OFFCURVE",
"849 1073 CURVE SMOOTH",
"593 1073 OFFCURVE",
"420 903 OFFCURVE",
"419 612 CURVE",
"497 532 LINE",
"497 669 OFFCURVE",
"547 751 OFFCURVE",
"664 751 CURVE SMOOTH",
"799 751 OFFCURVE",
"813 641 OFFCURVE",
"813 532 CURVE SMOOTH",
"813 501 OFFCURVE",
"813 455 OFFCURVE",
"813 413 CURVE SMOOTH",
"813 0 LINE"
);
},
{
closed = 1;
nodes = (
"497 0 LINE",
"497 1062 LINE",
"94 1062 LINE",
"94 0 LINE"
);
}
);
width = 1321;
},
{
anchors = (
{
name = bottom;
position = "{548.132, 0}";
},
{
name = top;
position = "{773.868, 1062}";
}
);
layerId = "3FDD6C00-F7FD-4E85-84B0-0136AF7D7529";
paths = (
{
closed = 1;
nodes = (
"1101 0 LINE",
"1181 375 LINE SMOOTH",
"1203 480 OFFCURVE",
"1224 577 OFFCURVE",
"1239 651 CURVE SMOOTH",
"1293 903 OFFCURVE",
"1233 1073 OFFCURVE",
"962 1073 CURVE SMOOTH",
"706 1073 OFFCURVE",
"497 903 OFFCURVE",
"434 612 CURVE",
"495 532 LINE",
"524 669 OFFCURVE",
"592 751 OFFCURVE",
"709 751 CURVE SMOOTH",
"844 751 OFFCURVE",
"834 641 OFFCURVE",
"811 532 CURVE SMOOTH",
"804 501 OFFCURVE",
"795 455 OFFCURVE",
"786 413 CURVE SMOOTH",
"698 0 LINE"
);
},
{
closed = 1;
nodes = (
"382 0 LINE",
"608 1062 LINE",
"205 1062 LINE",
"-21 0 LINE"
);
}
);
width = 1321;
},
{
anchors = (
{
name = bottom;
position = "{419, 0}";
},
{
name = top;
position = "{645, 1062}";
}
);
layerId = "2503C51C-5A6C-4B2C-A968-78FEA18C2585";
paths = (
{
closed = 1;
nodes = (
"789 0 LINE",
"934 684 LINE SMOOTH",
"941 717 OFFCURVE",
"953 778 OFFCURVE",
"953 828 CURVE SMOOTH",
"953 989 OFFCURVE",
"860 1073 OFFCURVE",
"672 1073 CURVE SMOOTH",
"469 1073 OFFCURVE",
"222 935 OFFCURVE",
"169 701 CURVE",
"195 690 LINE",
"239 898 OFFCURVE",
"473 1045 OFFCURVE",
"670 1045 CURVE SMOOTH",
"848 1045 OFFCURVE",
"922 964 OFFCURVE",
"922 825 CURVE SMOOTH",
"922 786 OFFCURVE",
"919 757 OFFCURVE",
"904 684 CURVE SMOOTH",
"759 0 LINE"
);
},
{
closed = 1;
nodes = (
"49 0 LINE",
"275 1062 LINE",
"245 1062 LINE",
"19 0 LINE"
);
}
);
width = 1103;
}
);
leftKerningGroup = n;
note = n;
rightKerningGroup = n;
unicode = 006E;
},
{
glyphname = eng;
lastChange = "2020-04-24 15:11:13 +0000";
layers = (
{
components = (
{
name = n;
}
);
layerId = "A1A0948C-E637-4A65-8CCC-05505AD98C44";
paths = (
{
closed = 1;
nodes = (
"873 -96 LINE SMOOTH",
"873 -236 OFFCURVE",
"834 -407 OFFCURVE",
"610 -407 CURVE SMOOTH",
"569 -407 OFFCURVE",
"530 -399 OFFCURVE",
"512 -393 CURVE",
"512 -422 LINE",
"528 -428 OFFCURVE",
"565 -435 OFFCURVE",
"610 -435 CURVE SMOOTH",
"881 -435 OFFCURVE",
"903 -224 OFFCURVE",
"903 -96 CURVE SMOOTH",
"903 0 LINE",
"873 0 LINE"
);
}
);
width = 1103;
},
{
components = (
{
name = n;
}
);
layerId = "584F9D0D-8480-40C6-ABEA-8DD6EE64252D";
paths = (
{
closed = 1;
nodes = (
"813 -9 LINE SMOOTH",
"813 -92 OFFCURVE",
"786 -144 OFFCURVE",
"681 -144 CURVE SMOOTH",
"637 -144 OFFCURVE",
"599 -141 OFFCURVE",
"583 -138 CURVE",
"583 -428 LINE",
"599 -431 OFFCURVE",
"636 -435 OFFCURVE",
"681 -435 CURVE SMOOTH",
"1104 -435 OFFCURVE",
"1216 -186 OFFCURVE",
"1216 -9 CURVE SMOOTH",
"1216 0 LINE",
"813 0 LINE"
);
}
);
width = 1321;
},
{
components = (
{
name = n;
}
);
layerId = "3FDD6C00-F7FD-4E85-84B0-0136AF7D7529";
paths = (
{
closed = 1;
nodes = (
"695 -13 LINE SMOOTH",
"673 -109 OFFCURVE",
"618 -144 OFFCURVE",
"528 -144 CURVE SMOOTH",
"485 -144 OFFCURVE",
"448 -141 OFFCURVE",
"432 -138 CURVE",
"380 -428 LINE",
"395 -431 OFFCURVE",
"431 -435 OFFCURVE",
"476 -435 CURVE SMOOTH",
"890 -435 OFFCURVE",
"1060 -191 OFFCURVE",
"1098 -14 CURVE SMOOTH",
"1101 0 LINE",
"698 0 LINE"
);
}
);
width = 1321;
},
{
components = (
{
name = n;
}
);
layerId = "2503C51C-5A6C-4B2C-A968-78FEA18C2585";
paths = (
{
closed = 1;
nodes = (
"738 -94 LINE SMOOTH",
"707 -234 OFFCURVE",
"634 -407 OFFCURVE",
"413 -407 CURVE SMOOTH",
"375 -407 OFFCURVE",
"338 -401 OFFCURVE",
"320 -396 CURVE",
"316 -422 LINE",
"331 -428 OFFCURVE",
"367 -435 OFFCURVE",
"412 -435 CURVE SMOOTH",
"656 -435 OFFCURVE",
"733 -261 OFFCURVE",
"768 -98 CURVE SMOOTH",
"789 0 LINE",
"759 0 LINE"
);
}
);
width = 1103;
}
);
leftKerningGroup = n;
leftMetricsKey = n;
rightKerningGroup = n;
rightMetricsKey = n;
unicode = 014B;
},
{
glyphname = o;
lastChange = "2020-04-20 16:04:56 +0000";
layers = (
{
anchors = (
{
name = bottom;
position = "{588, 0}";
},
{
name = center;
position = "{588, 531}";
},
{
name = ogonek;
position = "{716, 10}";
},
{
name = top;
position = "{588, 1062}";
},
{
name = topright;
position = "{938, 842}";
}
);
layerId = "A1A0948C-E637-4A65-8CCC-05505AD98C44";
paths = (
{
closed = 1;
nodes = (
"872 -15 OFFCURVE",
"1093 210 OFFCURVE",
"1093 533 CURVE SMOOTH",
"1093 856 OFFCURVE",
"872 1073 OFFCURVE",
"586 1073 CURVE SMOOTH",
"300 1073 OFFCURVE",
"79 856 OFFCURVE",
"79 533 CURVE SMOOTH",
"79 210 OFFCURVE",
"300 -15 OFFCURVE",
"586 -15 CURVE SMOOTH"
);
},
{
closed = 1;
nodes = (
"321 13 OFFCURVE",
"110 233 OFFCURVE",
"110 533 CURVE SMOOTH",
"110 833 OFFCURVE",
"321 1045 OFFCURVE",
"586 1045 CURVE SMOOTH",
"851 1045 OFFCURVE",
"1062 833 OFFCURVE",
"1062 533 CURVE SMOOTH",
"1062 233 OFFCURVE",
"851 13 OFFCURVE",
"586 13 CURVE SMOOTH"
);
}
);
width = 1245;
},
{
anchors = (
{
name = bottom;
position = "{672, 0}";
},
{
name = center;
position = "{672, 531}";
},
{
name = ogonek;
position = "{829, 10}";
},
{
name = top;
position = "{672, 1062}";
},
{
name = topright;
position = "{1021, 772}";
}
);
layerId = "584F9D0D-8480-40C6-ABEA-8DD6EE64252D";
paths = (
{
closed = 1;
nodes = (
"1042 -15 OFFCURVE",
"1278 200 OFFCURVE",
"1278 530 CURVE SMOOTH",
"1278 860 OFFCURVE",
"1042 1073 OFFCURVE",
"672 1073 CURVE SMOOTH",
"302 1073 OFFCURVE",
"66 860 OFFCURVE",
"66 530 CURVE SMOOTH",
"66 200 OFFCURVE",
"302 -15 OFFCURVE",
"672 -15 CURVE SMOOTH"
);
},
{
closed = 1;
nodes = (
"549 280 OFFCURVE",
"471 378 OFFCURVE",
"471 530 CURVE SMOOTH",
"471 682 OFFCURVE",
"549 778 OFFCURVE",
"672 778 CURVE SMOOTH",
"795 778 OFFCURVE",
"873 682 OFFCURVE",
"873 530 CURVE SMOOTH",
"873 378 OFFCURVE",
"795 280 OFFCURVE",
"672 280 CURVE SMOOTH"
);
}
);
width = 1356;
},
{
anchors = (
{
name = bottom;
position = "{540, 0}";
},
{
name = center;
position = "{653, 531}";
},
{
name = ogonek;
position = "{708, 10}";
},
{
name = top;
position = "{766, 1062}";
},
{
name = topright;
position = "{1058, 772}";
}
);
layerId = "3FDD6C00-F7FD-4E85-84B0-0136AF7D7529";
paths = (
{
closed = 1;
nodes = (
"985 -15 OFFCURVE",
"1286 241 OFFCURVE",
"1286 627 CURVE SMOOTH",
"1286 901 OFFCURVE",
"1090 1073 OFFCURVE",
"758 1073 CURVE SMOOTH",
"358 1073 OFFCURVE",
"58 819 OFFCURVE",
"58 433 CURVE SMOOTH",
"58 159 OFFCURVE",
"254 -15 OFFCURVE",
"586 -15 CURVE SMOOTH"
);
},
{
closed = 1;
nodes = (
"515 280 OFFCURVE",
"466 349 OFFCURVE",
"466 462 CURVE SMOOTH",
"466 634 OFFCURVE",
"565 778 OFFCURVE",
"725 778 CURVE SMOOTH",
"828 778 OFFCURVE",
"879 710 OFFCURVE",
"879 599 CURVE SMOOTH",
"879 428 OFFCURVE",
"778 280 OFFCURVE",
"619 280 CURVE SMOOTH"
);
}
);
width = 1356;
},
{
anchors = (
{
name = bottom;
position = "{415, 0}";
},
{
name = center;
position = "{528, 531}";
},
{
name = ogonek;
position = "{526, 10}";
},
{
name = top;
position = "{641, 1062}";
},
{
name = topright;
position = "{1013, 842}";
}
);
layerId = "2503C51C-5A6C-4B2C-A968-78FEA18C2585";
paths = (
{
closed = 1;
nodes = (
"848 -15 OFFCURVE",
"1105 269 OFFCURVE",
"1105 653 CURVE SMOOTH",
"1105 903 OFFCURVE",
"967 1073 OFFCURVE",
"696 1073 CURVE SMOOTH",
"353 1073 OFFCURVE",
"86 770 OFFCURVE",
"86 413 CURVE SMOOTH",
"86 170 OFFCURVE",
"235 -15 OFFCURVE",
"496 -15 CURVE SMOOTH"
);
},
{
closed = 1;
nodes = (
"250 13 OFFCURVE",
"118 195 OFFCURVE",
"118 421 CURVE SMOOTH",
"118 750 OFFCURVE",
"376 1045 OFFCURVE",
"696 1045 CURVE SMOOTH",
"951 1045 OFFCURVE",
"1074 879 OFFCURVE",
"1074 649 CURVE SMOOTH",
"1074 291 OFFCURVE",
"828 13 OFFCURVE",
"496 13 CURVE SMOOTH"
);
}
);
width = 1245;
}
);
leftKerningGroup = o;
note = o;
rightKerningGroup = o;
unicode = 006F;
},
{
glyphname = oslash;
lastChange = "2020-04-11 13:40:45 +0000";
layers = (
{
components = (
{
name = o;
}
);
layerId = "A1A0948C-E637-4A65-8CCC-05505AD98C44";
paths = (
{
closed = 1;
nodes = (
"899 1082 LINE",
"866 1091 LINE",
"279 -13 LINE",
"314 -22 LINE"
);
}
);
width = 1245;
},
{
components = (
{
name = o;
}
);
layerId = "584F9D0D-8480-40C6-ABEA-8DD6EE64252D";
paths = (
{
closed = 1;
nodes = (
"1104 1078 LINE",
"955 1158 LINE",
"213 -28 LINE",
"357 -105 LINE"
);
}
);
width = 1356;
},
{
components = (
{
name = o;
}
);
layerId = "3FDD6C00-F7FD-4E85-84B0-0136AF7D7529";
paths = (
{
closed = 1;
nodes = (
"1205 1068 LINE",
"1075 1158 LINE",
"104 -28 LINE",
"230 -115 LINE"
);
}
);
width = 1356;
},
{
components = (
{
name = o;
}
);
layerId = "2503C51C-5A6C-4B2C-A968-78FEA18C2585";
paths = (
{
closed = 1;
nodes = (
"1014 1074 LINE",
"988 1091 LINE",
"183 -13 LINE",
"213 -30 LINE"
);
}
);
width = 1245;
}
);
leftKerningGroup = o;
leftMetricsKey = o;
rightKerningGroup = o;
rightMetricsKey = o;
unicode = 00F8;
},
{
glyphname = p;
lastChange = "2020-04-20 16:09:50 +0000";
layers = (
{
anchors = (
{
name = bottom;
position = "{570, 0}";
},
{
name = top;
position = "{570, 1062}";
}
);
layerId = "A1A0948C-E637-4A65-8CCC-05505AD98C44";
paths = (
{
closed = 1;
nodes = (
"163 -437 LINE",
"163 1062 LINE",
"133 1062 LINE",
"133 -437 LINE"
);
},
{
closed = 1;
nodes = (
"822 -15 OFFCURVE",
"997 181 OFFCURVE",
"997 529 CURVE SMOOTH",
"997 877 OFFCURVE",
"822 1073 OFFCURVE",
"563 1073 CURVE SMOOTH",
"323 1073 OFFCURVE",
"133 886 OFFCURVE",
"133 675 CURVE",
"163 675 LINE",
"163 872 OFFCURVE",
"347 1045 OFFCURVE",
"563 1045 CURVE SMOOTH",
"803 1045 OFFCURVE",
"966 858 OFFCURVE",
"966 529 CURVE SMOOTH",
"966 200 OFFCURVE",
"803 13 OFFCURVE",
"563 13 CURVE SMOOTH",
"347 13 OFFCURVE",
"163 186 OFFCURVE",
"163 383 CURVE SMOOTH",
"163 385 OFFCURVE",
"163 388 OFFCURVE",
"163 390 CURVE",
"133 390 LINE",
"133 388 OFFCURVE",
"133 385 OFFCURVE",
"133 383 CURVE SMOOTH",
"133 172 OFFCURVE",
"323 -15 OFFCURVE",
"563 -15 CURVE SMOOTH"
);
}
);
width = 1149;
},
{
anchors = (
{
name = bottom;
position = "{686, 0}";
},
{
name = top;
position = "{686, 1062}";
}
);
layerId = "584F9D0D-8480-40C6-ABEA-8DD6EE64252D";
paths = (
{
closed = 1;
nodes = (
"498 -437 LINE",
"498 1062 LINE",
"94 1062 LINE",
"94 -437 LINE"
);
},
{
closed = 1;
nodes = (
"1079 -15 OFFCURVE",
"1314 166 OFFCURVE",
"1314 538 CURVE SMOOTH",
"1314 890 OFFCURVE",
"1069 1073 OFFCURVE",
"812 1073 CURVE SMOOTH",
"557 1073 OFFCURVE",
"356 866 OFFCURVE",
"356 571 CURVE",
"498 561 LINE",
"498 694 OFFCURVE",
"602 757 OFFCURVE",
"696 757 CURVE SMOOTH",
"798 757 OFFCURVE",
"898 695 OFFCURVE",
"898 538 CURVE SMOOTH",
"898 381 OFFCURVE",
"797 314 OFFCURVE",
"696 314 CURVE SMOOTH",
"600 314 OFFCURVE",
"498 382 OFFCURVE",
"498 515 CURVE SMOOTH",
"498 519 OFFCURVE",
"498 524 OFFCURVE",
"498 528 CURVE",
"356 525 LINE",
"356 518 OFFCURVE",
"356 512 OFFCURVE",
"356 505 CURVE SMOOTH",
"356 210 OFFCURVE",
"557 -15 OFFCURVE",
"812 -15 CURVE SMOOTH"
);
}
);
width = 1392;
},
{
anchors = (
{
name = bottom;
position = "{570, 0}";
},
{
name = top;
position = "{796, 1062}";
}
);
layerId = "3FDD6C00-F7FD-4E85-84B0-0136AF7D7529";
paths = (
{
closed = 1;
nodes = (
"290 -437 LINE",
"608 1062 LINE",
"204 1062 LINE",
"-114 -437 LINE"
);
},
{
closed = 1;
nodes = (
"1078 -15 OFFCURVE",
"1315 252 OFFCURVE",
"1315 628 CURVE SMOOTH",
"1315 917 OFFCURVE",
"1146 1073 OFFCURVE",
"905 1073 CURVE SMOOTH",
"650 1073 OFFCURVE",
"425 866 OFFCURVE",
"362 571 CURVE",
"501 561 LINE",
"529 694 OFFCURVE",
"647 757 OFFCURVE",
"741 757 CURVE SMOOTH",
"835 757 OFFCURVE",
"898 706 OFFCURVE",
"898 593 CURVE SMOOTH",
"898 434 OFFCURVE",
"814 314 OFFCURVE",
"647 314 CURVE SMOOTH",
"563 314 OFFCURVE",
"487 366 OFFCURVE",
"487 467 CURVE SMOOTH",
"487 482 OFFCURVE",
"490 512 OFFCURVE",
"494 528 CURVE",
"352 525 LINE",
"343 501 OFFCURVE",
"335 457 OFFCURVE",
"335 386 CURVE SMOOTH",
"335 151 OFFCURVE",
"494 -15 OFFCURVE",
"713 -15 CURVE SMOOTH"
);
}
);
width = 1388;
},
{
anchors = (
{
name = bottom;
position = "{452, 0}";
},
{
name = top;
position = "{678, 1062}";
}
);
layerId = "2503C51C-5A6C-4B2C-A968-78FEA18C2585";
paths = (
{
closed = 1;
nodes = (
"-45 -437 LINE",
"273 1062 LINE",
"243 1062 LINE",
"-75 -437 LINE"
);
},
{
closed = 1;
nodes = (
"796 -15 OFFCURVE",
"1001 295 OFFCURVE",
"1001 664 CURVE SMOOTH",
"1001 920 OFFCURVE",
"899 1073 OFFCURVE",
"671 1073 CURVE SMOOTH",
"431 1073 OFFCURVE",
"207 886 OFFCURVE",
"162 675 CURVE",
"190 675 LINE",
"232 872 OFFCURVE",
"455 1045 OFFCURVE",
"671 1045 CURVE SMOOTH",
"880 1045 OFFCURVE",
"970 902 OFFCURVE",
"970 663 CURVE SMOOTH",
"970 317 OFFCURVE",
"779 13 OFFCURVE",
"451 13 CURVE SMOOTH",
"260 13 OFFCURVE",
"123 148 OFFCURVE",
"123 316 CURVE SMOOTH",
"123 347 OFFCURVE",
"130 388 OFFCURVE",
"130 390 CURVE",
"101 390 LINE",
"101 389 OFFCURVE",
"92 344 OFFCURVE",
"92 311 CURVE SMOOTH",
"92 131 OFFCURVE",
"239 -15 OFFCURVE",
"451 -15 CURVE SMOOTH"
);
}
);
width = 1142;
}
);
leftKerningGroup = p;
leftMetricsKey = h;
note = p;
rightKerningGroup = o;
rightMetricsKey = o;
unicode = 0070;
},
{
glyphname = thorn;
lastChange = "2020-04-10 19:35:39 +0000";
layers = (
{
components = (
{
name = b;
}
);
layerId = "A1A0948C-E637-4A65-8CCC-05505AD98C44";
paths = (
{
closed = 1;
nodes = (
"151 755 LINE",
"151 -437 LINE",
"183 -437 LINE",
"183 755 LINE"
);
}
);
width = 1150;
},
{
components = (
{
name = b;
}
);
layerId = "584F9D0D-8480-40C6-ABEA-8DD6EE64252D";
paths = (
{
closed = 1;
nodes = (
"103 654 LINE",
"103 -437 LINE",
"507 -437 LINE",
"507 654 LINE"
);
}
);
width = 1392;
},
{
components = (
{
name = b;
transform = "{1, 0, 0, 1, 3, 0}";
}
);
layerId = "3FDD6C00-F7FD-4E85-84B0-0136AF7D7529";
paths = (
{
closed = 1;
nodes = (
"116 623 LINE",
"-115 -437 LINE",
"291 -437 LINE",
"547 748 LINE"
);
}
);
width = 1391;
},
{
components = (
{
name = b;
}
);
layerId = "2503C51C-5A6C-4B2C-A968-78FEA18C2585";
paths = (
{
closed = 1;
nodes = (
"191 761 LINE",
"-71 -437 LINE",
"-35 -437 LINE",
"232 812 LINE"
);
}
);
width = 1142;
}
);
leftKerningGroup = h;
leftMetricsKey = b;
note = thorn;
rightKerningGroup = o;
rightMetricsKey = b;
unicode = 00FE;
},
{
glyphname = q;
lastChange = "2020-04-11 13:40:45 +0000";
layers = (
{
anchors = (
{
name = bottom;
position = "{598, 0}";
},
{
name = top;
position = "{598, 1062}";
}
);
layerId = "A1A0948C-E637-4A65-8CCC-05505AD98C44";
paths = (
{
closed = 1;
nodes = (
"943 -437 LINE",
"943 1062 LINE",
"913 1062 LINE",
"913 -437 LINE"
);
},
{
closed = 1;
nodes = (
"742 -15 OFFCURVE",
"943 159 OFFCURVE",
"943 390 CURVE",
"913 390 LINE",
"913 179 OFFCURVE",
"725 13 OFFCURVE",
"513 13 CURVE SMOOTH",
"273 13 OFFCURVE",
"110 200 OFFCURVE",
"110 529 CURVE SMOOTH",
"110 858 OFFCURVE",
"273 1045 OFFCURVE",
"513 1045 CURVE SMOOTH",
"729 1045 OFFCURVE",
"913 872 OFFCURVE",
"913 675 CURVE SMOOTH",
"913 670 OFFCURVE",
"913 666 OFFCURVE",
"913 661 CURVE",
"943 657 LINE",
"943 663 OFFCURVE",
"943 669 OFFCURVE",
"943 675 CURVE SMOOTH",
"943 886 OFFCURVE",
"753 1073 OFFCURVE",
"513 1073 CURVE SMOOTH",
"254 1073 OFFCURVE",
"79 877 OFFCURVE",
"79 529 CURVE SMOOTH",
"79 181 OFFCURVE",
"254 -15 OFFCURVE",
"513 -15 CURVE SMOOTH"
);
}
);
width = 1134;
},
{
anchors = (
{
name = bottom;
position = "{718, 0}";
},
{
name = top;
position = "{718, 1062}";
}
);
layerId = "584F9D0D-8480-40C6-ABEA-8DD6EE64252D";
paths = (
{
closed = 1;
nodes = (
"1286 -437 LINE",
"1286 1062 LINE",
"882 1062 LINE",
"882 -437 LINE"
);
},
{
closed = 1;
nodes = (
"823 -15 OFFCURVE",
"1024 210 OFFCURVE",
"1024 505 CURVE",
"882 515 LINE",
"882 382 OFFCURVE",
"780 314 OFFCURVE",
"684 314 CURVE SMOOTH",
"583 314 OFFCURVE",
"482 381 OFFCURVE",
"482 538 CURVE SMOOTH",
"482 695 OFFCURVE",
"583 757 OFFCURVE",
"684 757 CURVE SMOOTH",
"778 757 OFFCURVE",
"882 694 OFFCURVE",
"882 561 CURVE SMOOTH",
"882 557 OFFCURVE",
"882 552 OFFCURVE",
"882 548 CURVE",
"1024 548 LINE",
"1024 556 OFFCURVE",
"1024 563 OFFCURVE",
"1024 571 CURVE SMOOTH",
"1024 866 OFFCURVE",
"823 1073 OFFCURVE",
"568 1073 CURVE SMOOTH",
"311 1073 OFFCURVE",
"66 890 OFFCURVE",
"66 538 CURVE SMOOTH",
"66 166 OFFCURVE",
"301 -15 OFFCURVE",
"568 -15 CURVE SMOOTH"
);
}
);
width = 1401;
},
{
anchors = (
{
name = bottom;
position = "{607, 0}";
},
{
name = top;
position = "{833, 1062}";
}
);
layerId = "3FDD6C00-F7FD-4E85-84B0-0136AF7D7529";
paths = (
{
closed = 1;
nodes = (
"1072 -437 LINE",
"1390 1062 LINE",
"986 1062 LINE",
"668 -437 LINE"
);
},
{
closed = 1;
nodes = (
"699 -15 OFFCURVE",
"948 210 OFFCURVE",
"1011 505 CURVE",
"871 515 LINE",
"843 382 OFFCURVE",
"726 314 OFFCURVE",
"630 314 CURVE SMOOTH",
"539 314 OFFCURVE",
"473 375 OFFCURVE",
"473 487 CURVE SMOOTH",
"473 642 OFFCURVE",
"574 757 OFFCURVE",
"724 757 CURVE SMOOTH",
"806 757 OFFCURVE",
"886 709 OFFCURVE",
"886 608 CURVE SMOOTH",
"886 593 OFFCURVE",
"882 564 OFFCURVE",
"878 548 CURVE",
"1020 548 LINE",
"1031 591 OFFCURVE",
"1039 654 OFFCURVE",
"1039 697 CURVE SMOOTH",
"1039 923 OFFCURVE",
"893 1073 OFFCURVE",
"676 1073 CURVE SMOOTH",
"322 1073 OFFCURVE",
"54 778 OFFCURVE",
"54 414 CURVE SMOOTH",
"54 130 OFFCURVE",
"205 -15 OFFCURVE",
"444 -15 CURVE SMOOTH"
);
}
);
width = 1408;
},
{
anchors = (
{
name = bottom;
position = "{492, 0}";
},
{
name = top;
position = "{718, 1062}";
}
);
layerId = "2503C51C-5A6C-4B2C-A968-78FEA18C2585";
paths = (
{
closed = 1;
nodes = (
"752 -437 LINE",
"1070 1062 LINE",
"1040 1062 LINE",
"722 -437 LINE"
);
},
{
closed = 1;
nodes = (
"687 -15 OFFCURVE",
"881 173 OFFCURVE",
"926 384 CURVE",
"896 383 LINE",
"854 186 OFFCURVE",
"663 13 OFFCURVE",
"427 13 CURVE SMOOTH",
"219 13 OFFCURVE",
"118 163 OFFCURVE",
"118 389 CURVE SMOOTH",
"118 739 OFFCURVE",
"306 1045 OFFCURVE",
"637 1045 CURVE SMOOTH",
"828 1045 OFFCURVE",
"965 910 OFFCURVE",
"965 742 CURVE SMOOTH",
"965 717 OFFCURVE",
"961 692 OFFCURVE",
"955 661 CURVE",
"983 657 LINE",
"984 660 OFFCURVE",
"995 702 OFFCURVE",
"995 747 CURVE SMOOTH",
"995 927 OFFCURVE",
"850 1073 OFFCURVE",
"638 1073 CURVE SMOOTH",
"288 1073 OFFCURVE",
"86 760 OFFCURVE",
"86 387 CURVE SMOOTH",
"86 145 OFFCURVE",
"199 -15 OFFCURVE",
"425 -15 CURVE SMOOTH"
);
}
);
width = 1179;
}
);
leftKerningGroup = o;
leftMetricsKey = o;
note = q;
rightKerningGroup = q;
rightMetricsKey = d;
unicode = 0071;
},
{
glyphname = r;
lastChange = "2020-04-10 19:41:27 +0000";
layers = (
{
anchors = (
{
name = bottom;
position = "{404, 0}";
},
{
name = top;
position = "{404, 1062}";
}
);
layerId = "A1A0948C-E637-4A65-8CCC-05505AD98C44";
paths = (
{
closed = 1;
nodes = (
"163 0 LINE",
"163 752 LINE",
"163 887 OFFCURVE",
"315 1045 OFFCURVE",
"545 1045 CURVE SMOOTH",
"629 1045 OFFCURVE",
"681 1024 OFFCURVE",
"683 1023 CURVE",
"697 1049 LINE",
"683 1054 OFFCURVE",
"628 1073 OFFCURVE",
"544 1073 CURVE SMOOTH",
"390 1073 OFFCURVE",
"220 998 OFFCURVE",
"159 859 CURVE",
"163 855 LINE",
"163 1062 LINE",
"133 1062 LINE",
"133 0 LINE"
);
}
);
width = 809;
},
{
anchors = (
{
name = bottom;
position = "{531, 0}";
},
{
name = top;
position = "{531, 1062}";
}
);
layerId = "584F9D0D-8480-40C6-ABEA-8DD6EE64252D";
paths = (
{
closed = 1;
nodes = (
"498 0 LINE",
"498 448 LINE",
"498 590 OFFCURVE",
"622 716 OFFCURVE",
"830 716 CURVE SMOOTH",
"889 716 OFFCURVE",
"933 697 OFFCURVE",
"945 690 CURVE",
"1020 1062 LINE",
"1007 1067 OFFCURVE",
"976 1077 OFFCURVE",
"890 1077 CURVE SMOOTH",
"683 1077 OFFCURVE",
"509 949 OFFCURVE",
"469 723 CURVE",
"498 669 LINE",
"498 1062 LINE",
"94 1062 LINE",
"94 0 LINE"
);
}
);
width = 1039;
},
{
anchors = (
{
name = bottom;
position = "{409, 0}";
},
{
name = top;
position = "{635, 1062}";
}
);
layerId = "3FDD6C00-F7FD-4E85-84B0-0136AF7D7529";
paths = (
{
closed = 1;
nodes = (
"383 0 LINE",
"478 450 LINE",
"508 592 OFFCURVE",
"662 716 OFFCURVE",
"870 716 CURVE SMOOTH",
"929 716 OFFCURVE",
"969 697 OFFCURVE",
"979 690 CURVE",
"1130 1062 LINE",
"1118 1067 OFFCURVE",
"1089 1077 OFFCURVE",
"1003 1077 CURVE SMOOTH",
"796 1077 OFFCURVE",
"595 949 OFFCURVE",
"507 723 CURVE",
"525 669 LINE",
"608 1062 LINE",
"204 1062 LINE",
"-21 0 LINE"
);
}
);
width = 1039;
},
{
anchors = (
{
name = bottom;
position = "{279, 0}";
},
{
name = top;
position = "{505, 1062}";
}
);
layerId = "2503C51C-5A6C-4B2C-A968-78FEA18C2585";
paths = (
{
closed = 1;
nodes = (
"47 0 LINE",
"207 752 LINE",
"236 887 OFFCURVE",
"424 1045 OFFCURVE",
"654 1045 CURVE SMOOTH",
"738 1045 OFFCURVE",
"783 1024 OFFCURVE",
"784 1023 CURVE",
"804 1049 LINE",
"791 1054 OFFCURVE",
"738 1073 OFFCURVE",
"654 1073 CURVE SMOOTH",
"500 1073 OFFCURVE",
"314 998 OFFCURVE",
"224 859 CURVE",
"229 855 LINE",
"273 1062 LINE",
"243 1062 LINE",
"17 0 LINE"
);
}
);
width = 807;
}
);
leftKerningGroup = n;
leftMetricsKey = h;
note = r;
rightKerningGroup = r;
unicode = 0072;
},
{
glyphname = s;
lastChange = "2020-04-11 13:40:45 +0000";
layers = (
{
anchors = (
{
name = bottom;
position = "{483, 0}";
},
{
name = top;
position = "{483, 1062}";
}
);
layerId = "A1A0948C-E637-4A65-8CCC-05505AD98C44";
paths = (
{
closed = 1;
nodes = (
"728 -15 OFFCURVE",
"886 86 OFFCURVE",
"886 256 CURVE SMOOTH",
"886 434 OFFCURVE",
"753 497 OFFCURVE",
"490 546 CURVE SMOOTH",
"275 586 OFFCURVE",
"129 641 OFFCURVE",
"129 804 CURVE SMOOTH",
"129 967 OFFCURVE",
"291 1045 OFFCURVE",
"484 1045 CURVE SMOOTH",
"669 1045 OFFCURVE",
"835 974 OFFCURVE",
"835 753 CURVE SMOOTH",
"835 746 OFFCURVE",
"835 736 OFFCURVE",
"835 729 CURVE",
"866 729 LINE",
"866 737 OFFCURVE",
"866 747 OFFCURVE",
"866 754 CURVE SMOOTH",
"866 984 OFFCURVE",
"693 1073 OFFCURVE",
"480 1073 CURVE SMOOTH",
"275 1073 OFFCURVE",
"98 980 OFFCURVE",
"98 808 CURVE SMOOTH",
"98 623 OFFCURVE",
"250 560 OFFCURVE",
"486 518 CURVE SMOOTH",
"723 476 OFFCURVE",
"855 419 OFFCURVE",
"855 254 CURVE SMOOTH",
"855 104 OFFCURVE",
"710 13 OFFCURVE",
"481 13 CURVE SMOOTH",
"252 13 OFFCURVE",
"122 114 OFFCURVE",
"111 289 CURVE SMOOTH",
"110 305 OFFCURVE",
"110 323 OFFCURVE",
"110 335 CURVE",
"79 335 LINE",
"79 323 OFFCURVE",
"79 306 OFFCURVE",
"80 291 CURVE SMOOTH",
"93 98 OFFCURVE",
"225 -15 OFFCURVE",
"483 -15 CURVE SMOOTH"
);
}
);
width = 1038;
},
{
anchors = (
{
name = bottom;
position = "{639, 0}";
},
{
name = top;
position = "{639, 1062}";
}
);
layerId = "584F9D0D-8480-40C6-ABEA-8DD6EE64252D";
paths = (
{
closed = 1;
nodes = (
"930 -15 OFFCURVE",
"1205 73 OFFCURVE",
"1205 342 CURVE SMOOTH",
"1205 592 OFFCURVE",
"887 642 OFFCURVE",
"708 665 CURVE SMOOTH",
"567 683 OFFCURVE",
"483 700 OFFCURVE",
"483 740 CURVE SMOOTH",
"483 785 OFFCURVE",
"567 796 OFFCURVE",
"638 796 CURVE SMOOTH",
"739 796 OFFCURVE",
"801 769 OFFCURVE",
"801 714 CURVE",
"801 711 OFFCURVE",
"801 707 OFFCURVE",
"801 704 CURVE",
"1196 704 LINE",
"1196 707 OFFCURVE",
"1196 711 OFFCURVE",
"1196 714 CURVE",
"1196 938 OFFCURVE",
"942 1073 OFFCURVE",
"641 1073 CURVE SMOOTH",
"345 1073 OFFCURVE",
"85 965 OFFCURVE",
"85 733 CURVE SMOOTH",
"85 507 OFFCURVE",
"375 414 OFFCURVE",
"557 396 CURVE SMOOTH",
"738 378 OFFCURVE",
"811 369 OFFCURVE",
"811 325 CURVE SMOOTH",
"811 280 OFFCURVE",
"722 265 OFFCURVE",
"648 265 CURVE SMOOTH",
"536 265 OFFCURVE",
"465 290 OFFCURVE",
"465 346 CURVE",
"465 349 OFFCURVE",
"465 353 OFFCURVE",
"465 356 CURVE",
"66 356 LINE",
"66 353 OFFCURVE",
"66 349 OFFCURVE",
"66 346 CURVE",
"66 98 OFFCURVE",
"356 -15 OFFCURVE",
"646 -15 CURVE SMOOTH"
);
}
);
width = 1283;
},
{
anchors = (
{
name = bottom;
position = "{536, 0}";
},
{
name = top;
position = "{742, 1062}";
}
);
layerId = "3FDD6C00-F7FD-4E85-84B0-0136AF7D7529";
paths = (
{
closed = 1;
nodes = (
"847 -15 OFFCURVE",
"1164 84 OFFCURVE",
"1164 378 CURVE SMOOTH",
"1164 590 OFFCURVE",
"899 643 OFFCURVE",
"734 665 CURVE SMOOTH",
"597 683 OFFCURVE",
"525 703 OFFCURVE",
"525 740 CURVE SMOOTH",
"525 782 OFFCURVE",
"611 796 OFFCURVE",
"692 796 CURVE SMOOTH",
"784 796 OFFCURVE",
"839 774 OFFCURVE",
"839 728 CURVE SMOOTH",
"839 724 OFFCURVE",
"836 708 OFFCURVE",
"835 704 CURVE",
"1230 704 LINE",
"1232 711 OFFCURVE",
"1238 753 OFFCURVE",
"1238 771 CURVE SMOOTH",
"1238 961 OFFCURVE",
"1015 1073 OFFCURVE",
"740 1073 CURVE SMOOTH",
"443 1073 OFFCURVE",
"123 969 OFFCURVE",
"123 700 CURVE SMOOTH",
"123 506 OFFCURVE",
"358 421 OFFCURVE",
"526 396 CURVE SMOOTH",
"703 370 OFFCURVE",
"765 357 OFFCURVE",
"765 325 CURVE SMOOTH",
"765 281 OFFCURVE",
"673 265 OFFCURVE",
"589 265 CURVE SMOOTH",
"486 265 OFFCURVE",
"422 286 OFFCURVE",
"422 333 CURVE SMOOTH",
"422 337 OFFCURVE",
"424 350 OFFCURVE",
"425 356 CURVE",
"26 356 LINE",
"24 346 OFFCURVE",
"17 310 OFFCURVE",
"17 286 CURVE SMOOTH",
"17 80 OFFCURVE",
"271 -15 OFFCURVE",
"537 -15 CURVE SMOOTH"
);
}
);
width = 1280;
},
{
anchors = (
{
name = bottom;
position = "{385, 0}";
},
{
name = top;
position = "{601, 1062}";
}
);
layerId = "2503C51C-5A6C-4B2C-A968-78FEA18C2585";
paths = (
{
closed = 1;
nodes = (
"643 -15 OFFCURVE",
"845 94 OFFCURVE",
"845 300 CURVE SMOOTH",
"845 431 OFFCURVE",
"748 500 OFFCURVE",
"510 546 CURVE SMOOTH",
"312 584 OFFCURVE",
"202 636 OFFCURVE",
"202 767 CURVE SMOOTH",
"202 966 OFFCURVE",
"411 1045 OFFCURVE",
"610 1045 CURVE SMOOTH",
"772 1045 OFFCURVE",
"908 991 OFFCURVE",
"908 829 CURVE SMOOTH",
"908 780 OFFCURVE",
"901 753 OFFCURVE",
"894 729 CURVE",
"925 729 LINE",
"932 755 OFFCURVE",
"939 782 OFFCURVE",
"939 833 CURVE SMOOTH",
"939 1005 OFFCURVE",
"795 1073 OFFCURVE",
"609 1073 CURVE SMOOTH",
"396 1073 OFFCURVE",
"172 978 OFFCURVE",
"172 765 CURVE SMOOTH",
"172 619 OFFCURVE",
"284 558 OFFCURVE",
"500 518 CURVE SMOOTH",
"716 478 OFFCURVE",
"814 415 OFFCURVE",
"814 295 CURVE SMOOTH",
"814 109 OFFCURVE",
"626 13 OFFCURVE",
"387 13 CURVE SMOOTH",
"180 13 OFFCURVE",
"72 95 OFFCURVE",
"72 240 CURVE SMOOTH",
"72 266 OFFCURVE",
"78 308 OFFCURVE",
"85 335 CURVE",
"54 335 LINE",
"47 308 OFFCURVE",
"41 268 OFFCURVE",
"41 236 CURVE SMOOTH",
"41 77 OFFCURVE",
"156 -15 OFFCURVE",
"388 -15 CURVE SMOOTH"
);
}
);
width = 1049;
}
);
leftKerningGroup = o;
leftMetricsKey = o;
note = s;
rightKerningGroup = o;
rightMetricsKey = o;
unicode = 0073;
},
{
glyphname = germandbls;
lastChange = "2020-04-10 20:05:40 +0000";
layers = (
{
layerId = "A1A0948C-E637-4A65-8CCC-05505AD98C44";
paths = (
{
closed = 1;
nodes = (
"160 0 LINE",
"160 1038 LINE SMOOTH",
"160 1332 OFFCURVE",
"285 1460 OFFCURVE",
"503 1460 CURVE SMOOTH",
"703 1460 OFFCURVE",
"781 1336 OFFCURVE",
"781 1211 CURVE SMOOTH",
"781 1073 OFFCURVE",
"708 1010 OFFCURVE",
"637 960 CURVE SMOOTH",
"594 929 OFFCURVE",
"558 893 OFFCURVE",
"558 833 CURVE SMOOTH",
"558 755 OFFCURVE",
"636 707 OFFCURVE",
"723 655 CURVE SMOOTH",
"821 596 OFFCURVE",
"923 515 OFFCURVE",
"923 359 CURVE SMOOTH",
"923 139 OFFCURVE",
"762 15 OFFCURVE",
"540 15 CURVE SMOOTH",
"473 15 OFFCURVE",
"398 36 OFFCURVE",
"374 47 CURVE",
"360 17 LINE",
"389 5 OFFCURVE",
"462 -13 OFFCURVE",
"542 -13 CURVE SMOOTH",
"792 -13 OFFCURVE",
"956 127 OFFCURVE",
"956 357 CURVE SMOOTH",
"956 527 OFFCURVE",
"848 620 OFFCURVE",
"745 679 CURVE SMOOTH",
"662 727 OFFCURVE",
"590 773 OFFCURVE",
"590 833 CURVE SMOOTH",
"590 885 OFFCURVE",
"625 914 OFFCURVE",
"671 949 CURVE SMOOTH",
"736 998 OFFCURVE",
"813 1068 OFFCURVE",
"813 1211 CURVE SMOOTH",
"813 1377 OFFCURVE",
"690 1489 OFFCURVE",
"505 1489 CURVE SMOOTH",
"262 1489 OFFCURVE",
"129 1348 OFFCURVE",
"129 1033 CURVE SMOOTH",
"129 0 LINE"
);
}
);
width = 1108;
},
{
layerId = "584F9D0D-8480-40C6-ABEA-8DD6EE64252D";
paths = (
{
closed = 1;
nodes = (
"491 0 LINE",
"491 881 LINE SMOOTH",
"491 1111 OFFCURVE",
"544 1188 OFFCURVE",
"683 1188 CURVE SMOOTH",
"784 1188 OFFCURVE",
"815 1131 OFFCURVE",
"815 1078 CURVE SMOOTH",
"815 1029 OFFCURVE",
"784 999 OFFCURVE",
"748 965 CURVE SMOOTH",
"707 926 OFFCURVE",
"665 879 OFFCURVE",
"665 789 CURVE SMOOTH",
"665 687 OFFCURVE",
"730 615 OFFCURVE",
"790 550 CURVE SMOOTH",
"838 498 OFFCURVE",
"881 451 OFFCURVE",
"881 397 CURVE SMOOTH",
"881 305 OFFCURVE",
"843 278 OFFCURVE",
"749 278 CURVE SMOOTH",
"695 278 OFFCURVE",
"649 294 OFFCURVE",
"627 302 CURVE",
"578 7 LINE",
"612 -4 OFFCURVE",
"685 -13 OFFCURVE",
"747 -13 CURVE SMOOTH",
"1138 -13 OFFCURVE",
"1277 147 OFFCURVE",
"1277 405 CURVE SMOOTH",
"1277 541 OFFCURVE",
"1204 627 OFFCURVE",
"1134 684 CURVE SMOOTH",
"1084 725 OFFCURVE",
"1042 761 OFFCURVE",
"1042 796 CURVE SMOOTH",
"1042 830 OFFCURVE",
"1067 855 OFFCURVE",
"1099 887 CURVE SMOOTH",
"1142 930 OFFCURVE",
"1190 989 OFFCURVE",
"1190 1104 CURVE SMOOTH",
"1190 1348 OFFCURVE",
"961 1489 OFFCURVE",
"695 1489 CURVE SMOOTH",
"453 1489 OFFCURVE",
"92 1423 OFFCURVE",
"92 933 CURVE SMOOTH",
"92 0 LINE"
);
}
);
width = 1355;
},
{
layerId = "3FDD6C00-F7FD-4E85-84B0-0136AF7D7529";
paths = (
{
closed = 1;
nodes = (
"377 0 LINE",
"564 881 LINE SMOOTH",
"613 1111 OFFCURVE",
"685 1188 OFFCURVE",
"824 1188 CURVE SMOOTH",
"906 1188 OFFCURVE",
"934 1150 OFFCURVE",
"934 1102 CURVE SMOOTH",
"934 1044 OFFCURVE",
"891 1008 OFFCURVE",
"834 965 CURVE SMOOTH",
"759 909 OFFCURVE",
"714 841 OFFCURVE",
"714 740 CURVE SMOOTH",
"714 663 OFFCURVE",
"758 601 OFFCURVE",
"800 550 CURVE SMOOTH",
"837 505 OFFCURVE",
"854 464 OFFCURVE",
"854 418 CURVE SMOOTH",
"854 326 OFFCURVE",
"798 278 OFFCURVE",
"694 278 CURVE SMOOTH",
"640 278 OFFCURVE",
"598 294 OFFCURVE",
"577 302 CURVE",
"466 7 LINE",
"497 -4 OFFCURVE",
"598 -13 OFFCURVE",
"660 -13 CURVE SMOOTH",
"1019 -13 OFFCURVE",
"1257 155 OFFCURVE",
"1257 477 CURVE SMOOTH",
"1257 573 OFFCURVE",
"1202 638 OFFCURVE",
"1156 684 CURVE SMOOTH",
"1118 722 OFFCURVE",
"1096 755 OFFCURVE",
"1096 787 CURVE SMOOTH",
"1096 822 OFFCURVE",
"1131 852 OFFCURVE",
"1174 885 CURVE SMOOTH",
"1270 959 OFFCURVE",
"1320 1063 OFFCURVE",
"1320 1180 CURVE SMOOTH",
"1320 1377 OFFCURVE",
"1105 1489 OFFCURVE",
"868 1489 CURVE SMOOTH",
"626 1489 OFFCURVE",
"280 1423 OFFCURVE",
"176 933 CURVE SMOOTH",
"-22 0 LINE"
);
}
);
width = 1357;
},
{
layerId = "2503C51C-5A6C-4B2C-A968-78FEA18C2585";
paths = (
{
closed = 1;
nodes = (
"43 0 LINE",
"260 1018 LINE SMOOTH",
"323 1312 OFFCURVE",
"478 1460 OFFCURVE",
"696 1460 CURVE SMOOTH",
"861 1460 OFFCURVE",
"930 1378 OFFCURVE",
"930 1270 CURVE SMOOTH",
"930 1119 OFFCURVE",
"852 1039 OFFCURVE",
"724 962 CURVE SMOOTH",
"663 925 OFFCURVE",
"615 878 OFFCURVE",
"615 814 CURVE SMOOTH",
"615 750 OFFCURVE",
"678 700 OFFCURVE",
"747 655 CURVE SMOOTH",
"822 606 OFFCURVE",
"890 544 OFFCURVE",
"890 426 CURVE SMOOTH",
"890 186 OFFCURVE",
"678 15 OFFCURVE",
"426 15 CURVE SMOOTH",
"359 15 OFFCURVE",
"289 36 OFFCURVE",
"267 47 CURVE",
"247 17 LINE",
"273 5 OFFCURVE",
"347 -13 OFFCURVE",
"427 -13 CURVE SMOOTH",
"700 -13 OFFCURVE",
"923 171 OFFCURVE",
"923 432 CURVE SMOOTH",
"923 555 OFFCURVE",
"842 629 OFFCURVE",
"765 679 CURVE SMOOTH",
"699 722 OFFCURVE",
"648 765 OFFCURVE",
"648 817 CURVE SMOOTH",
"648 876 OFFCURVE",
"705 914 OFFCURVE",
"758 949 CURVE SMOOTH",
"884 1031 OFFCURVE",
"962 1115 OFFCURVE",
"962 1275 CURVE SMOOTH",
"962 1405 OFFCURVE",
"857 1489 OFFCURVE",
"700 1489 CURVE SMOOTH",
"457 1489 OFFCURVE",
"294 1328 OFFCURVE",
"227 1013 CURVE SMOOTH",
"12 0 LINE"
);
}
);
width = 1102;
}
);
leftKerningGroup = h;
note = germandbls;
rightKerningGroup = s;
rightMetricsKey = s;
unicode = 00DF;
},
